<?xml version="1.0" encoding="utf-8"?>
<!-- Svg Vector Icons : http://www.onlinewebfonts.com/icon -->
<!DOCTYPE svg PUBLIC "-//W3C//DTD SVG 1.1//EN" "http://www.w3.org/Graphics/SVG/1.1/DTD/svg11.dtd">
<svg version="1.1" xmlns="http://www.w3.org/2000/svg" xmlns:xlink="http://www.w3.org/1999/xlink" x="0px" y="0px" viewBox="0 0 1000 1000" enable-background="new 0 0 1000 1000" xml:space="preserve">
<metadata> Svg Vector Icons : http://www.onlinewebfonts.com/icon </metadata>
<g><g><g><g><g><path d="M500,10C229.4,10,10,229.4,10,500s219.4,490,490,490s490-219.4,490-490C990,229.3,770.6,10,500,10z M632.9,789.7c-31.2,0-60.3-8.9-85.1-24.3c-15.9,2.9-32.3,4.5-49.1,4.5c-149.1,0-270-120.2-270-268.6c0-14.4,1.2-28.5,3.4-42.3c-16.5-25.2-26-55.4-26-87.7c0-89,72.1-161.1,161.1-161.1c32.5,0,62.6,9.6,88,26.2c14.1-2.3,28.7-3.6,43.5-3.6c149.1,0,270,120.3,270,268.6c0,12.4-0.9,24.5-2.5,36.4c17.7,25.9,28,57.1,28,90.7C794,717.6,721.9,789.7,632.9,789.7z" fill="currentColor"/><path d="M464.7,449.7c-78-19-35.3-85.7,27.9-84.8c61.4,1,92.6,65.8,120.4,62.4c27.9-3.4,51.6-45.1,7.8-82.4c-37.8-32.3-85.7-50.2-159.4-43.5c-57.7,5.2-112.5,42.4-119.3,114.8c-6.7,72.5,79.2,109.3,147.2,119.4c47.7,7,112.6,30.1,73.5,74.7c-35.8,41-103.6,15.6-121.5,4.5c-17.8-11.3-37.9-51.3-71.4-49.2c-33.5,2.3-50,46.2-8.9,84.8c36.8,34.5,76.9,53.5,162.7,49c85.9-4.5,162.8-80.2,132.7-151.7C626.4,476.4,542.8,468.6,464.7,449.7z" fill="currentColor"/></g></g></g></g><g></g><g></g><g></g><g></g><g></g><g></g><g></g><g></g><g></g><g></g><g></g><g></g><g></g><g></g><g></g></g>
</svg>
