<svg width="62.81666564941406" height="36" viewBox="0 0 63 36" preserveAspectRatio="none" xmlns="http://www.w3.org/2000/svg"><path d="M0 0 C0 0, 0 0, 0 0 M0 0 C0 0, 0 0, 0 0 M-0.7527869961655225 6.84905645786945 C1.6003828186121305 5.360999256012179, 3.5582985314451454 5.0140291937580805, 6.1698811855661795 1.163877018881018 M-0.1120555245748247 7.597921612441281 C1.956765802622423 4.663183234944512, 4.453595346086766 2.5829802672587814, 6.702306934681825 -0.11278741977644469 M-1.5388177676987818 16.987832139715035 C1.7475396214590306 9.42866521624014, 7.456966179093595 7.645048308435154, 12.457568927245365 -0.4120738123810854 M-0.9193870115024021 15.529864495157678 C5.940177983968217 9.658240600829744, 9.76720404606472 3.63048566554561, 13.824352700771914 -0.39254191231792834 M1.7014913534756655 23.199470734220455 C7.464139539633231 12.871456398058156, 15.379878079749563 6.9858723395354545, 21.20030588526211 1.0727951677854044 M0.10089698750636522 22.908831030127118 C7.868047288213852 15.496692005865032, 13.847825716464715 7.498338142700344, 19.142022651247004 -0.3171939754520672 M0.14648592197796262 32.16243527247404 C11.374303401732744 19.472909249690012, 19.06583750093282 5.063969301374929, 26.059036343034716 1.6798908630397857 M-0.031503942743931646 30.413675281916014 C10.102897455465776 19.588404065449186, 20.229260596052402 8.688348221684006, 25.97704375223479 -0.18445964027077544 M1.9033811107171346 35.12004330286997 C7.124125034847587 26.863095838538264, 16.52649245817527 17.330031661753132, 32.356201165491186 -0.4278937677782153 M0.30960730424948224 36.06463130282479 C8.503568658177391 28.320229939733736, 14.761043738568384 19.43889513996601, 32.53607317725702 0.17398618097192298 M9.481162929573726 35.055389883134126 C16.914925105069834 26.30588919877838, 23.996360152601596 14.863788134989175, 38.25465788058801 0.8053692248394455 M7.408058046960901 36.20960127948558 C17.260644917380493 25.922930880884756, 27.737879075220665 13.98575630177881, 39.55954413786395 0.9698941916903223 M12.668643761551682 37.39170086388839 C22.97809445880073 26.422077027029907, 34.62448017111794 13.20838997497074, 46.0690348532532 1.425385299732497 M15.020861351988021 37.28700881642652 C25.41727030621188 24.095515907742353, 35.18380256781249 13.323053027047923, 45.570520057577326 -0.38231677036959866 M19.71852488460749 35.03256044464081 C32.71286805698642 22.004166067741807, 44.99182763687871 9.192227477287833, 51.672554198414744 0.35676616574066955 M21.49977855588108 35.928526492061906 C29.77948573537552 27.974434853245228, 37.81739717718118 18.297524439802224, 52.21901748491889 0.6860690075381406 M27.41027841366916 36.49633033423113 C39.84221707524969 21.61039348388856, 51.84496895458631 10.211615970676007, 57.90385469402915 0.29215852237200224 M27.791701207161836 36.155995019137734 C36.50076332118178 27.32603117626099, 45.285056016193074 17.257650438704292, 59.62632900643891 -0.150307146172171 M34.45697021366469 34.80527849149907 C42.531605213025536 27.15085357062891, 48.119116795686494 19.024803866938882, 64.5662278970434 3.298405738911775 M34.782973979352036 37.33305198539996 C43.51006303075398 25.72135870108388, 52.24702993568458 15.426325739962795, 64.32175936267811 2.5577833916909967 M38.91208281255058 36.374707865952665 C45.58462382670564 29.403357685685947, 54.77145977803099 22.180933266567767, 63.86626396945195 9.969805335759105 M40.643717584001934 36.11676059426289 C47.88231711687485 26.9949787681262, 56.73425881394299 18.721310695680515, 64.61877127422468 10.24991402043301 M45.48086957525483 35.109698916431654 C50.60736401241873 29.659011987741987, 57.66251966907858 24.750399253903097, 64.91003225810687 14.95891737997156 M48.076682944633276 37.6168521834725 C53.48707722980696 29.66595884188665, 61.30563107333006 20.440769852595537, 65.04866602152447 16.949311311017688 M54.802661082645194 37.156622729940764 C56.35289256731872 33.237106003937136, 62.220842834964124 29.909153363385826, 64.17674511482218 25.085372248653027 M53.790178277095094 37.19911602113997 C58.600529017201524 32.10934563117826, 63.28429434010834 27.120464939723828, 64.65274683495262 24.56440466529474 M60.93574648889376 37.35143630811149 C61.63404066681003 35.673224768955386, 62.2017693183788 35.278890895235556, 64.83639062608219 32.26399464508463 M60.851476624222826 36.96079877753877 C61.92521800902474 35.368902520242365, 63.735436800919594 33.27243686352, 64.83520957066305 32.25326850743909 M0.5511123962230815 15.999095701147203 C1.1399778658906363 11.770236202474877, 4.074115603338315 6.361839747782784, 7.145885120048208 0.8775484045914459 M-0.4420978126395847 15.085300418382632 C1.2309747199270262 12.52776570060675, 2.413155701678635 10.200007290866957, 6.5986776791853075 0.1723261698481715 M2.128178474866962 23.813507413488338 C5.51162885072685 15.308876671483368, 10.384557380961839 6.23250014640924, 14.557650609450565 0.6308079148375425 M1.0462114544596428 22.183465331789563 C4.079712423446417 17.398513692947155, 6.036665787532701 12.139178254349162, 13.279513199390994 -0.340113070727047 M1.6184420558204309 28.956971982259503 C3.0767811175562354 22.12051930046914, 9.977177699145638 13.910374009386615, 18.268168634361842 -0.12444303907799892 M0.110933098061885 29.992072019491545 C6.326960267550207 19.7398846352529, 13.512550588668045 8.170673827476104, 19.467967909387568 -0.6136382722889202 M0.1851326241982747 37.54735055098551 C5.645983892063297 28.409801275891127, 13.304038231794696 18.718267767810264, 27.50605711215398 -1.1805629810306488 M1.693661547814088 37.74702240990716 C8.481739357348498 24.946969710428753, 17.82543211964566 13.883815192693799, 26.309882168334337 0.25872390102713716 M9.098954939881038 37.49351942739224 C15.616384219223708 23.09143323829846, 23.28386476404379 14.352744285855927, 34.03906940775498 1.3050285478193189 M8.478614747190546 37.052078064668535 C16.56310594962681 25.521875478567082, 24.806425330535404 13.05994496221889, 32.476756899753056 -1.0820452130328988 M14.785440135872665 37.269485712101584 C20.954114077771916 24.922218527685025, 28.018939975530635 17.62067769096714, 37.72537554912134 -0.18205300302005156 M13.685696387788955 37.53902196330381 C22.32227290586816 24.11677149444222, 31.146809816531032 13.078474970814352, 39.54886906519397 -0.32653866105473384 M22.009008240129646 34.95461485462158 C30.0191498802756 24.822554631659507, 38.24555037318848 15.761417125225467, 45.824916401181056 1.5835853252909686 M20.192058431159552 36.97038605922728 C30.305671438169107 24.788562161831706, 39.05310826303922 11.354800688147865, 45.26412583817883 -0.3376813552923892 M27.93585011757999 38.368049813791984 C31.83524135043792 26.2534514119466, 41.0619819840078 19.376307090412496, 54.40622657886213 1.45624274159211 M26.532483050824098 36.436370440184945 C35.015198702383735 26.981868702746524, 42.65107847964879 16.43142023587968, 52.86238751722938 0.8008986670001157 M35.54075038315169 37.9578397984525 C39.61465493444559 26.828343171321656, 46.07778721142287 17.04238579595706, 57.75325736012107 -1.1917465546085886 M34.24370554530434 36.30647206892276 C44.02094927693883 22.26362220736241, 54.43360741918313 7.163309746418218, 60.42979043889588 -0.2635010157629303 M39.01391031480125 35.69006900811117 C44.57515276368786 30.494893295223417, 51.56203862469598 22.61571748005332, 66.36461280190485 1.136148305974153 M41.208737251150524 36.181113523855025 C49.52588035679621 23.931209939672648, 59.15035359536664 9.294771173398399, 64.83548309371906 2.516004469610003 M47.07230202745667 35.14559915160774 C53.313906279281944 27.576645887709837, 61.019668874466355 16.21160277904903, 66.39219556620793 11.213912343739452 M46.905719716884406 38.05088551772772 C52.204536737379215 30.264032259185807, 55.66618575392805 24.12283207845772, 65.10777195228712 8.801644772424282 M52.36649138604595 38.409198187781925 C56.39666297229945 31.894304362852726, 61.04269834319747 23.026617896237838, 64.13738749988238 18.623793125744875 M53.75224761602773 36.248175638286824 C57.922406437543174 28.92919506221574, 62.189456779364804 22.429932386200537, 64.86780204504589 16.464302713643725 M60.82268223425968 35.62680086632395 C62.86043634907138 33.00523302008168, 63.265743022299155 28.971474714454587, 64.52007346616337 25.488219839136754 M60.53813221630303 37.2128840811471 C62.35524145691474 32.35747741257785, 63.138662578403085 28.91719679309777, 64.66047822914297 24.766533627256457" fill="currentColor" stroke="currentColor" stroke-width="2.5"></path></svg>
