<svg xmlns="http://www.w3.org/2000/svg" xmlns:xlink="http://www.w3.org/1999/xlink"><defs>

<radialGradient fx="50%" fy="50%" id="a"><stop stop-color="#93B4E7" offset="0%"/><stop stop-color="#B9D1F8" offset="59.273%"/><stop stop-color="#9CB6E0" offset="100%"/></radialGradient></defs><symbol id="icon-close" viewBox="0 0 20 20"><g fill="none"><path d="M.293 18.291a1 1 0 101.414 1.414L10 11.413l8.292 8.292a1 1 0 101.414-1.414l-8.292-8.292 8.292-8.292A1 1 0 1018.291.293L9.999 8.585 1.707.293A1 1 0 10.293 1.707L8.585 10 .293 18.291z"/></g></symbol><symbol id="icon-css" viewBox="0 0 16 16"><path fill="#2196F3" d="m1 0 1.275 14.4L8 16l5.723-1.599L15 0z"/><path fill="#FAFAFA" d="m12.274 4.709-.161 1.809-.486 5.423L8 12.944l-.003.001-3.625-1.004-.253-2.836h1.776l.132 1.471 1.971.532.001-.001 1.974-.532.269-2.451-6.208.017-.176-1.676 6.533-.077.132-1.794-6.84.019-.115-1.669h8.864z"/></symbol><symbol id="icon-dark" viewBox="0 0 256 256">


<g style="stroke: none; stroke-width: 0; stroke-dasharray: none; stroke-linecap: butt; stroke-linejoin: miter; stroke-miterlimit: 10; fill: none; fill-rule: nonzero; opacity: 1;" transform="translate(1.4065934065934016 1.4065934065934016) scale(2.81 2.81)">
	<path d="M 87.823 60.7 c -0.463 -0.423 -1.142 -0.506 -1.695 -0.214 c -15.834 8.398 -35.266 2.812 -44.232 -12.718 c -8.966 -15.53 -4.09 -35.149 11.101 -44.665 c 0.531 -0.332 0.796 -0.963 0.661 -1.574 c -0.134 -0.612 -0.638 -1.074 -1.259 -1.153 c -9.843 -1.265 -19.59 0.692 -28.193 5.66 C 13.8 12.041 6.356 21.743 3.246 33.35 S 1.732 57.08 7.741 67.487 c 6.008 10.407 15.709 17.851 27.316 20.961 C 38.933 89.486 42.866 90 46.774 90 c 7.795 0 15.489 -2.044 22.42 -6.046 c 8.601 -4.966 15.171 -12.43 18.997 -21.586 C 88.433 61.79 88.285 61.123 87.823 60.7 z" style="stroke: none; stroke-width: 1; stroke-dasharray: none; stroke-linecap: butt; stroke-linejoin: miter; stroke-miterlimit: 10; fill: currentColor; fill-rule: nonzero; opacity: 1;" transform=" matrix(1 0 0 1 0 0) " stroke-linecap="round"/>
</g>
</symbol><symbol id="icon-git" viewBox="0 0 48 48"><path fill="#F4511E" d="M42.2,22.1L25.9,5.8C25.4,5.3,24.7,5,24,5c0,0,0,0,0,0c-0.7,0-1.4,0.3-1.9,0.8l-3.5,3.5l4.1,4.1c0.4-0.2,0.8-0.3,1.3-0.3c1.7,0,3,1.3,3,3c0,0.5-0.1,0.9-0.3,1.3l4,4c0.4-0.2,0.8-0.3,1.3-0.3c1.7,0,3,1.3,3,3s-1.3,3-3,3c-1.7,0-3-1.3-3-3c0-0.5,0.1-0.9,0.3-1.3l-4-4c-0.1,0-0.2,0.1-0.3,0.1v10.4c1.2,0.4,2,1.5,2,2.8c0,1.7-1.3,3-3,3s-3-1.3-3-3c0-1.3,0.8-2.4,2-2.8V18.8c-1.2-0.4-2-1.5-2-2.8c0-0.5,0.1-0.9,0.3-1.3l-4.1-4.1L5.8,22.1C5.3,22.6,5,23.3,5,24c0,0.7,0.3,1.4,0.8,1.9l16.3,16.3c0,0,0,0,0,0c0.5,0.5,1.2,0.8,1.9,0.8s1.4-0.3,1.9-0.8l16.3-16.3c0.5-0.5,0.8-1.2,0.8-1.9C43,23.3,42.7,22.6,42.2,22.1z"/></symbol><symbol id="icon-github" viewBox="0 0 1024 1024">
  <path d="M511.6 76.3C264.3 76.2 64 276.4 64 523.5 64 718.9 189.3 885 363.8 946c23.5 5.9 19.9-10.8 19.9-22.2v-77.5c-135.7 15.9-141.2-73.9-150.3-88.9C215 726 171.5 718 184.5 703c30.9-15.9 62.4 4 98.9 57.9 26.4 39.1 77.9 32.5 104 26 5.7-23.5 17.9-44.5 34.7-60.8-140.6-25.2-199.2-111-199.2-213 0-49.5 16.3-95 48.3-131.7-20.4-60.5 1.9-112.3 4.9-120 58.1-5.2 118.5 41.6 123.2 45.3 33-8.9 70.7-13.6 112.9-13.6 42.4 0 80.2 4.9 113.5 13.9 11.3-8.6 67.3-48.8 121.3-43.9 2.9 7.7 24.7 58.3 5.5 118 32.4 36.8 48.9 82.7 48.9 132.3 0 102.2-59 188.1-200 212.9a127.5 127.5 0 0 1 38.1 91v112.5c.8 9 0 17.9 15 17.9 177.1-59.7 304.6-227 304.6-424.1 0-247.2-200.4-447.3-447.5-447.3z" fill="currentColor"/>
</symbol><symbol id="icon-gulp" viewBox="-155 0 566 566" preserveAspectRatio="xMinYMin meet"><path d="M197.28 548.749l5.427-90.43 14.985-25.58s-34.106 13.952-91.205 13.952c-57.1 0-90.689-13.694-90.689-13.694l16.794 27.904 5.941 87.848c0 9.418 31.059 17.052 69.374 17.052 38.313 0 69.373-7.634 69.373-17.052M180.161 126.454l11.391-45.025 63.081-66.376L238.007.892l-66.784 70.707-13.226 53.793a886.14 886.14 0 0 0-29.873-.497c-70.336 0-127.355 8.016-127.355 17.902 0 9.887 57.019 17.902 127.355 17.902 70.335 0 127.353-8.015 127.353-17.902 0-7.28-30.924-13.546-75.316-16.343" fill="#D34A47"/><path d="M173.535 151.669s-2.467.553-9.724.584c-7.259.03-12.413-.047-14.466-1.917-.552-.502-.854-1.499-.851-2.174.006-1.285.918-2.042 2.08-2.516l1.099 1.724c-.478.165-.751.36-.752.568-.004.976 7.422 1.644 13.102 1.572 5.681-.07 12.545-.538 12.551-1.5 0-.291-.519-.565-1.422-.781l1.094-1.712c1.472.457 2.757 1.34 2.754 2.868-.014 2.598-3.32 2.993-5.465 3.284" fill="#FFF"/><path d="M254.509 15.184c1.586-1.832-.821-6.518-5.376-10.465C244.576.774 239.596-.94 238.007.892c-1.587 1.832.821 6.518 5.378 10.463 4.555 3.946 9.537 5.662 11.124 3.829M194.246 327.865c-1.495-14.384 31.462-35.216 23.004-35.883-18.208 1.041-27.27 21.338-36.431 42.596-3.357 7.791-14.844 41.013-22.378 36.923-7.532-4.088 9.765-31.407 14.613-47.631-5.594 4.102-26.109 20.041-31.396 5.114-8.5 7.219-26.663 11.13-24.614-7.833-4.522 8.01-14.671 19.193-26.853 14.546-15.998-6.101 9.27-57.062 15.553-54.491 6.284 2.57-1.268 14.179-3.246 18.687-4.35 9.921-9.375 22.393-6.018 24.946 5.751 4.374 21.401-16.547 21.749-17.007 2.927-3.867 11.266-29.166 17.987-26.261 6.721 2.905-16.764 36.308-7.983 42.937 1.771 1.338 9.017-.825 13.425-5.594 2.852-3.085 1.871-9.918 11.378-32.59 9.507-22.671 17.98-50.905 24.5-48.754 6.52 2.15 1.146 16.641-1.193 22.043-10.976 25.354-29.956 67.241-21.005 64.07 8.951-3.17 13.612-3.356 22.377-13.613 8.765-10.257 8.361-27.152 14.203-26.793 5.844.36 4.863 5.777 3.446 9.902 5.75-6.58 27.256-20.438 32.448-6.713 6.15 16.249-30.769 39.72-21.564 38.523 8.975-1.167 23.515-10.376 29.723-18.749l17.088-153.626s-17.195 14.23-126.589 14.23c-109.395 0-124.811-13.934-124.811-13.934l14.548 140.224c7.722-21.947 26.059-66.339 54.963-64.849 13.148.678 30.7 25.995 15.665 26.853-6.364.362-7.01-12.637-14.546-14.546-5.438-1.378-13.009 3.043-17.902 7.833-9.758 9.55-30.745 47.229-27.972 66.014 3.533 23.949 33.048-8.322 38.042-17.903 3.517-6.749 5.893-26.745 13.585-24.647 7.693 2.098-.671 22.734-6.247 40.979-6.264 20.487-9.557 42.098-17.408 39.612-7.852-2.484 4.938-28.932 4.475-33.566-7.38 6.809-20.976 24.047-38.37 15.515l9.035 87.078s24.013 18.973 96.35 18.973c72.337 0 97.239-18.677 97.239-18.677l11.219-100.857c-9.179 8.938-38.229 24.81-40.089 6.919" fill="#D34A47"/></symbol><symbol id="icon-html5" viewBox="0 0 16 16"><path fill="#FF5722" d="m1 0 1.275 14.4L8 16l5.723-1.599L15 0z"/><path fill="#FAFAFA" d="M12.235 4.709h-6.71l.16 1.809h6.39l-.481 5.424L8 12.945l-.003.001-3.592-1.004-.251-2.837h1.76l.131 1.472 1.953.531.002-.001 1.955-.531.204-2.291H4.082l-.474-5.341h8.783z"/></symbol><symbol id="icon-hyperlink" viewBox="0 0 122.88 122.88"><title>hyperlink</title><path d="M60.54,34.07A7.65,7.65,0,0,1,49.72,23.25l13-12.95a35.38,35.38,0,0,1,49.91,0l.07.08a35.37,35.37,0,0,1-.07,49.83l-13,12.95A7.65,7.65,0,0,1,88.81,62.34l13-13a20.08,20.08,0,0,0,0-28.23l-.11-.11a20.08,20.08,0,0,0-28.2.07l-12.95,13Zm14,3.16A7.65,7.65,0,0,1,85.31,48.05L48.05,85.31A7.65,7.65,0,0,1,37.23,74.5L74.5,37.23ZM62.1,89.05A7.65,7.65,0,0,1,72.91,99.87l-12.7,12.71a35.37,35.37,0,0,1-49.76.14l-.28-.27a35.38,35.38,0,0,1,.13-49.78L23,50A7.65,7.65,0,1,1,33.83,60.78L21.12,73.49a20.09,20.09,0,0,0,0,28.25l0,0a20.07,20.07,0,0,0,28.27,0L62.1,89.05Z" fill="currentColor"/></symbol><symbol id="icon-javascript" viewBox="0 0 512 512"><rect width="512" height="512" fill="#f7df1e" rx="15%"/><path d="m324,370c10,17 24,29 47,29 20,0 33,-10 33,-24 0,-16 -13,-22 -35,-32l-12,-5c-35,-15 -58,-33 -58,-72 0,-36 27,-64 70,-64 31,0 53,11 68,39l-37,24c-8,-15 -17,-21 -31,-21 -14,0 -23,9 -23,21 0,14 9,20 30,29l12,5c41,18 64,35 64,76 0,43 -34,67 -80,67 -45,0 -74,-21 -88,-49zm-170,4c8,13 14,25 31,25 16,0 26,-6 26,-30V203h48v164c0,50 -29,72 -72,72 -39,0 -61,-20 -72,-44z"/></symbol><symbol id="icon-node" viewBox="0 0 24 24"><g enable-background="new 0 0 24 24"><path fill="#8CC03E" d="M9.413,21.027c-0.615,0.356-0.732,0.4-1.311,0.604c-0.14,0.048-0.352,0.133,0.081,0.381l2.899,1.738c0.276,0.163,0.597,0.248,0.911,0.248L11.995,24c0.32,0,0.634-0.086,0.912-0.248l8.682-5.076c0.563-0.334,0.911-0.948,0.911-1.606V6.922c0-0.662-0.347-1.276-0.911-1.604l-8.682-5.082c-0.546-0.313-1.274-0.313-1.824,0L2.411,5.313C1.848,5.642,1.5,6.26,1.5,6.917v10.149c0,0.662,0.347,1.276,0.911,1.604l2.275,1.329c1.101,0.552,1.495,0.552,1.997,0.552c1.631,0,2.571-1,2.571-2.743V7.785c0-0.143-0.117-0.252-0.254-0.252H7.901c-0.142,0-0.254,0.109-0.254,0.252v10.018c0,0.776-0.79,1.543-2.082,0.891l-2.379-1.39C3.103,17.262,3.05,17.166,3.05,17.07V6.922c0-0.098,0.053-0.194,0.136-0.242l8.672-5.077h0.267l8.677,5.072c0.084,0.052,0.136,0.142,0.136,0.242V17.07c0,0.095-0.051,0.19-0.131,0.237l-8.682,5.077h-0.267L9.63,21.047L9.413,21.027L9.413,21.027z"/><path fill="#7AA736" d="M9.413,21.027c-0.615,0.356-0.732,0.4-1.311,0.604c-0.14,0.048-0.352,0.133,0.081,0.381l2.899,1.738c0.276,0.163,0.597,0.248,0.911,0.248L11.995,24c0.002,0,0.003,0,0.005,0v-1.615h-0.142L9.63,21.047L9.413,21.027L9.413,21.027z M11.997,0c-0.319,0-0.639,0.078-0.914,0.235L2.411,5.313C1.848,5.642,1.5,6.26,1.5,6.917v10.149c0,0.662,0.347,1.276,0.911,1.604l2.275,1.329c1.101,0.552,1.495,0.552,1.997,0.552c1.631,0,2.571-1,2.571-2.743V7.785c0-0.143-0.117-0.252-0.254-0.252H7.901c-0.142,0-0.254,0.109-0.254,0.252v10.018c0,0.571-0.427,1.137-1.167,1.137c-0.266,0-0.573-0.073-0.915-0.246l-2.379-1.39C3.103,17.262,3.05,17.166,3.05,17.07V6.922c0-0.098,0.053-0.194,0.136-0.242l8.672-5.077H12V0C11.999,0,11.998,0,11.997,0L11.997,0z"/><path fill="#8CC03E" d="M14.674,15.47c-2.299,0-2.802-0.587-2.97-1.744c-0.019-0.124-0.123-0.214-0.249-0.214h-1.123c-0.142,0-0.249,0.113-0.249,0.252c0,1.482,0.795,3.248,4.597,3.248c2.744-0.006,4.325-1.105,4.325-3.02l-0.003,0.001c0-1.9-1.269-2.404-3.935-2.763c-2.698-0.361-2.97-0.547-2.97-1.186c0-0.528,0.231-1.233,2.229-1.233c1.781,0,2.44,0.391,2.712,1.609c0.023,0.115,0.128,0.2,0.245,0.2h1.128l0.184-0.081l0.065-0.195c-0.173-2.1-1.551-3.076-4.333-3.076c-2.476,0-3.953,1.058-3.953,2.834c0,1.924,1.471,2.457,3.845,2.694c2.844,0.282,3.064,0.706,3.064,1.273C17.283,15.051,16.503,15.47,14.674,15.47L14.674,15.47z"/><path fill="#7AA736" d="M11.455,13.512h-1.123c-0.142,0-0.249,0.113-0.249,0.252c0,1.464,0.776,3.206,4.461,3.247v-1.542c-2.188-0.022-2.675-0.609-2.84-1.744C11.685,13.601,11.581,13.512,11.455,13.512L11.455,13.512z M14.327,7.269c-2.476,0-3.953,1.058-3.953,2.834c0,1.924,1.471,2.457,3.845,2.694c0.112,0.011,0.221,0.022,0.325,0.034v-1.673c-2.211-0.317-2.446-0.519-2.446-1.113c0-0.528,0.231-1.233,2.229-1.233c0.075,0,0.147,0.001,0.218,0.002V7.271C14.473,7.269,14.4,7.269,14.327,7.269L14.327,7.269z"/></g></symbol><symbol id="icon-pug"><g transform="matrix(.499516 0 0 .499516 -.093926 -.823678)"><path d="M107.4 50.9c-.2-4.4.4-8.3-1.6-11.6-4.8-8.2-16.8-13-40.8-13v.7h-.5.5v-.7c-24 0-36.6 4.8-41.4 13.1-1.9 3.4-1.7 7.2-2 11.6-.2 3.5-1.8 7.2-1.1 11.2.8 5.2 1.1 10.4 1.9 15.2.6 3.9 6 7.2 6.5 10.9 1.4 10.2 12 14.9 36 14.9v.8h-.5.6v-.8c24 0 34.2-4.7 35.5-14.9.5-3.8 5.5-7 6.1-10.9.8-4.8 1.1-10 1.9-15.2.7-4-.9-7.8-1.1-11.3z" fill="#efcca3"/><g fill="#ccac8d"><path d="M64.6 54.5c4.3.1 7.3 2.8 10.1 5.3 3.3 2.9 8.9 4.9 11.2 7.4s5.3 5 6.4 8.9 1.4 8.9 1.4 10.2.7 1 2.7 0c4.7-2.3 9.9-8.5 9.9-8.5-.6 3.9-5.7 7.4-6.2 11.1C98.9 99.1 89 104 64.5 104h-.1.6"/><path d="M80.4 46.7c.9 3.1 4.1 13.6-2.1 10.1 0 0 2.6 1.5 4.2 7.2 1.7 5.7 5.8 6.4 5.8 6.4s6.7 1.3 11.7-3c4.2-3.6 4.9-10 3.1-14.9-1.8-4.8-5-6.3-9.7-7.3-4.7-1.1-14.1-2-13 1.5z"/></g><circle cx="92.3" cy="58.1" r="8.8"/><circle cx="90" cy="54.2" r="2.3" fill="#fff"/><path d="M78.9 57.7s7.9 5.4 12.2 10.7 4.2 6.3 4.2 6.3l-3.1 1.4s-4.4-8.3-9.8-11.4c-5.5-3.1-6.1-5.7-6.1-5.7z" fill="#efcca3"/><path d="M64.9 54.5c-4.3.1-7.5 2.8-10.4 5.3-3.3 2.9-9.1 4.9-11.4 7.4s-5.4 5-6.5 8.9-1.5 8.9-1.5 10.2.2 1.4-2.7 0c-4.7-2.2-9.9-8.5-9.9-8.5.6 3.9 5.7 7.4 6.2 11.1C30.1 99.1 40 104 64.5 104h.5" fill="#ccac8d"/><path d="M88.1 71.4C83.3 65.5 75.6 60 64.9 60h-.1c-10.7 0-18.4 5.5-23.2 11.4-5 6.1-4.6 8.5-4.6 14.3 0 21 7.4 15 12.3 17.6 5 2.5 10.2 1.7 15.5 1.7h.1c5.4 0 10.5.7 15.5-1.8 4.9-2.5 12.3 3.7 12.3-17.3.1-5.8.4-8.4-4.6-14.5z" fill="#56332b"/><g fill="#442823"><path d="M64.4 65.2s-.7 9.7-2.1 11.6l2.6-.6z"/><path d="M65.1 65.2s.7 9.7 2.1 11.6l-2.6-.6z"/></g><path d="M56.7 62.9c-1-2.3 2.6-6 8.3-6.1 5.7 0 9.3 3.7 8.3 6.1S68.7 66 65 66.1c-3.6-.1-7.3-.8-8.3-3.2z" fill="#56332b"/><path d="M65 65.2c0-.4 3.4-.5 5.2-1.7 0 0-3.7 1.2-4.5.7-.8-.4-1-1.6-1-1.6s-.3 1.2-.9 1.6c-.7.4-4.9-.7-4.9-.7l5.6 1.7c0 .3-.1 1.3-.1 2l.4 9.2c.6.9.4-6.7.4-9.2l-.2-2z"/><path d="M65.2 78.6c1.7 0 4.7 1.2 7.4 3.1-2.6-2.9-5.7-4.9-7.4-4.9-1.8 0-5.6 2.2-8.3 5.4 2.8-2.2 6.4-3.6 8.3-3.6z" fill="#7f4a41" stroke="#4d4d4d" stroke-width="4.159" stroke-miterlimit="10"/><g fill="#442823"><path d="M64.5 96.3c-3.8 0-7.5-1.2-10.9-2.1-.7-.2-1.4.3-2.1.1-6.3-2-11.4-5.4-14.5-9.7v1c0 21 7.4 15.1 12.3 17.6 5 2.5 10.2 1.7 15.5 1.7h.1c5.4 0 10.5.7 15.5-1.8 4.9-2.5 12.3 3.6 12.3-17.4 0-.8 0-1.6.1-2.3-2.9 4.7-8.2 8.4-14.8 10.6-.6.2-2-.3-2.6-.2-3.6 1.2-6.8 2.5-10.9 2.5z"/><path d="M55 85s-2.5 7.5-.8 10.8l-2.3-1s1.7-7.6 3.1-9.8zm19.8 0s2.5 7.5.8 10.8l2.3-1s-1.8-7.6-3.1-9.8z"/></g><path d="M48.6 46.7c-.9 3.1-4.1 13.6 2.1 10.1 0 0-2.6 1.5-4.2 7.2s-5.8 6.4-5.8 6.4-6.7 1.3-11.7-3c-4.2-3.6-4.9-10-3.1-14.9s5-6.3 9.7-7.3c4.7-1.1 14-2 13 1.5z" fill="#ccac8d"/><path d="M64.9 76.8c2.7 0 11.1 5.8 11.2 12.9v-.4c0-7.4-6.8-13.3-11.2-13.3s-11.2 6-11.2 13.3v.4c.1-7.1 8.5-12.9 11.2-12.9z"/><g fill="#331712"><ellipse transform="matrix(.9683 -.2497 .2497 .9683 -13.2339 18.6065)" cx="66.7" cy="61.5" rx=".8" ry="1.5"/><ellipse transform="matrix(.9551 .2963 -.2963 .9551 21.0115 -15.7209)" cx="62.4" cy="61.5" rx=".8" ry="1.5"/></g><circle cx="37.2" cy="58.1" r="8.8"/><circle cx="39.5" cy="54.2" r="2.3" fill="#fff"/><path d="M67.5 58.2c0-.1-2.3 1-2.9 1.1-.6-.1-2.9-1.2-2.9-1.1h5.8z" fill="#7f4a41" stroke="#4d4d4d" stroke-width="4.159" stroke-miterlimit="10"/><path d="M50 57.7s-7.9 5.4-12.2 10.7-4.2 6.3-4.2 6.3l3.1 1.4s4.4-8.3 9.8-11.4 6.1-5.7 6.1-5.7z" fill="#efcca3"/><g fill="#ccac8d"><path d="M32.7 41.7S30 49.1 24 52.2c0 0 9.4-1.1 8.7-10.5zm63.1 0s2.7 7.4 8.7 10.5c0 0-9.4-1.1-8.7-10.5zM78.7 55.5s-5.9-6.2-13.8-6.4c-.1 0 .2 0 .1 0s.1 0 .1 0c-8 .2-13.8 6.4-13.8 6.4 6.9-4.8 12.8-4.7 13.8-4.7-.1 0 6.7-.1 13.6 4.7zm-6.9-13s-3-4.2-7-4.3h.2c-3 .1-6.9 4.3-6.9 4.3 3.4-3.3 6.9-3.2 6.9-3.2s3.3-.1 6.8 3.2zM37.2 73.2s-4.7 2.3-8.1.9H29c-3-1.7-4.5-6.8-4.5-6.8s3 9 12.7 5.9zm54.8 0s4.7 2.3 8.1.9c4-1.7 4.6-6.8 4.6-6.8s-3 9-12.7 5.9zm-49.4-32c2.6-.5 6.9-.6 10.3.5 4.3 1.5.8 7 1.7 7.3s2.1-3.8 10.1-3.4c8.1.4 9 4 10.1 3.4s-1.1-10 11-7.8c0 0-12.7-3.4-12.1 5.8 0 0-7.3-5.6-17.5-.6.1 0 2.7-8.6-13.6-5.2zm44.3 0c.2 0 .3.1.4.1s-.1-.1-.4-.1z"/><path d="M86.9 41.2z"/><path d="M39.1 28.9S28.3 42.5 26.7 47.7c-1.6 5.3-2.8 27-4.2 30.1l-5-21.4 9.2-22.3zm50.8 0s10.8 13.6 12.4 18.8c1.6 5.3 2.8 27 4.2 30.1l5-21.4-9.2-22.3z"/></g><path d="M89.4 28.9s11.6 9.7 15 20.9 2 24.8 4.6 26.5c3.7 2.4 7.9-11.9 9.3-13.4 2.2-2.4 9.5-8.5 10-9.6s-14.8-17.8-21.5-21.1c-8.1-3.8-18.1-4.1-17.4-3.3z" fill="#56332b"/><path d="M99.3 34.9s13.7 17.5 13.5 39.3l5.5-11.2c-.1 0-4.9-14.3-19-28.1z" fill="#442823"/><path d="M39.1 28.9s-11.6 9.7-15 20.9-2 24.8-4.6 26.5c-3.7 2.4-7.9-11.9-9.3-13.4C8 60.5.7 54.4.2 53.3S15 35.5 21.7 32.2c8.1-3.8 18.1-4.1 17.4-3.3z" fill="#56332b"/><path d="M29.2 34.9S15.5 52.4 15.7 74.2L10.3 63s4.8-14.3 18.9-28.1z" fill="#442823"/><path d="M21.8 74.6s1 5.4 2.6 7.1.5-1.3.5-1.3-1.7-.9-1.4-7.8-1.7 2-1.7 2zm85.3 0s-1 5.4-2.6 7.1-.5-1.3-.5-1.3 1.7-.9 1.4-7.8 1.7 2 1.7 2z" fill="#ccac8d"/><g fill="#442823"><circle cx="54.5" cy="70.5" r=".8"/><circle cx="49.9" cy="75.3" r=".8"/><circle cx="48.4" cy="70.5" r=".8"/><circle cx="74" cy="70.5" r=".8"/><circle cx="78.6" cy="75.3" r=".8"/><circle cx="80.1" cy="70.5" r=".8"/></g></g></symbol><symbol id="icon-sass" viewBox="0 0 48 48"><path fill="#f06292" d="M39.867,25.956c-1.538,0.008-2.87,0.377-3.986,0.928c-0.408-0.815-0.822-1.532-0.891-2.065	c-0.081-0.622-0.175-0.994-0.077-1.735c0.098-0.741,0.527-1.791,0.521-1.87c-0.006-0.079-0.096-0.456-0.983-0.463	c-0.887-0.006-1.646,0.171-1.735,0.405c-0.089,0.234-0.26,0.761-0.366,1.311c-0.155,0.804-1.771,3.673-2.688,5.173	c-0.3-0.586-0.555-1.102-0.608-1.51c-0.081-0.622-0.175-0.994-0.077-1.735c0.098-0.741,0.527-1.791,0.521-1.87	c-0.006-0.079-0.096-0.456-0.983-0.463c-0.887-0.006-1.646,0.171-1.735,0.405c-0.089,0.234-0.185,0.781-0.366,1.311	c-0.182,0.529-2.329,5.314-2.892,6.555c-0.287,0.632-0.536,1.14-0.712,1.486c-0.001-0.001-0.001-0.002-0.001-0.002	s-0.011,0.023-0.029,0.062c-0.151,0.295-0.24,0.458-0.24,0.458s0.001,0.002,0.003,0.006c-0.12,0.217-0.248,0.418-0.311,0.418	c-0.044,0-0.133-0.577,0.019-1.369c0.32-1.66,1.087-4.248,1.08-4.338c-0.004-0.046,0.143-0.497-0.501-0.733	c-0.626-0.229-0.849,0.153-0.906,0.154c-0.055,0.001-0.096,0.135-0.096,0.135s0.697-2.911-1.33-2.911	c-1.268,0-3.024,1.387-3.889,2.644c-0.546,0.298-1.715,0.936-2.954,1.617c-0.476,0.262-0.962,0.529-1.423,0.783	c-0.031-0.035-0.063-0.069-0.095-0.104c-2.459-2.623-7.003-4.478-6.811-8.005c0.07-1.282,0.516-4.658,8.733-8.752	c6.731-3.354,12.12-2.431,13.051-0.386c1.33,2.923-2.88,8.354-9.87,9.138c-2.663,0.299-4.066-0.734-4.415-1.118	c-0.367-0.405-0.422-0.423-0.559-0.347c-0.223,0.124-0.082,0.481,0,0.694c0.209,0.543,1.065,1.506,2.525,1.986	c1.285,0.422,4.412,0.653,8.193-0.81c4.236-1.638,7.543-6.196,6.571-10.005c-0.988-3.874-7.412-5.148-13.492-2.988	C12.44,9.332,8.523,11.35,5.706,13.984c-3.349,3.132-3.883,5.859-3.663,6.998c0.782,4.048,6.361,6.684,8.595,8.637	c-0.11,0.061-0.214,0.118-0.308,0.17c-1.12,0.554-5.373,2.78-6.437,5.131c-1.207,2.667,0.192,4.581,1.118,4.839	c2.869,0.798,5.813-0.638,7.396-2.998c1.582-2.359,1.389-5.432,0.663-6.834c-0.009-0.017-0.019-0.034-0.028-0.052	c0.289-0.171,0.584-0.345,0.876-0.517c0.57-0.335,1.13-0.647,1.615-0.911c-0.272,0.744-0.471,1.637-0.574,2.926	c-0.122,1.514,0.499,3.471,1.311,4.241c0.358,0.339,0.788,0.347,1.06,0.347c0.945,0,1.376-0.786,1.851-1.716	c0.582-1.14,1.099-2.468,1.099-2.468s-0.648,3.586,1.118,3.586c0.644,0,1.291-0.835,1.58-1.26c0.001,0.005,0.001,0.007,0.001,0.007	s0.017-0.028,0.05-0.083c0.067-0.102,0.105-0.167,0.105-0.167s0.001-0.007,0.003-0.019c0.259-0.449,0.833-1.473,1.693-3.162	c1.112-2.182,2.178-4.916,2.178-4.916s0.099,0.668,0.424,1.774c0.191,0.65,0.597,1.369,0.918,2.059	c-0.258,0.358-0.416,0.563-0.416,0.563s0.001,0.004,0.004,0.011c-0.206,0.274-0.437,0.569-0.679,0.857	c-0.878,1.045-1.923,2.239-2.063,2.583c-0.165,0.406-0.126,0.704,0.193,0.945c0.233,0.175,0.647,0.203,1.08,0.174	c0.789-0.053,1.343-0.249,1.617-0.368c0.427-0.151,0.924-0.388,1.39-0.731c0.861-0.633,1.38-1.538,1.33-2.738	c-0.028-0.661-0.238-1.316-0.505-1.934c0.078-0.112,0.156-0.226,0.235-0.34c1.357-1.984,2.41-4.164,2.41-4.164	s0.099,0.668,0.424,1.774c0.164,0.559,0.489,1.17,0.781,1.768c-1.276,1.037-2.067,2.242-2.342,3.032	c-0.508,1.462-0.11,2.124,0.636,2.275c0.338,0.068,0.816-0.087,1.175-0.239c0.447-0.148,0.984-0.395,1.486-0.764	c0.861-0.633,1.689-1.519,1.639-2.718c-0.023-0.546-0.171-1.088-0.372-1.608c1.082-0.451,2.482-0.701,4.266-0.493	c3.827,0.447,4.577,2.836,4.434,3.836c-0.144,1-0.946,1.55-1.215,1.716c-0.268,0.166-0.35,0.224-0.328,0.347	c0.033,0.179,0.157,0.173,0.386,0.134c0.315-0.053,2.009-0.813,2.082-2.659C46.089,28.509,43.844,25.935,39.867,25.956z M10.37,35.9	c-1.268,1.383-3.038,1.905-3.798,1.465c-0.82-0.475-0.495-2.511,1.06-3.979c0.948-0.894,2.172-1.718,2.984-2.225	c0.185-0.111,0.456-0.274,0.786-0.472c0.055-0.031,0.086-0.048,0.086-0.048l-0.001-0.002c0.064-0.038,0.129-0.077,0.196-0.118	C12.25,32.61,11.701,34.449,10.37,35.9z M19.605,29.623c-0.441,1.076-1.365,3.83-1.928,3.682c-0.483-0.127-0.777-2.22-0.096-4.28	c0.342-1.037,1.074-2.276,1.504-2.757c0.692-0.774,1.454-1.027,1.639-0.713C20.959,25.955,19.882,28.948,19.605,29.623z M27.234,33.263c-0.187,0.098-0.359,0.159-0.438,0.112c-0.059-0.035,0.077-0.164,0.077-0.164s0.954-1.027,1.33-1.494	c0.219-0.272,0.472-0.595,0.748-0.955c0.002,0.036,0.003,0.072,0.003,0.107C28.952,32.099,27.764,32.929,27.234,33.263z M33.111,31.923c-0.14-0.099-0.116-0.42,0.343-1.421c0.18-0.393,0.592-1.054,1.306-1.686c0.083,0.26,0.133,0.509,0.132,0.741	C34.883,31.105,33.779,31.683,33.111,31.923z"/></symbol><symbol id="icon-skype" viewBox="0 0 1000 1000"><g enable-background="new 0 0 1000 1000">
<metadata> Svg Vector Icons : http://www.onlinewebfonts.com/icon </metadata>
<g><g><g><g><g><path d="M500,10C229.4,10,10,229.4,10,500s219.4,490,490,490s490-219.4,490-490C990,229.3,770.6,10,500,10z M632.9,789.7c-31.2,0-60.3-8.9-85.1-24.3c-15.9,2.9-32.3,4.5-49.1,4.5c-149.1,0-270-120.2-270-268.6c0-14.4,1.2-28.5,3.4-42.3c-16.5-25.2-26-55.4-26-87.7c0-89,72.1-161.1,161.1-161.1c32.5,0,62.6,9.6,88,26.2c14.1-2.3,28.7-3.6,43.5-3.6c149.1,0,270,120.3,270,268.6c0,12.4-0.9,24.5-2.5,36.4c17.7,25.9,28,57.1,28,90.7C794,717.6,721.9,789.7,632.9,789.7z" fill="currentColor"/><path d="M464.7,449.7c-78-19-35.3-85.7,27.9-84.8c61.4,1,92.6,65.8,120.4,62.4c27.9-3.4,51.6-45.1,7.8-82.4c-37.8-32.3-85.7-50.2-159.4-43.5c-57.7,5.2-112.5,42.4-119.3,114.8c-6.7,72.5,79.2,109.3,147.2,119.4c47.7,7,112.6,30.1,73.5,74.7c-35.8,41-103.6,15.6-121.5,4.5c-17.8-11.3-37.9-51.3-71.4-49.2c-33.5,2.3-50,46.2-8.9,84.8c36.8,34.5,76.9,53.5,162.7,49c85.9-4.5,162.8-80.2,132.7-151.7C626.4,476.4,542.8,468.6,464.7,449.7z" fill="currentColor"/></g></g></g></g><g/><g/><g/><g/><g/><g/><g/><g/><g/><g/><g/><g/><g/><g/><g/></g>
</g></symbol><symbol id="icon-star" viewBox="0 0 22 20"><g fill="none">
<path d="M10.1817 0.85958C10.4816 -0.0606967 11.7835 -0.0606959 12.0833 0.859581L13.8344 6.23398C13.9685 6.64561 14.3523 6.92418 14.7852 6.92418H20.446C21.4154 6.92418 21.8177 8.16521 21.0327 8.73398L16.4578 12.0486C16.1064 12.3033 15.9593 12.7555 16.0937 13.1682L17.8423 18.5349C18.1423 19.4557 17.089 20.2227 16.3048 19.6544L11.7192 16.3321C11.3692 16.0784 10.8958 16.0784 10.5458 16.3321L5.96025 19.6544C5.176 20.2227 4.12271 19.4557 4.42273 18.5348L6.1713 13.1682C6.30576 12.7555 6.15868 12.3033 5.80722 12.0486L1.23234 8.73398C0.447338 8.16521 0.849669 6.92418 1.81906 6.92418H7.47982C7.91274 6.92418 8.2965 6.64561 8.43062 6.23398L10.1817 0.85958Z" fill="currentColor"/>
</g></symbol><symbol id="icon-sun" viewBox="0 0 256 256">


<g style="stroke: none; stroke-width: 0; stroke-dasharray: none; stroke-linecap: butt; stroke-linejoin: miter; stroke-miterlimit: 10; fill: none; fill-rule: nonzero; opacity: 1;" transform="translate(1.4065934065934016 1.4065934065934016) scale(2.81 2.81)">
	<path d="M 45 71.188 c -14.44 0 -26.188 -11.748 -26.188 -26.188 c 0 -14.44 11.748 -26.188 26.188 -26.188 c 14.439 0 26.188 11.748 26.188 26.188 c 0 4.725 -1.272 9.355 -3.679 13.392 C 62.804 66.284 54.179 71.188 45 71.188 z M 45 22.813 c -12.234 0 -22.188 9.953 -22.188 22.188 S 32.766 67.188 45 67.188 c 7.777 0 15.086 -4.155 19.073 -10.845 c 2.037 -3.417 3.114 -7.339 3.114 -11.343 C 67.188 32.766 57.234 22.813 45 22.813 z" style="stroke: none; stroke-width: 1; stroke-dasharray: none; stroke-linecap: butt; stroke-linejoin: miter; stroke-miterlimit: 10; fill: currentColor; fill-rule: nonzero; opacity: 1;" transform=" matrix(1 0 0 1 0 0) " stroke-linecap="round"/>
	<path d="M 45 14.864 c -1.104 0 -2 -0.896 -2 -2 V 2 c 0 -1.104 0.896 -2 2 -2 s 2 0.896 2 2 v 10.864 C 47 13.968 46.104 14.864 45 14.864 z" style="stroke: none; stroke-width: 1; stroke-dasharray: none; stroke-linecap: butt; stroke-linejoin: miter; stroke-miterlimit: 10; fill: currentColor; fill-rule: nonzero; opacity: 1;" transform=" matrix(1 0 0 1 0 0) " stroke-linecap="round"/>
	<path d="M 45 90 c -1.104 0 -2 -0.896 -2 -2 V 77.137 c 0 -1.104 0.896 -2 2 -2 s 2 0.896 2 2 V 88 C 47 89.104 46.104 90 45 90 z" style="stroke: none; stroke-width: 1; stroke-dasharray: none; stroke-linecap: butt; stroke-linejoin: miter; stroke-miterlimit: 10; fill: currentColor; fill-rule: nonzero; opacity: 1;" transform=" matrix(1 0 0 1 0 0) " stroke-linecap="round"/>
	<path d="M 12.864 47 H 2 c -1.104 0 -2 -0.896 -2 -2 s 0.896 -2 2 -2 h 10.864 c 1.104 0 2 0.896 2 2 S 13.968 47 12.864 47 z" style="stroke: none; stroke-width: 1; stroke-dasharray: none; stroke-linecap: butt; stroke-linejoin: miter; stroke-miterlimit: 10; fill: currentColor; fill-rule: nonzero; opacity: 1;" transform=" matrix(1 0 0 1 0 0) " stroke-linecap="round"/>
	<path d="M 88 47 H 77.137 c -1.104 0 -2 -0.896 -2 -2 s 0.896 -2 2 -2 H 88 c 1.104 0 2 0.896 2 2 S 89.104 47 88 47 z" style="stroke: none; stroke-width: 1; stroke-dasharray: none; stroke-linecap: butt; stroke-linejoin: miter; stroke-miterlimit: 10; fill: currentColor; fill-rule: nonzero; opacity: 1;" transform=" matrix(1 0 0 1 0 0) " stroke-linecap="round"/>
	<path d="M 67.724 24.276 c -0.512 0 -1.023 -0.195 -1.414 -0.586 c -0.781 -0.781 -0.781 -2.047 0 -2.828 l 7.682 -7.682 c 0.781 -0.781 2.047 -0.781 2.828 0 c 0.781 0.781 0.781 2.047 0 2.828 l -7.682 7.682 C 68.747 24.081 68.235 24.276 67.724 24.276 z" style="stroke: none; stroke-width: 1; stroke-dasharray: none; stroke-linecap: butt; stroke-linejoin: miter; stroke-miterlimit: 10; fill: currentColor; fill-rule: nonzero; opacity: 1;" transform=" matrix(1 0 0 1 0 0) " stroke-linecap="round"/>
	<path d="M 14.594 77.405 c -0.512 0 -1.024 -0.195 -1.414 -0.586 c -0.781 -0.781 -0.781 -2.047 0 -2.828 l 7.682 -7.682 c 0.781 -0.781 2.048 -0.781 2.828 0 c 0.781 0.781 0.781 2.047 0 2.828 l -7.682 7.682 C 15.618 77.21 15.106 77.405 14.594 77.405 z" style="stroke: none; stroke-width: 1; stroke-dasharray: none; stroke-linecap: butt; stroke-linejoin: miter; stroke-miterlimit: 10; fill: currentColor; fill-rule: nonzero; opacity: 1;" transform=" matrix(1 0 0 1 0 0) " stroke-linecap="round"/>
	<path d="M 22.276 24.276 c -0.512 0 -1.024 -0.195 -1.414 -0.586 l -7.682 -7.682 c -0.781 -0.781 -0.781 -2.047 0 -2.828 c 0.78 -0.781 2.048 -0.781 2.828 0 l 7.682 7.682 c 0.781 0.781 0.781 2.047 0 2.828 C 23.3 24.081 22.788 24.276 22.276 24.276 z" style="stroke: none; stroke-width: 1; stroke-dasharray: none; stroke-linecap: butt; stroke-linejoin: miter; stroke-miterlimit: 10; fill: currentColor; fill-rule: nonzero; opacity: 1;" transform=" matrix(1 0 0 1 0 0) " stroke-linecap="round"/>
	<path d="M 75.405 77.405 c -0.512 0 -1.023 -0.195 -1.414 -0.586 l -7.682 -7.682 c -0.781 -0.781 -0.781 -2.047 0 -2.828 s 2.047 -0.781 2.828 0 l 7.682 7.682 c 0.781 0.781 0.781 2.047 0 2.828 C 76.429 77.21 75.917 77.405 75.405 77.405 z" style="stroke: none; stroke-width: 1; stroke-dasharray: none; stroke-linecap: butt; stroke-linejoin: miter; stroke-miterlimit: 10; fill: currentColor; fill-rule: nonzero; opacity: 1;" transform=" matrix(1 0 0 1 0 0) " stroke-linecap="round"/>
	<path d="M 32.703 17.311 c -0.785 0 -1.53 -0.465 -1.849 -1.235 L 26.697 6.039 c -0.423 -1.021 0.062 -2.19 1.082 -2.613 c 1.022 -0.422 2.19 0.062 2.613 1.082 l 4.158 10.037 c 0.423 1.021 -0.062 2.19 -1.082 2.613 C 33.217 17.261 32.958 17.311 32.703 17.311 z" style="stroke: none; stroke-width: 1; stroke-dasharray: none; stroke-linecap: butt; stroke-linejoin: miter; stroke-miterlimit: 10; fill: currentColor; fill-rule: nonzero; opacity: 1;" transform=" matrix(1 0 0 1 0 0) " stroke-linecap="round"/>
	<path d="M 61.456 86.728 c -0.785 0 -1.529 -0.466 -1.849 -1.235 L 55.45 75.456 c -0.423 -1.021 0.062 -2.19 1.082 -2.613 c 1.023 -0.422 2.19 0.063 2.613 1.082 l 4.157 10.036 c 0.423 1.021 -0.062 2.19 -1.082 2.613 C 61.97 86.678 61.711 86.728 61.456 86.728 z" style="stroke: none; stroke-width: 1; stroke-dasharray: none; stroke-linecap: butt; stroke-linejoin: miter; stroke-miterlimit: 10; fill: currentColor; fill-rule: nonzero; opacity: 1;" transform=" matrix(1 0 0 1 0 0) " stroke-linecap="round"/>
	<path d="M 5.274 63.456 c -0.785 0 -1.53 -0.466 -1.849 -1.235 c -0.423 -1.021 0.062 -2.19 1.083 -2.613 l 10.037 -4.157 c 1.021 -0.423 2.19 0.063 2.613 1.082 c 0.423 1.021 -0.062 2.19 -1.083 2.613 L 6.038 63.303 C 5.788 63.406 5.529 63.456 5.274 63.456 z" style="stroke: none; stroke-width: 1; stroke-dasharray: none; stroke-linecap: butt; stroke-linejoin: miter; stroke-miterlimit: 10; fill: currentColor; fill-rule: nonzero; opacity: 1;" transform=" matrix(1 0 0 1 0 0) " stroke-linecap="round"/>
	<path d="M 74.691 34.703 c -0.785 0 -1.529 -0.465 -1.849 -1.235 c -0.423 -1.021 0.062 -2.19 1.082 -2.613 l 10.036 -4.158 c 1.021 -0.422 2.189 0.062 2.613 1.082 c 0.423 1.021 -0.062 2.19 -1.082 2.613 L 75.456 34.55 C 75.206 34.653 74.946 34.703 74.691 34.703 z" style="stroke: none; stroke-width: 1; stroke-dasharray: none; stroke-linecap: butt; stroke-linejoin: miter; stroke-miterlimit: 10; fill: currentColor; fill-rule: nonzero; opacity: 1;" transform=" matrix(1 0 0 1 0 0) " stroke-linecap="round"/>
	<path d="M 57.297 17.311 c -0.255 0 -0.514 -0.049 -0.765 -0.153 c -1.021 -0.422 -1.505 -1.592 -1.082 -2.613 l 4.157 -10.037 c 0.423 -1.021 1.588 -1.506 2.613 -1.083 c 1.021 0.422 1.505 1.592 1.082 2.613 l -4.157 10.037 C 58.826 16.846 58.082 17.311 57.297 17.311 z" style="stroke: none; stroke-width: 1; stroke-dasharray: none; stroke-linecap: butt; stroke-linejoin: miter; stroke-miterlimit: 10; fill: currentColor; fill-rule: nonzero; opacity: 1;" transform=" matrix(1 0 0 1 0 0) " stroke-linecap="round"/>
	<path d="M 28.543 86.728 c -0.255 0 -0.514 -0.05 -0.765 -0.153 c -1.021 -0.423 -1.505 -1.593 -1.082 -2.613 l 4.158 -10.036 c 0.422 -1.02 1.591 -1.504 2.613 -1.082 c 1.021 0.423 1.505 1.593 1.082 2.613 l -4.158 10.036 C 30.073 86.262 29.329 86.728 28.543 86.728 z" style="stroke: none; stroke-width: 1; stroke-dasharray: none; stroke-linecap: butt; stroke-linejoin: miter; stroke-miterlimit: 10; fill: currentColor; fill-rule: nonzero; opacity: 1;" transform=" matrix(1 0 0 1 0 0) " stroke-linecap="round"/>
	<path d="M 15.309 34.703 c -0.255 0 -0.514 -0.049 -0.765 -0.153 L 4.507 30.392 c -1.02 -0.423 -1.505 -1.593 -1.082 -2.613 c 0.422 -1.02 1.59 -1.506 2.613 -1.082 l 10.037 4.158 c 1.02 0.423 1.505 1.593 1.082 2.613 C 16.839 34.238 16.094 34.703 15.309 34.703 z" style="stroke: none; stroke-width: 1; stroke-dasharray: none; stroke-linecap: butt; stroke-linejoin: miter; stroke-miterlimit: 10; fill: currentColor; fill-rule: nonzero; opacity: 1;" transform=" matrix(1 0 0 1 0 0) " stroke-linecap="round"/>
	<path d="M 84.726 63.456 c -0.255 0 -0.514 -0.05 -0.765 -0.153 l -10.036 -4.157 c -1.021 -0.423 -1.505 -1.593 -1.082 -2.613 c 0.423 -1.02 1.589 -1.505 2.613 -1.082 l 10.036 4.157 c 1.021 0.423 1.505 1.593 1.082 2.613 C 86.255 62.99 85.511 63.456 84.726 63.456 z" style="stroke: none; stroke-width: 1; stroke-dasharray: none; stroke-linecap: butt; stroke-linejoin: miter; stroke-miterlimit: 10; fill: currentColor; fill-rule: nonzero; opacity: 1;" transform=" matrix(1 0 0 1 0 0) " stroke-linecap="round"/>
</g>
</symbol><symbol id="icon-telegram" viewBox="0 0 333334 333334"><g shape-rendering="geometricPrecision" text-rendering="geometricPrecision" image-rendering="optimizeQuality" fill-rule="evenodd" clip-rule="evenodd"><path d="M166667 0c92048 0 166667 74619 166667 166667s-74619 166667-166667 166667S0 258715 0 166667 74619 0 166667 0zm80219 91205l-29735 149919s-4158 10396-15594 5404l-68410-53854s76104-68409 79222-71320c3119-2911 2079-3534 2079-3534 207-3535-5614 0-5614 0l-100846 64043-42002-14140s-6446-2288-7069-7277c-624-4992 7277-7694 7277-7694l166970-65498s13722-6030 13722 3951zm-87637 122889l-27141 24745s-2122 1609-4443 601l5197-45965 26387 20619z" fill-rule="evenodd" clip-rule="evenodd" fill="currentColor"/></g></symbol><symbol id="icon-webapi" viewBox="0 0 64 64"><path fill="#f0f4f7" d="M45.82,22.64V41A4.81,4.81,0,0,1,41,45.82H18.18v4.77H56V27.12H53.14a2.43,2.43,0,0,1-2.26-1.51l-.45-1.09a3,3,0,0,0-2.8-1.88Z"/><path fill="#94d8e5" d="M45.82,18.18v4.46h1.81a3,3,0,0,1,2.8,1.88l.45,1.09a2.43,2.43,0,0,0,2.26,1.51H56V23a4.81,4.81,0,0,0-4.82-4.82Z"/><path fill="#e0e9ee" d="M53.42,27.12V51.18A4.81,4.81,0,0,1,48.6,56h2.58A4.81,4.81,0,0,0,56,51.18V27.12Z"/><path fill="#7bd1e0" d="M48.6,18.18A4.81,4.81,0,0,1,53.42,23v4.12H56V23a4.81,4.81,0,0,0-4.82-4.82Z"/><path fill="#748a95" d="M18.18,50.59v.59A4.81,4.81,0,0,0,23,56H51.18A4.81,4.81,0,0,0,56,51.18v-.59Z"/><path fill="#617880" d="M53.42,50.59v.59A4.81,4.81,0,0,1,48.6,56h2.58A4.81,4.81,0,0,0,56,51.18v-.59Z"/><path fill="#dd5891" d="M12.82,8A4.81,4.81,0,0,0,8,12.82v4.12H21.38a2.43,2.43,0,0,0,2.26-1.51l.45-1.09a3,3,0,0,1,2.8-1.88H37.45a3,3,0,0,1,2.8,1.88l.45,1.09A2.44,2.44,0,0,0,43,16.94h2.86V12.82A4.81,4.81,0,0,0,41,8Zm-1,3.69a1.25,1.25,0,1,1-1.25,1.25A1.25,1.25,0,0,1,11.85,11.69Zm4,0a1.25,1.25,0,1,1-1.25,1.25A1.25,1.25,0,0,1,15.84,11.69Zm4,0a1.25,1.25,0,1,1-1.25,1.25A1.25,1.25,0,0,1,19.83,11.69Z"/><path fill="#f0f4f7" d="M26.89,12.46a3,3,0,0,0-2.8,1.87l-.45,1.1a2.43,2.43,0,0,1-2.26,1.51H8V41a4.81,4.81,0,0,0,4.82,4.82H41A4.81,4.81,0,0,0,45.82,41V16.94H43a2.44,2.44,0,0,1-2.26-1.51l-.45-1.09a3,3,0,0,0-2.8-1.88Zm.51,9.13a8.59,8.59,0,0,1,1.52.13L30,23.53a7.44,7.44,0,0,1,2.15,1.24l2.12,0a8.83,8.83,0,0,1,1.51,2.63l-1,1.84a7.53,7.53,0,0,1,.1,1.25,7.3,7.3,0,0,1-.11,1.23l1,1.83a8.8,8.8,0,0,1-1.52,2.66l-2.11,0A7.65,7.65,0,0,1,30,37.5l-1.09,1.83a8.62,8.62,0,0,1-1.53.14,7.76,7.76,0,0,1-1.52-.15L24.79,37.5a7.65,7.65,0,0,1-2.13-1.22l-2.11,0A8.87,8.87,0,0,1,19,33.6l1-1.84a7.3,7.3,0,0,1-.11-1.23,7.21,7.21,0,0,1,.11-1.23l-1-1.84a9.06,9.06,0,0,1,1.51-2.65l2.12,0a7.38,7.38,0,0,1,2.13-1.21l1.09-1.83A8.6,8.6,0,0,1,27.4,21.59Z"/><path fill="#e0e9ee" d="M43.24,16.94V41a4.81,4.81,0,0,1-4.82,4.82H41A4.81,4.81,0,0,0,45.82,41V16.94Z"/><path fill="#d9387c" d="M38.42,8a4.81,4.81,0,0,1,4.82,4.82v4.12h2.58V12.82A4.81,4.81,0,0,0,41,8Z"/><path fill="#f6e782" d="M27.4,21.59a8.6,8.6,0,0,0-1.52.14l-1.09,1.83a7.38,7.38,0,0,0-2.13,1.21l-2.12,0A9.06,9.06,0,0,0,19,27.46l1,1.84a7.21,7.21,0,0,0-.11,1.23,7.3,7.3,0,0,0,.11,1.23L19,33.6a8.87,8.87,0,0,0,1.52,2.65l2.11,0a7.65,7.65,0,0,0,2.13,1.22l1.09,1.82a7.76,7.76,0,0,0,1.52.15,8.62,8.62,0,0,0,1.53-.14L30,37.5a7.65,7.65,0,0,0,2.13-1.22l2.11,0a8.8,8.8,0,0,0,1.52-2.66l-1-1.83a7.3,7.3,0,0,0,.11-1.23,7.53,7.53,0,0,0-.1-1.25l1-1.84a8.83,8.83,0,0,0-1.51-2.63l-2.12,0A7.44,7.44,0,0,0,30,23.53l-1.09-1.81A8.59,8.59,0,0,0,27.4,21.59Zm0,5.41a3.53,3.53,0,1,1-3.52,3.53A3.53,3.53,0,0,1,27.4,27Z"/><circle cx="27.4" cy="30.53" r="3.53" fill="#f0f4f7"/><path fill="#00244c" d="M12.82,46.82h4.36v4.36A5.83,5.83,0,0,0,23,57H51.18A5.83,5.83,0,0,0,57,51.18V23a5.83,5.83,0,0,0-5.82-5.82H46.82V12.82A5.83,5.83,0,0,0,41,7H12.82A5.83,5.83,0,0,0,7,12.82V41A5.83,5.83,0,0,0,12.82,46.82ZM9,41V17.94H44.82V41A3.83,3.83,0,0,1,41,44.82H12.82A3.83,3.83,0,0,1,9,41ZM24.5,15.94c.2-.43.27-.62.52-1.23a2,2,0,0,1,1.87-1.25H37.45a2,2,0,0,1,1.87,1.25c.24.57.32.79.52,1.23Zm22.32,7.7h.81a2,2,0,0,1,1.88,1.26c.23.56.31.78.51,1.22h-3.2ZM41,46.82a5.83,5.83,0,0,0,5.71-4.71h5.56a1,1,0,0,0,0-2H46.82V35.55h5.45a1,1,0,0,0,0-2H46.82V28.12H55V49.59H19.18V46.82ZM51.18,55H23a3.82,3.82,0,0,1-3.78-3.41H55A3.82,3.82,0,0,1,51.18,55Zm0-35.82A3.83,3.83,0,0,1,55,23v3.12H53.14a1.45,1.45,0,0,1-1.34-.89l-.44-1.09a4,4,0,0,0-3.73-2.5h-.81V19.18ZM12.82,9H41a3.83,3.83,0,0,1,3.82,3.82v3.12H43a1.45,1.45,0,0,1-1.34-.89L41.17,14a4,4,0,0,0-3.72-2.5H26.89A4,4,0,0,0,23.17,14l-.45,1.09a1.44,1.44,0,0,1-1.34.89H9V12.82A3.82,3.82,0,0,1,12.82,9Z"/><circle cx="11.85" cy="12.94" r="1.25" fill="#00244c"/><circle cx="15.84" cy="12.94" r="1.25" fill="#00244c"/><circle cx="19.83" cy="12.94" r="1.25" fill="#00244c"/><path fill="#00244c" d="M18.09,33.94a10,10,0,0,0,1.69,3,1,1,0,0,0,.75.36l1.78,0a8.36,8.36,0,0,0,1.79,1L25,39.84a1,1,0,0,0,.67.47,10.78,10.78,0,0,0,1.72.16,9.69,9.69,0,0,0,1.7-.16,1,1,0,0,0,.68-.47l.92-1.54a8.61,8.61,0,0,0,1.79-1l1.78,0a1,1,0,0,0,.75-.36,10.09,10.09,0,0,0,1.69-3,1,1,0,0,0-.07-.83l-.85-1.54a8.93,8.93,0,0,0,.07-1,7.55,7.55,0,0,0-.07-1.06l.87-1.54a1,1,0,0,0,.06-.84,10,10,0,0,0-1.68-2.92,1,1,0,0,0-.76-.36l-1.77,0a8.34,8.34,0,0,0-1.83-1.05l-.91-1.52a1,1,0,0,0-.68-.48,10.7,10.7,0,0,0-1.69-.14h0a9.67,9.67,0,0,0-1.69.16,1,1,0,0,0-.68.47l-.92,1.53a8.85,8.85,0,0,0-1.79,1l-1.78,0a1,1,0,0,0-.76.36,9.94,9.94,0,0,0-1.68,2.95,1,1,0,0,0,.06.83L19,29.49a9,9,0,0,0-.07,1.05,7.13,7.13,0,0,0,.07,1l-.85,1.54A1,1,0,0,0,18.09,33.94ZM21,25.8l1.64,0a1,1,0,0,0,.62-.22,6.58,6.58,0,0,1,1.83-1.06.89.89,0,0,0,.51-.42l.85-1.42a7.11,7.11,0,0,1,.92-.06c.3,0,.6,0,.9.05l.84,1.41a1.05,1.05,0,0,0,.51.42,6.25,6.25,0,0,1,1.87,1.08,1,1,0,0,0,.62.22l1.64,0a7.88,7.88,0,0,1,.9,1.57l-.8,1.43a1,1,0,0,0-.11.65,6.53,6.53,0,0,1,.09,1.07,6.14,6.14,0,0,1-.1,1.06,1,1,0,0,0,.11.67l.8,1.42a8.38,8.38,0,0,1-.91,1.59l-1.64,0a1.1,1.1,0,0,0-.62.23,6.54,6.54,0,0,1-1.83,1.05.94.94,0,0,0-.51.43l-.86,1.42a6.77,6.77,0,0,1-.89.06,7.26,7.26,0,0,1-.93-.06L25.64,37a.94.94,0,0,0-.51-.43,6.54,6.54,0,0,1-1.83-1.05,1.07,1.07,0,0,0-.62-.23l-1.64,0a8.38,8.38,0,0,1-.91-1.59l.79-1.42a1,1,0,0,0,.12-.66,5.67,5.67,0,0,1,0-2.12,1,1,0,0,0-.12-.66l-.79-1.42A7.36,7.36,0,0,1,21,25.8Z"/><path fill="#00244c" d="M27.4 35.06a4.53 4.53 0 10-4.52-4.53A4.54 4.54 0 0027.4 35.06zm0-7.06a2.53 2.53 0 11-2.52 2.53A2.53 2.53 0 0127.4 28zM11.29 48.08a1 1 0 00-1 1v3.74a1 1 0 001 1H15a1 1 0 100-2H12.29V49.08A1 1 0 0011.29 48.08zM52.71 15.92a1 1 0 001-1V11.18a1 1 0 00-1-1H49a1 1 0 000 2h2.74v2.74A1 1 0 0052.71 15.92zM52.27 30.26H49.7a1 1 0 000 2h2.57a1 1 0 000-2zM52.27 36.83H49.7a1 1 0 000 2h2.57a1 1 0 000-2zM49.7 45.39h2.57a1 1 0 000-2H49.7a1 1 0 000 2z"/></symbol><symbol id="icon-webpack" viewBox="0 0 256 296" preserveAspectRatio="xMinYMin meet"><path d="M128.032.456L.298 74.203v147.495l127.734 73.748 127.735-73.748V74.203L128.032.456z" fill="url(#a)"/><path d="M128.034 75.263L64.69 111.834v73.144l63.344 36.572 63.344-36.572v-73.144l-63.344-36.571z" fill="#6F95DB"/><path d="M128 0L0 74.25l128 69.693 128-69.238L128 0zM128 153.509L0 221.38l128 73.793 127.544-74.249L128 153.51z" fill="#FFF" fill-opacity=".1"/></symbol><symbol id="rough-github" viewBox="-2 -2 96 96"><g><path d="M7.79621402544045 20.027275390980353 C7.79621402544045 20.027275390980353, 7.79621402544045 20.027275390980353, 7.79621402544045 20.027275390980353 M7.79621402544045 20.027275390980353 C7.79621402544045 20.027275390980353, 7.79621402544045 20.027275390980353, 7.79621402544045 20.027275390980353 M3.856443935774643 31.675427469291265 C6.537214953462032 27.58969286240571, 12.341901229429213 21.73134697869515, 23.18442743763077 5.221100452058952 M2.9499057732535796 31.113550740273407 C6.857803244852601 27.338374060025487, 13.040240972663918 20.862277301685292, 24.63024589556681 6.3084301247066525 M-0.34389952949954505 40.438224363139135 C5.549185608698272 33.33970216900323, 12.452564315836874 28.103891764383825, 22.702334350022046 16.8990117863543 M1.8014807667131232 39.1817462336401 C6.9808314346891995 33.255318062599045, 13.413899641231737 26.12554421148313, 21.720927574052727 16.584409108431522 M21.00296970127999 15.354505674122493 C24.416871676589004 12.391904922797528, 27.559429326163983 8.799094924715064, 34.76413683450404 1.109360928343617 M23.21229638508989 16.230629522676523 C26.757816336140195 11.202180364522055, 31.8829740547239 6.12526792370573, 33.28765727655372 1.8469732220941388 M0.14030961711522627 45.87359937134949 C6.228202319665613 40.98775106322854, 10.594136002636718 36.582765619363904, 21.390638455178053 24.88316924383979 M0.3784603716927446 46.7556175287766 C8.17056865677251 36.27883149751403, 16.862949147226313 28.7571586743528, 20.442675715970978 24.868068199379202 M28.585973447859267 16.334150476307425 C31.47769495620279 11.129596833699061, 32.57571102108484 11.194109564677007, 41.31795665817496 -0.7773773870478244 M27.34786733266463 15.095739992171218 C29.525818589778606 11.837534333797647, 33.601318589910576 9.582499788682682, 40.01651805353321 1.3580522755609128 M2.5637356880306426 51.98306071201746 C8.062751717707805 46.8489761044176, 11.894805101468789 38.60981587286164, 20.154048078925168 29.323718965124172 M1.702320315766911 52.49774036314372 C6.7932232471039065 44.40622427995501, 12.58172811197772 38.67822722529907, 19.093810461545214 32.163479350282756 M30.963376965904317 18.267850038992087 C33.5341066879321 13.290608193519446, 37.80589678239144 12.107154228214377, 45.1561062028907 0.01878547067943659 M30.88892660569167 18.173436967827012 C33.867349272229454 14.298141096959803, 37.99252927602471 10.10781998261069, 46.694891225168774 -0.05553623219840653 M2.0060088949007153 56.8269376225305 C5.382079768108081 53.384955122133945, 7.402668060549349 51.606811743350704, 17.159414978912803 39.629207881195846 M1.7093087208573825 57.74166196690685 C3.90000937588317 53.97864753696226, 7.654932888313008 50.41818239405552, 16.148968493418312 41.5421468612889 M34.020651598830455 19.631592448782705 C36.37082386068563 17.65985355370843, 42.83318518819247 10.003011740519867, 48.50920466576982 3.1287631694645457 M34.147165013750474 20.112412986528206 C38.0487723696558 14.587248143547558, 42.90907218511669 9.497449029222583, 49.445240990514094 1.002583179492132 M5.575361450529351 63.10475992229303 C5.3919676805824555 56.47320692860106, 10.978346590751093 54.63432473427595, 19.096111100803792 45.910290527197475 M2.972384664123302 60.45348291978248 C6.398322251474804 57.159915072717226, 10.147457316749513 53.69643621169238, 18.065251511134377 45.09826243360012 M40.94985964177394 18.485857138864834 C46.690808839878486 13.319958136070642, 50.05483035499982 7.567717216968672, 56.14000548423061 1.997784770552026 M41.079925602438394 19.452438465794213 C44.81941183136399 13.556231360598517, 50.187159095795614 6.7759210182242295, 55.9380583769563 2.0764164889868475 M4.801912220082325 65.61684985130755 C11.727619440718055 60.4895641319906, 15.017948944905779 53.412021032046454, 18.627664751724968 52.13682944569219 M5.646125001786572 65.72131869426077 C8.639692238237629 60.0787703143784, 14.055605217429349 55.918580754544315, 17.727279561697713 51.00507160756192 M44.989779013587594 18.48594181967684 C49.38214901790754 15.482340409026797, 51.50453393113125 11.51373110391652, 61.59325588159472 1.7634874358354558 M46.5231359853304 18.215203894997586 C50.624702469268996 13.79621100873844, 56.60362471427671 7.922730987103361, 59.055623062584225 2.6227381454640577 M7.024484112527455 70.36486760030144 C8.64630829931958 67.96476689940471, 9.585512941144984 66.08719451230108, 12.205527697581225 63.457512063379866 M7.0773403952761305 69.68838359752971 C8.735577337508026 67.185614596082, 10.853760279257342 65.80911732683461, 12.533478014401656 63.833570700197356 M14.555030966488882 61.03463970748104 C16.816350060779506 59.513518418920285, 17.762648461922126 57.353391756534585, 19.890608591476894 55.74749442918042 M14.390485062099637 61.32921050071513 C16.16094072503507 59.11280494422226, 17.781236624532866 57.368911353330326, 19.848682013062064 55.074508122094734 M53.248417196431795 19.218541787064705 C53.47360571356124 14.821928020542366, 57.95519376356849 11.137137270950252, 63.248124358159515 5.6420592239190075 M51.71098412655953 19.21791738344658 C54.03077395592882 14.368945529382923, 58.61050101482303 11.328882355218992, 63.18117718964271 5.023109033080317 M8.564139508816368 72.19051647975296 C12.202246239982635 70.39810007549491, 14.057931364914309 68.35313064475869, 15.908637932213662 65.98624176387862 M9.098796766827636 73.10651665018229 C11.594276006445355 70.25835339958358, 14.114220727551203 67.97722726341374, 15.302961864997116 66.39265259567722 M17.869890035939626 63.73543657148834 C19.914044256773323 61.69821268862235, 21.10392093317413 60.19948954545317, 21.900849242548297 58.326923037053234 M18.22268019765739 63.29106701098067 C19.676729819082148 61.564219134215186, 21.422609313219823 59.23217135639026, 22.268435773234874 57.664755272060674 M56.79165199158712 19.87876695208368 C59.74775916536712 17.96222000693012, 60.378575155245336 14.771951239985391, 67.44755669815132 5.191026320301648 M56.24077606964202 18.69609686382562 C58.370914923901275 15.199836695090667, 61.668038917239585 11.931700861965288, 66.57331450929964 6.691750182564707 M12.078348426205952 75.7980588923098 C13.535060993595971 74.43081676089854, 15.024941559868216 72.87732029659651, 17.190398445470976 69.79372138565913 M11.56735238659835 76.50907272161201 C13.477370406277464 74.31301971464595, 14.553791598944555 72.65401219119629, 18.008083398641578 69.2335242108454 M21.607820919669436 65.6932500098715 C22.055556589689 64.44941048531939, 24.38289734769918 62.02838140072068, 25.683306240005127 60.32641112955705 M21.090768397512587 65.67666005885415 C22.528511515908374 63.493796065239614, 24.437120811954802 61.51189968810578, 25.481973200765253 60.4461724658273 M65.05362638229678 16.033983331050273 C66.40124971267124 13.669749698190445, 67.85047251854415 12.909552360962724, 70.4754064388974 9.402729854810774 M64.98092571413088 15.189666815711453 C66.43156418649464 13.949928046359403, 67.33393817156953 12.628371522661846, 70.13417693899991 9.011087866410945 M14.8729916210734 79.08366904053696 C16.59932635939873 77.33440314071352, 19.203707227926714 74.45323880763009, 20.686774962470654 72.27294065556833 M15.097772299492448 79.46992822195732 C15.975051573976181 77.45567592838623, 17.38640850079375 76.18427683517777, 20.303190415403893 72.91105370971965 M22.914095772690928 69.21493916900037 C24.802729740344144 66.13141943673301, 27.137263043754526 64.40550776781905, 29.019174196201856 60.87701402170103 M23.50329003179725 69.58686003106948 C25.553911845737474 67.49397109891376, 26.69614447029226 64.97149350373948, 29.714463337118676 61.53456334829988 M70.3577628823383 14.855926957016166 C71.99880704839 13.473462316681148, 73.16391301790493 12.129477750233402, 73.91644756379787 11.275710734096831 M70.47972730355472 14.877024183341689 C71.96085870836518 13.72602710402579, 72.95638815882634 11.932490924630168, 73.67034876689208 11.257661102270474 M17.50962389602657 81.12349549532553 C20.002360187060372 79.45107656548801, 21.296552574514095 78.91091322233659, 23.3682199695743 75.96868270470951 M17.870825556999137 81.80619557902223 C19.321702303755668 79.93843860401645, 20.437599442361126 78.65367796826003, 23.121342041699553 75.6239519324357 M26.759121999559635 72.10826394673624 C28.18628978772911 69.61191266539615, 30.997068032186675 67.23011557964493, 34.14392026321867 63.69115353332902 M27.134800047065877 71.44874869129319 C29.902675384078773 68.3232409059284, 31.682246143067314 65.39309848907743, 34.54793610703788 62.72981421391958 M70.93075982090802 19.905023250649997 C73.46215189386348 18.43136556365202, 75.65095643313063 15.124485346698242, 77.29011197871205 13.559599528740357 M71.90758908489656 19.48255671927211 C73.00315699687516 17.844019553034805, 74.63109287457623 16.81624701322804, 76.74936466782039 13.920746664636123 M21.264234818806788 84.7967018387891 C22.593500109176283 81.72991623374811, 24.49016757180864 80.15109707089464, 27.792923977090386 76.82090655924455 M20.503637053128156 84.74791088702088 C22.312163284458126 81.86460585580548, 23.950361866380376 80.60918249432648, 26.92937330883678 76.5061779937611 M32.91299842022589 70.38440927672112 C34.03886484470049 68.63451113485705, 34.93508949037664 67.68882725865276, 35.997259302086164 66.67716432976263 M33.28296491512385 70.00873348968936 C33.90377785083382 68.92267789703737, 34.78687469409033 68.18572980797553, 35.72913852405984 66.8950107536876 M69.46473274722013 27.509650899001116 C72.77157773169509 22.547688591870042, 75.93575839360197 20.0061072148356, 78.62249691173109 16.76763241150006 M70.54031407316681 26.57636898098992 C73.67700029134912 23.651976351758314, 77.55644287596635 19.453123006308488, 78.85435484894128 17.158055910818657 M24.746597046837362 86.55983187065058 C26.045197102577806 83.19695356249875, 29.894115794142976 82.51640246389039, 33.53061366955242 77.23635496800067 M24.18359520884762 85.7030745130385 C28.126524361168034 81.82524844818421, 30.492806278568032 78.36600179485201, 33.60002428458505 76.30986300184088 M71.85884938685787 30.133989614500923 C74.83668939962078 27.908642134793542, 75.95108562116523 26.168709566958068, 81.96195238743488 21.25162395095928 M73.02777189785644 31.116840562953655 C75.24925269896191 28.343179072917017, 77.51094538891071 24.343957221530964, 81.33427654119097 20.333992603692288 M27.766530648262634 87.21692547507314 C29.091329186311224 86.07954759755569, 31.570284867578113 84.89380001149877, 34.125873481760685 81.36447893607902 M28.06989237454558 88.23109627552066 C29.843114495797117 86.58065464568125, 30.909891574287332 85.32849733870069, 34.19040397245518 81.47528649252075 M73.64255832447067 36.339327171365206 C77.4008950592842 30.082463702577847, 80.53429419831346 27.419406317324185, 83.99444414482929 23.253326567492444 M73.80904283428643 34.82475856323726 C76.44904911821024 31.74733076888722, 79.25951393761521 29.918285261657818, 83.57289435597606 24.65662874814887 M32.43673047160104 89.33711433480045 C32.78424990823385 88.81701017917005, 33.42847463998996 88.32443033053517, 34.34243255872327 86.83232918811042 M32.471108853643855 89.18639354765259 C33.230225731332155 88.4234626892577, 33.82134721557563 87.47758609369623, 34.48657125654911 87.06068344143505 M54.78550910171684 63.52447240681836 C54.78550910171684 63.52447240681836, 54.78550910171684 63.52447240681836, 54.78550910171684 63.52447240681836 M54.78550910171684 63.52447240681836 C54.78550910171684 63.52447240681836, 54.78550910171684 63.52447240681836, 54.78550910171684 63.52447240681836 M75.7336803964261 40.719916555584796 C77.81097924782472 35.25121933037065, 83.13413323302981 31.09391007224188, 85.4033002888245 27.725506475397687 M74.87456248751144 39.61016873411474 C78.64670975566135 35.84675683429851, 82.47815637335898 30.489250052265703, 86.89594244732248 26.73656415579818 M56.53682378617092 67.76520026685314 C58.83157957586428 65.63522985278284, 61.34498506594226 62.816245685428775, 61.35596896204691 62.35060730786199 M56.63267616951964 67.78655557746885 C58.27355087115223 65.82109842224418, 60.036249830703966 63.56826366700086, 61.70466308358923 61.936691497138646 M76.71596885126769 45.27715575893307 C79.42399127069035 41.52944560333799, 83.84907995741233 39.24264721054031, 88.73711087369495 32.593449982030705 M74.92335538429602 46.80416349619384 C77.5769010261986 44.01563320679974, 79.64455352222556 39.48408034584423, 87.42432028279295 32.0428693199322 M56.57771592869869 70.68119452986902 C70.57545682600136 57.57303239287988, 81.40144758244772 43.86572732710756, 89.54835302092056 35.54063285725317 M56.5562098624464 73.47704343117297 C68.4594685138936 59.73624503573177, 80.94357714258659 45.59184479576335, 89.22357535394364 36.49897897426079 M59.0151750755323 77.36865539612184 C68.03338135104181 66.03340589244179, 82.460935660012 50.95919180490284, 89.19015312552146 40.36298526345819 M57.42199986236464 79.50742707956917 C66.92021729800048 67.5745538350228, 77.84512389567519 53.600244557247784, 90.23152227869605 41.71591958430427 M56.97890405971943 85.66775889276693 C65.99280176266163 73.11885079676402, 77.87756853549196 61.22280209718267, 91.28744280385779 46.34687063375394 M57.73995335688762 85.17030618486726 C67.78838540730332 72.55380287552408, 78.61017311665697 60.42656243798174, 90.53711701336582 47.59677642682189 M60.09232959218055 87.34254666946265 C68.89056504207204 77.21420500926178, 75.19103584178565 68.60872508490681, 89.31835766865396 52.899227617029354 M59.450082555461826 89.22509264325268 C70.3745726119769 74.41818238068683, 83.56075006694145 60.704106999587914, 90.18657678998947 54.3153940156757 M68.89213485876523 86.18176344000175 C71.3999473941848 79.30584197823008, 75.21437478597109 74.6835147448221, 86.39834905387698 65.96199810585715 M68.27147062983173 85.24309653355965 C76.07666969810181 77.37400914024217, 82.65229473223779 67.89450861238919, 84.36417181616692 64.33197184311088" stroke="currentColor" stroke-width="1" fill="none"/><path d="M45 0 C19.63085913841186 -1.8221715209674318, 0.061546074179258614 19.724130756255427, 1.1221532964109149 43.955674786789096 M46.85248780818162 -0.5154368323369698 C18.71239685663956 0.4907879945760709, 0.7300635755104423 19.060153585997387, 1.9415225057354144 47.73238730191682 M0 45.714 C0.4602460008631857 65.73392171407536, 13.782324231424262 83.74408428037816, 32.212259552221795 91.30213277460133 M1.5015137348498144 44.03578891426823 C-0.7521016080750289 67.44225863397331, 15.957712458918186 84.39521695383685, 34.54291352599501 91.62544072468962 M33.802 90 C35.268310917662376 86.64458069435901, 32.87493481564749 76.63327623896495, 34.54642990163815 77.43305596267143 M34.742720305844564 88.5228174810218 C33.18020374969978 84.69396638234004, 32.88330307325786 78.31950515343573, 34.29376049664501 78.5024583677043 M33.762 76.218 C21.55935055242289 79.41033990186833, 16.79535263743202 70.36477606161964, 16.89598941588173 70.36993211922541 M32.15279069782469 77.45622639434094 C21.0311224210545 79.6698190167181, 19.948093267314345 68.9514739573485, 16.199898261560485 68.86336716376712 M18.036 70.623 C13.988621615730835 65.52300449585798, 13.26387153161843 64.34817853371274, 12.807251198364597 64.72903805942006 M16.46842038227607 71.93802959588083 C15.87923549000036 66.66732300704987, 10.685851556723454 62.60472331404318, 13.906625693877073 65.58162719492002 M12.853000000000002 63.684000000000005 C7.513886518483854 59.51388000439499, 12.439122911535568 61.72129886281536, 14.344795664046769 59.535603570223614 M12.89529006290859 63.25252959469597 C6.7352133240354375 60.425645422254696, 13.284272855390665 62.801814278256956, 11.19892160159762 61.16600415372818 M13.172000000000002 60.801 C18.15674665629432 61.90722512149174, 18.801356935696763 63.72163390362011, 20.6811986562286 67.4000509328963 M12.991841973743965 61.985817534510076 C19.71301304707859 62.07959221609229, 19.249225924803344 67.28295274347752, 21.818859025822526 66.50506620896203 M20.328000000000003 65.688 C22.909829741712414 71.69787216191395, 32.018198382163554 68.99845697957379, 34.110427405655535 68.04919949769271 M20.049001156611176 64.401778847325 C24.383051212544714 71.49244289294982, 29.506520292251796 71.29191003885101, 35.6884965365555 71.79419375125993 M33.912000000000006 69.63 C33.641974040284275 64.56924589565602, 36.929945810482835 62.58631387864528, 35.04610198921811 62.087084083377185 M33.93760045401054 67.83863261109026 C34.82586304925009 67.6629910009096, 36.491049344829406 65.23543660065862, 37.02402564557549 62.12906004246843 M36.876000000000005 63.288999999999994 C28.37729709834421 63.61263514634285, 14.699463934084665 56.24839993604394, 15.496088251413786 39.923709490523514 M38.62477024723103 62.2144665595822 C25.989191530077736 63.759569219599804, 13.331519500021656 57.04051243819495, 14.510908482710516 41.89821979298673 M15.608000000000004 39.854 C14.566659958730858 36.335956171311494, 19.253593168691726 31.608567347613924, 21.682698911473512 26.474577967561974 M15.941171070972585 38.645667631935126 C13.602826403495527 32.49379830402421, 17.30573464527393 28.4999449388215, 19.261998373068117 25.733185036161153 M20.418000000000003 27.125999999999998 C18.833999601451254 25.86874304911455, 16.79221489897037 19.922178188091763, 21.02593372529539 14.74910555883857 M22.379833361983366 25.979549882102646 C20.79187455768279 23.945431638595988, 16.07405876036013 19.425129312772626, 23.11277633578612 16.827084188463154 M20.870000000000005 14.575999999999997 C20.98790930102094 13.04631276428768, 24.09478811797039 13.62583324150658, 35.5247588088577 19.52829946180763 M20.470916161131232 15.960572015968758 C20.345078157232333 15.268180195667608, 23.77905714885723 14.05620226608968, 34.23971031138539 20.593661523211164 M33.71000000000001 19.436999999999998 C37.79130444653245 18.8427571715309, 41.692792128058514 16.27686707319277, 44.84105301699867 17.129823830020285 M31.88786039425068 18.281442941193305 C35.940838722393686 19.782189827363204, 39.777874715484245 19.013629671955535, 47.17438075834292 20.018881043282157 M45.394000000000005 17.840999999999998 C47.45655484676799 18.100986427287946, 53.82156450596319 19.39030277423652, 57.86412638399054 20.33047064232749 M46.36672088259245 19.50827459073883 C50.24835823387446 17.699411509769252, 51.54486851599263 17.919436309499396, 57.839347137821626 21.51009698446954 M57.08800000000001 19.436999999999998 C67.75743580255944 14.171298469121611, 68.25727637121668 14.151162299463174, 71.38117351672643 15.143568043004548 M56.38158460980673 20.253416875123822 C67.68848031684902 14.334755090481174, 69.00604279915487 14.795228348610008, 68.47405088313918 12.606126470631025 M69.912 14.575999999999997 C73.28646337717826 21.191120272609776, 70.77909074260928 25.116430594109246, 69.38770191826089 27.49701526189122 M70.1585189334756 12.582692355259123 C72.0938349910671 22.650009260558505, 70.12942727709859 26.826705451447673, 71.59618429370555 26.389926817732935 M70.37 27.125999999999998 C75.33886446402683 29.69685526510627, 75.52608942012272 36.10814379454773, 75.92807368563552 38.054407815299925 M69.33778186784615 26.350651418123643 C71.18244208274429 31.956567653858112, 74.58102670890452 34.54768682570819, 76.2807815859918 38.72636438622278 M75.174 39.854 C74.07141175663563 56.35342350012408, 62.810566560996705 63.62036747011524, 53.61331652590535 61.51898430716138 M74.56942101777044 40.385235756268415 C73.42527449691129 59.977792496337266, 65.79689459210002 61.92560249923159, 52.95507154332531 61.11904014478711 M53.85900000000001 63.251999999999995 C57.42767756419547 66.51349184608185, 55.328239290304694 67.21956904559858, 56.31562140256455 72.22733851653669 M53.56867618089091 64.47441603801275 C53.58786872657354 65.7728237710045, 59.09523439687518 66.52963684797353, 57.90221537855183 70.37451599918434 M57.025000000000006 72.033 C58.12395036610003 75.8889991283509, 57.44276454499186 82.63978770806469, 56.206158582309754 91.2547172001215 M56.907930515825 72.13362333477174 C58.33610489976757 76.6239895899911, 56.4901342984353 84.00243226156594, 57.21491719536423 89.51264414236717 M56.99400000000001 89.773 C74.56096218120103 85.69007878904398, 91.61027817518003 66.58715176867997, 89.40487245256395 46.438705986581816 M55.62247930340029 90.64685666636548 C76.97513907610971 84.92127089588814, 91.68389838119471 64.59952222160936, 91.99845938631624 47.88008372176889 M90 45.714 C88.23960791989474 19.434515660702466, 69.70100969857627 1.530193064715267, 46.29536615360501 -1.4051115311285627 M90.59165346451503 44.666984886022924 C89.17346590578305 20.61694551489037, 69.45325424361036 -1.1980652644230687, 46.56461244672475 1.1385693207862446 M45 0 C45 0, 45 0, 45 0 M45 0 C45 0, 45 0, 45 0" stroke="currentColor" stroke-width="2" fill="none"/></g></symbol><symbol id="rough-mail" viewBox="0 -15.98 110 110"><g fill="currentColor">
  <path id="mail" d="M184.416,263.969c.461-.2-.035-.385,0,0-1.445.17-1.908-.641-2.867-.955a33.229,33.229,0,0,1-1.275-6.048c-.04-1.34-1.231-1.527-1.272-2.865-1.3-15.255-2.058-31.044-3.5-46.155.492-2.478.18-5.763.638-8.277,1.291-1.252,1.735-3.358,3.184-4.457,7.7-1.166,16.056-.91,24.189-.953,8.267-.045,16.056-1.753,23.555-1.909,11.923-.519,25.311-.458,37.243,0,.339.722,2,.121,2.868.317.991.066,2.334-.215,2.864.32h3.182c.329.728,2.272-.152,2.547.636,1.506.125,1.45-1.308,3.182-.956,1.686.965,5.2.1,6.047,1.91.976,1,.273,2.4,0,3.819-.112,1.587-.873,2.521-.636,4.457-.327,3.071-.823,5.968-.954,9.231-.623,6.168-.286,13.3-.956,19.417-.053,6.738-.519,13.062-.955,19.416V261.1a17.8,17.8,0,0,1-.318,4.773c-.266,1.43-.841,2.554-2.228,2.867-1.211.151-1.987-.135-2.226-.955-1.154-.013-.075-2.261-1.592-1.912-7.181.568-13.545,1.951-21.328,1.912-6.757.988-14.258,1.232-21.009,2.228H204.15c-2.524-.343-5.208-.524-7.639-.954a64.99,64.99,0,0,1-7.959-.319c-2.279-.585-4.886-.844-4.775-3.82C184.227,264.839,184.142,264.226,184.416,263.969Zm96.127-65.253c0-.177-.255-.362-.317,0C280.223,198.892,280.483,199.076,280.543,198.716Zm-27.055.318a33.259,33.259,0,0,0-4.454,0c-1.215-.033-2.473.177-2.867-.318-.159-.2-.405.316-.318.318-1.057-.015-2.222.085-2.865,0-.227-.03-.295-.315-.319-.318-.26-.054-.325.318-.325.318a18.556,18.556,0,0,0-2.222,0,2.376,2.376,0,0,1-.636,0,5.3,5.3,0,0,0-1.911,0c-.008,0,.012-.3,0-.318s-1.258.649-1.592.318c-.127-.545-.407.067-.955,0a189.855,189.855,0,0,0-26.1,1.59H187.282c-1.117.448-2.04-.892-2.547,0,7.739,3.721,14.979,7.94,22.918,11.46,3.96,1.768,7.4,4.059,11.457,5.73,1.495,1.368,3.467,2.262,5.091,3.5,1.957,1.018,3.523,2.422,5.729,3.183a33.932,33.932,0,0,0,5.733,4.139c2.891-2.731,6.242-5.007,9.229-7.639,1.929-.834,3.042-2.479,5.094-3.184.106-.445.647-.739.954-.955a7.3,7.3,0,0,1,1.593-.955c.629-.033.738-.927,1.273-.954.705-.038.426-.911,1.273-.637a87.991,87.991,0,0,1,9.87-7,42.492,42.492,0,0,1,5.092-3.184,16.721,16.721,0,0,1,2.227-1.91,5.461,5.461,0,0,1,1.272-.953c0-.468,1.345-1.011,0-.956A132.772,132.772,0,0,0,253.488,199.034Zm-71.3,1.59c-.272-.269-.91.232-.956.319C180.9,201.567,182.419,200.86,182.188,200.624Zm6.683,55.069c-.463.2.035.386,0,0,2.213-2.346,3.535-5.588,7.32-6.366-.786,2.925-2.395,5.03-3.818,7.321a20.555,20.555,0,0,1-2.228,3.5,3.626,3.626,0,0,1-2.547,2.865c-.848,0-.691-1.005-1.591-.955.15,1-.858.841-.956,1.591,1.658.042,2.8.594,4.457.638.471-.14-.126-.409,0-.955a1.5,1.5,0,0,0,.318-.955c1.088-.6,1.438-1.916,2.229-2.864.716-.866,1.4-2.176,2.863-2.23.108,1.489-.687,2.071-.955,3.184,1.717-.513,2.081-2.378,4.138-2.547,1.283-.327,1.414.495,1.913.955,1.824-1.676,3.546-3.452,6.683-3.819.488.9-.682,1.471,0,2.864.878,1.775,1.049,4.254,1.591,6.367a64.176,64.176,0,0,1,7.958-.319c.983-.925.842-2.975,2.545-3.183.665.975-.945,1.878-.955,3.183h12.416c-.229-.971.327-1.16.315-1.91,1.195-.189,1.648-1.114,2.549-1.591a7.877,7.877,0,0,1,1.908-2.547c.524-.624,1.247-2.1,2.228-1.273-.7,3.008-2.841,4.582-4.136,7,3.212-.184,6.085-.706,9.23-.956.38-1,1.074-1.683,1.274-2.863.653-.089.633-.851.955-1.274.458.17.779-1.24.955-.317-.321,1.8-1.658,2.588-1.91,4.454,7.807-1.634,17.351-1.534,25.145-3.18,2.474.244,3.971-.489,6.369-.32,1.208-2.821.16-7.9.952-11.14v-4.776c-.129-.765.582-.691.317-1.592V237.55c.823-9.367,1.353-19.022,1.914-28.649.254-.822.715-3.085,0-3.821-5.724,5.633-13.568,9.14-19.735,14.326-1.679,1.187-3.522,2.207-5.094,3.5-1.928.832-3.042,2.476-5.094,3.183-1.316,1.548-3.459,2.273-4.774,3.82-1.84.919-3.073,2.446-5.094,3.184a3.645,3.645,0,0,1-2.547,2.547c-2.127.321-2.889-.72-4.454-.956-1.048-.76-1.831-1.777-3.182-2.229-1.518-1.985-4.292-2.71-6.049-4.457-2.455-1.046-4.157-2.848-6.367-4.138a28.3,28.3,0,0,0-6.687-3.82c-4.239-2.761-9.27-4.733-13.367-7.638-2.488-1.015-4.3-2.707-6.685-3.82-2.138-1.361-4-3.006-6.366-4.139-.567-.6-.859-1.472-1.59-1.908.513,5.109.967,10.279,1.59,15.278.2.864-.4,2.526.317,2.865.2.76-.4,2.309.32,2.545.906-1.534,1.742-3.138,4.456-2.864,1.146,3.936-1.726,6.526-2.23,9.867-.665.393-.2,1.917-.95,2.229.081,1.148-.589,1.534-.639,2.547-.334.728-.2,1.919-.637,2.547.2.861-.4,2.525.318,2.865.705-2.375,2.161-3.993,2.864-6.367,1.2-.713,1.68-2.144,3.5-2.228.759.407,1.725.609,1.91,1.591-.111,2.013-1.378,2.869-1.91,4.456-.4,1.616-1.266,2.768-1.593,4.457-.8,1.317-1.013,3.231-1.911,4.456-.047,1.012-.721,1.4-.634,2.547-.3.268-1.068,1.642-.322,1.909.857-2.645,2.806-4.2,3.823-6.684,1.927-1.47,2.544-4.245,6.046-4.137,1.172,3.61-1.827,5.522-2.864,7.956C191.5,250.9,189.939,253.048,188.871,255.693Zm-2.864,4.456c.8.03,1.553-1.6.955-1.909C186.5,258.735,185.68,258.868,186.007,260.149Zm14.958,4.139h3.5c-.289-1.622.657-4.478-.637-5.094C203.008,261.021,201.791,262.46,200.965,264.288Zm-8.91,0a2.079,2.079,0,0,0,1.589.317,6.223,6.223,0,0,0-.954-2.227A7.066,7.066,0,0,0,192.055,264.288Z" transform="translate(-175.5 -191.983)" fill-rule="evenodd"/>
</g></symbol><symbol id="rough-telegram" viewBox="0 0 32 32"><g><path d="M5.365179612253054 4.663879482933585 C5.365179612253054 4.663879482933585, 5.365179612253054 4.663879482933585, 5.365179612253054 4.663879482933585 M5.365179612253054 4.663879482933585 C5.365179612253054 4.663879482933585, 5.365179612253054 4.663879482933585, 5.365179612253054 4.663879482933585 M1.7791086407884156 11.666757360036037 C3.504044160472016 10.155244216596893, 5.641504871654263 8.044140788293749, 9.853035587274118 1.8801333456157066 M1.7455575254241098 11.85801316407056 C4.323871493570075 8.623500832947128, 7.229901423869794 5.406545928698091, 10.172126375080802 2.074502123861004 M-0.0037057735055918695 16.663150730350843 C5.651751744847009 10.306998208268585, 10.389997946931034 4.880132688650482, 13.220305324797042 1.01608182647955 M0.42551143949163395 16.64290128745532 C4.624373414760748 11.890325292423592, 8.215660010620118 7.438162254229711, 13.44074181147828 1.0906475134453224 M1.6881549713704413 18.27798987181269 C6.488780207134647 12.34834991764097, 12.225827015664912 4.989132926976532, 16.439731530903252 0.5457542172614093 M1.541347278900535 18.61004404277341 C5.604926806186057 13.958323697286474, 9.2936975123122 9.317793350227737, 16.273427890223562 0.8373157386974609 M1.4846007717561167 21.80400606749154 C7.450025141832054 14.440837087288264, 14.077924730507322 7.336262533372734, 18.245939530304927 1.0498597574533801 M1.5777145553790923 21.438222289711945 C8.142088059682653 13.823483789902967, 14.755545882079327 6.511189242777061, 18.33226120809584 1.8151741455828017 M2.5434737318612277 23.460780181428163 C3.8684443281191334 21.463017266965874, 5.399575998005423 20.159365601575793, 7.782655216478236 17.484039105107087 M2.4343075828478837 23.35010517976239 C4.099932739665033 21.428651857542697, 5.687318473702479 19.545561808466694, 7.691732863574125 17.258203787768387 M9.02218549530889 15.754613845075161 C13.505028678468939 11.585985470649506, 17.539958970405692 6.554704773676506, 20.824029655855803 2.5471182865144764 M8.847112708310434 15.815938149092016 C12.606815866545698 11.503858789568689, 16.277129788988738 7.262661839322391, 20.573995448976277 1.9024356994714513 M3.79398188836217 24.444183245776838 C5.485815276198873 22.61346939545041, 6.96542417662836 21.017043660750307, 9.798789162171541 17.998614983565233 M4.025058381396071 24.593681370764415 C5.43727204693855 22.68952729106521, 7.192987756983212 20.826722975793555, 9.942750502293444 17.82911134838855 M13.38063096946064 13.855825906143773 C16.447547351635034 11.007395600183509, 19.098418128358254 7.0817459693565645, 23.049219290439286 3.11400795472799 M13.1179150779012 14.207725050801162 C15.385694285109677 11.368994606512889, 17.674167264914345 8.715756494400663, 23.1385331576616 2.759085852768009 M4.945847917485165 26.745051886755785 C6.743395813730438 24.659880811231684, 8.1776701328841 22.733544874814715, 12.182261067894983 18.15493494777033 M4.835849933546815 26.688759898111062 C7.3477648486012805 23.833931666007132, 9.950222690888452 20.844539827225418, 12.060640179717046 18.35193633645081 M17.186954788574504 12.115918524513647 C18.854724028985306 10.638099744889729, 20.717027584778176 8.573371608241313, 25.239131356126375 3.485884495252615 M17.415273355740737 12.236975518562295 C19.868390705250246 9.346034481763006, 22.586058648423226 6.148924812243157, 25.28791385488201 3.4622087584113768 M6.472090133980534 28.22606428540604 C7.641208060364453 26.501380442568976, 9.193184500098425 24.788395106982218, 13.248925758250508 19.51373367267311 M6.32366047393678 28.11046816766859 C9.007993773565014 25.043248639918335, 11.783807816883533 21.710148940723343, 13.579751334636816 19.535926235489647 M13.495224490777375 19.58466862630836 C14.782460543820783 18.092072698472162, 16.233257199151943 16.50872873967864, 17.319619124982545 15.282701294653812 M13.506877604169324 19.691991332394647 C14.81784507680917 18.202790010646815, 15.943057926222858 16.78009353547072, 17.47288225478091 15.075299054142423 M21.34726019480834 10.764692752523391 C22.41180279899894 9.34932445046391, 23.404352547643004 8.050704091977533, 26.598203723510373 4.403526455321881 M21.412337259232757 10.559035589401459 C22.459978160009506 9.434464232379156, 23.566224384756424 8.05607813493688, 26.709293510252728 4.636347769241119 M7.930355934793198 29.400398313320125 C10.00247400627678 27.01311440886128, 12.019248492875919 24.393139622347444, 12.853125200385211 23.292529489298758 M7.7927910857584255 29.311739588051186 C9.422756515678575 27.395331732210334, 11.003833402718259 25.62251929749557, 13.112228452091296 23.288957841752836 M23.449166638673784 11.244641663080442 C25.211472140547073 9.572800561299893, 26.62871504965813 7.496914740319005, 28.249349250192527 5.808034683407151 M23.586243208835626 11.225593357109567 C24.86619478858482 9.76225328246848, 26.17964655077222 8.276615261930482, 28.170273038069283 5.9795864972041946 M9.72274396425265 29.61713309642553 C11.877633183291065 27.479496190230364, 13.918643421345395 25.388256298702352, 16.91805724615673 21.26136268697215 M9.953009889342333 29.74606246530573 C12.058054190954449 27.498357382410205, 14.310361274216383 25.0044953073061, 17.176427743144128 21.710108951678293 M23.832278249294564 14.219709096595428 C25.708990583161807 11.585910343109152, 27.89089212875233 9.158394356699088, 28.796823877777964 7.883592485267676 M23.735557078600834 13.966054197687077 C25.10556776477931 12.603427945531053, 26.314874491344007 11.108223371165886, 28.8907896910424 7.9962918875231805 M11.177225012230558 31.482325506877764 C13.382583512401128 29.378947038420108, 15.274702737072442 27.010747870075438, 18.620590965833056 23.194312776606285 M11.314354226890034 31.283751479139873 C13.723884606197991 28.474881442782678, 15.955646801224496 25.761273152153727, 18.542378446493416 23.029379093574125 M22.87232858533192 18.017065637543794 C25.43029698935555 15.018211616711822, 28.180468240249716 12.568979231277078, 30.818545408733794 9.515274029010708 M22.602166166332466 18.247704251946473 C24.45580307851752 16.241401608714558, 26.30369487199703 14.102514484899904, 30.59445669905837 9.175066730453462 M13.566855413572586 31.48155782401968 C15.643913509123035 29.13862759504616, 17.809071469769016 26.930672823066157, 20.006081477098334 24.07199653812808 M13.781804952797934 31.85887080883267 C15.714133714539756 29.391218919361016, 17.806044230261598 27.135375099385758, 20.07745426942501 24.061162998696943 M22.529293657386543 21.564968810847468 C24.05732739198849 19.256291066803662, 26.574137233817897 16.696148130877706, 31.408493442517987 11.141060583592523 M22.103731972947 21.988050194107895 C24.876513094482306 18.85548069985061, 27.50205065399204 16.005799164374533, 31.327546639416838 11.539268292683914 M15.882399685073082 31.487045610307625 C21.032490328217673 26.301460024814247, 25.296545579027544 20.822727037417728, 31.440863320869852 13.835702858399271 M16.168591731834102 31.544810406356326 C20.470340734788063 26.788324966998797, 24.76607521878949 22.391721189770102, 31.272213309506654 14.031321247991904 M19.150972210287296 31.40255029973829 C24.06473213731393 26.020601372922936, 29.304799029454596 20.78951068629939, 32.03885522986582 15.960900486387036 M19.00390749483293 31.56903512976029 C22.91753121129647 27.544626938678366, 25.921944508448664 23.28277528529182, 32.475316230168396 16.53709401746652 M22.886779606566634 30.722200213800548 C26.06782605321268 26.897841122394116, 29.023901346269948 23.157700922516582, 31.408828750526187 20.50227893658126 M22.593382651180818 30.364219330210332 C24.60378539257789 28.22621451662829, 26.62728332183211 25.85929927384564, 31.436685027029853 20.59470942676493" stroke="currentColor" stroke-width="0.5" fill="none"/><path d="M16 0.5 C6.956292507668386 0.8140375353832909, 0.6273761502096279 7.379879220899288, 0.07855625221854129 15.764953513152388 M16.203639420376543 0.678037969339541 C7.162995287412003 0.7475838727534737, 1.1399673830262729 7.901434189517922, 0.8399639698184445 15.952060757651838 M0.5 16 C-0.03459579334737295 25.037410950656223, 7.444389307852553 31.124534651385957, 15.57989873279255 31.390050995074514 M0.12560410042119052 15.424538947337899 C-0.056854216037659944 24.688243360640328, 8.085278516574688 31.759162341981295, 16.499863431096223 31.52873952319647 M16 31.5 C24.266658223362697 31.337546888435924, 30.977594612104603 24.136565932526434, 31.503073230669294 15.771472943618113 M16.512209736322244 31.1874871741353 C24.643993486248178 32.18047728470482, 31.00634008672174 24.425187023229903, 32.04380245524858 16.208356432966937 M31.5 16 C31.150118285917934 7.755303986844501, 25.140892481579066 0.6139229036724272, 16.08164463873958 0.3982111984505009 M31.330863020335336 16.12118457899649 C31.2371856258561 7.226003114985498, 25.124150314423083 0.17777885352921513, 15.437344665922332 -0.011045790911889175 M16 0.5 C16 0.5, 16 0.5, 16 0.5 M16 0.5 C16 0.5, 16 0.5, 16 0.5 M23.536700688285457 11.381219353415599 C23.085775400810803 13.766546433470483, 22.280085888253062 16.155503183311477, 21.168306328413767 23.316542377654628 M23.541361684545585 10.936367727870536 C22.586790047296667 15.29653014045202, 21.648904459374748 19.53890483813559, 20.925446602818035 23.21480480194705 M21.069 23.107 C20.512245846606504 23.87476557673999, 20.507893588566702 24.714542707211347, 19.971574609237962 23.456171669425622 M20.89772689830322 23.026820075943856 C20.96051145790537 24.23314059093942, 20.45507692628871 23.49200097403196, 20.13205791709892 23.171850826298986 M19.597597427785296 23.650144574938786 C18.752567200261648 23.030805165762516, 17.842763366256523 22.506781203951874, 15.665130545658785 20.83723245192736 M19.679568883977016 23.801905158894748 C18.066451281821845 22.65102879988873, 16.66151879325238 21.50368757680333, 15.850412944067175 20.975050252315285 M15.844889933299351 20.964539620675023 C15.430299866625475 21.213454060487113, 15.03742859637289 21.660473146460543, 14.00126298148809 22.74864437159041 M15.825772385191778 20.873384096338675 C15.41074479758231 21.3201357918478, 14.985123430236595 21.698764116186684, 13.926588187137694 22.66932377936556 M13.925 22.706999999999997 C13.512182048028272 22.726531705100964, 13.88680304175427 23.235521128214135, 13.618595731598031 23.211203176208308 M14.407067875154558 22.878151970154338 C13.14489174164916 22.729949056426726, 13.688548478454322 22.687895399328326, 12.884990514296245 23.353987547529744 M13.240989525351354 22.979828832225632 C13.221324465514583 21.886256998927074, 13.203654356897642 20.52909321367786, 13.366330687405075 19.143948673697956 M13.201178177475951 23.065353783041537 C13.231109959234317 21.510802548239045, 13.321239161255502 20.02631327148319, 13.412584351655866 19.1209473992055 M13.47928657516724 18.8831904916113 C16.344977366171797 16.64749188969875, 18.86389891182631 14.14167122277421, 20.547252244898885 12.59575863491541 M13.394760476654241 19.009084963363698 C15.555523715669347 17.15604863388509, 17.95318516000626 15.075067050244742, 20.62575326235928 12.607650893917029 M20.6 12.655999999999999 C21.00908459288294 12.023515270576766, 20.672679316218847 12.250927135543607, 20.044059226034506 12.543561958762808 M20.731863845570963 12.086887736729821 C20.23132536388654 12.438128303975358, 21.134123934450248 12.227660418431881, 19.906495270391332 13.132581407880679 M20.270650599545867 12.748665154644694 C17.87957094085606 14.104818132515105, 15.969292131019289 15.367613441517173, 11.339472329883854 17.965044886579324 M20.04647020440951 12.44182020004163 C17.283732742877888 14.337285882194127, 14.509874550395075 16.148703546088754, 11.327939631133571 18.1097364845299 M11.198959737453873 18.096746414052646 C9.978676330094501 17.72084829891612, 8.690771357142165 17.36938695616393, 7.366972176448301 16.836817847118837 M11.18554178909753 18.045048975819164 C10.027838573096263 17.633679534307586, 8.751191358881666 17.32367531473378, 7.404507497348909 16.889948890281776 M7.418000000000002 16.892999999999997 C6.551629012234608 16.14165319884354, 6.505780662298628 16.1001899234405, 7.542477040892346 16.230126538391684 M7.743707809260399 17.23975282275266 C6.9672846855524595 15.99500294630156, 6.329231270769464 16.7486871915101, 7.818926979075261 16.04737375632892 M7.923131127106912 15.406608263753881 C12.462372441342508 13.484796812124042, 16.613029533141383 12.077114612497239, 22.325028299134697 10.152860441715028 M7.375528483453832 15.646005420830846 C13.301549329983205 13.684963897183147, 19.471409980621694 11.017702344161009, 22.487232197287888 9.904107612079647 M22.537000000000003 9.898999999999997 C23.486179476280594 9.634739618875752, 24.379684182202247 10.507604842478926, 23.72983609676204 10.856662424850931 M22.90105202075894 9.622818166083473 C23.82745918478356 9.307021003330721, 23.152696239956065 10.721763622595471, 23.505660506523693 10.871654559362868 M23.612025201926226 11.117963921850704 C23.612324739720705 11.118354429167407, 23.612721568102565 11.118711685551004, 23.61297791071127 11.119017329714188 M23.612016466113403 11.117985193413121 C23.612275261217118 11.118308434730691, 23.612579206774743 11.118595448865571, 23.61300259400401 11.119018858643251" stroke="currentColor" stroke-width="1" fill="none"/></g></symbol></svg>