<svg xmlns="http://www.w3.org/2000/svg" xmlns:xlink="http://www.w3.org/1999/xlink" version="1.1" width="96" height="96" viewBox="-2 -2 96 96" xml:space="preserve" ><g stroke="currentColor"><path d="M7.79621402544045 20.027275390980353 C7.79621402544045 20.027275390980353, 7.79621402544045 20.027275390980353, 7.79621402544045 20.027275390980353 M7.79621402544045 20.027275390980353 C7.79621402544045 20.027275390980353, 7.79621402544045 20.027275390980353, 7.79621402544045 20.027275390980353 M1.2578043806053745 37.31388475576778 C8.882035751116426 30.5058288037334, 12.716380727118917 22.607462721816713, 28.30710244278756 4.881771354500257 M0.6467859889240475 36.2115407369255 C8.800766540817051 29.723402441029652, 14.353543360172315 21.394452656025127, 27.865542209079223 4.7945148565616424 M0.7691213496090059 45.93001909215099 C6.466586505607601 42.08949038380429, 9.093620109063224 36.01738427520336, 18.62640582005931 26.036340691788602 M1.1674114121444983 45.167687104886845 C7.1826473754367 40.43188831002797, 11.775014525015614 31.92409084212209, 20.740890456225575 23.901295422361695 M28.911094269727414 15.019055815930429 C32.098771494798356 11.123491415918846, 36.20143852626177 5.773885905209649, 39.99986518373873 1.0700376065629342 M28.31950110376257 15.316209122915264 C30.87351849402875 10.608264123262598, 34.96511667130048 7.1666697402970705, 39.85463163783119 0.1232886547969485 M0.979265709952517 54.52272464772527 C8.702306181229183 46.866256184002474, 14.487174473424515 41.87200750198327, 14.689710100679203 38.774342381761464 M1.6208199281594633 56.03940716340387 C5.070088081514713 52.105106482978066, 7.730791797710616 46.51692641930958, 16.756494712931072 38.355780707802914 M32.14783624070328 17.82670576039209 C38.8827527674249 15.128330560581803, 43.875867866466635 7.818573339769177, 49.8548544742837 0.6523155431924863 M33.05864248599235 18.703587191976183 C38.89406783501854 11.47036558374368, 44.30709854766852 5.676476001274082, 47.579766940495325 0.6096516452239487 M3.2012341661652446 62.68040021627278 C7.604771968076823 57.173350338122, 11.431640930456563 51.91380876907667, 18.378642692487468 47.401821367615085 M2.8855401847327578 61.6248531165577 C7.617535227903664 57.62594269024583, 9.79239633370154 52.37651750276479, 17.957661533593882 46.457793642071195 M40.69503886387822 17.64865916567705 C44.57883936243524 13.503371822679437, 45.09537973989112 11.333495162130415, 54.39826109264404 0.3823000654924509 M39.585069756386545 18.59242306016901 C43.938908062580204 13.682114940988408, 49.30860430118168 8.920557842733409, 55.04846752203222 1.4499587561798575 M8.05062990793781 67.60513137276192 C10.159756768181015 61.90750410834827, 14.441241903780654 59.18546986049964, 18.32442097509685 52.969273102533066 M6.493306627057341 67.38964905662237 C10.986098312307325 61.43166628706088, 15.588947300650286 56.57229639661703, 19.0077023199544 54.00640608250208 M49.010510586530465 19.753851310258597 C53.26999040359584 15.513244982670667, 55.60413820353357 10.361048620142089, 63.73440547557277 3.4855303049216935 M49.46349006509574 17.960655797110146 C53.43520815571101 13.322615842316125, 58.04612019092358 8.097419831841997, 61.95843226746007 3.2443594362049106 M8.53839652246058 73.52709985404475 C10.825328861324927 71.34093138561344, 13.595908508095336 67.9762023537509, 14.713639352083566 66.62168614055213 M9.157798087566073 72.86901865900003 C10.366234438914205 71.84039154841064, 11.577567672472707 70.21655267996721, 15.058759795505956 65.95524261413927 M17.891402406921554 62.68720185590713 C19.73044667905896 62.55450715082779, 20.660776895609672 61.205759542081516, 21.87322112945575 58.48765754760639 M17.775140396377928 63.34727798095076 C19.869329622002372 61.06038431902635, 21.560855973821273 59.3835707167705, 22.5177315166219 57.86015602426598 M55.12922366142479 19.502694554167892 C57.360688437563084 17.59071414836149, 62.25046622768451 12.031236255298099, 65.72905957017987 5.511618504406181 M55.52321922516944 19.556878311438414 C58.96692795123539 15.926979166814533, 62.50476905620151 12.570162806825838, 66.85979859983739 7.385495650649109 M12.845942095579645 77.27503328889752 C15.14487422892283 75.73205940599196, 16.092553434709824 74.53254311999694, 18.483618207170945 71.58047693111469 M13.570174816831669 77.44068552843527 C15.604794561269097 75.47848445086386, 16.976997922260786 73.47642295521887, 18.883134544953833 71.54048332562245 M22.33766738476217 67.35914775785245 C23.32192099384311 65.18905668925422, 24.407149832756957 63.202822906274584, 27.113625264669604 61.31890849133828 M21.990750342353802 68.20094149227063 C23.853456611937176 65.45875456490133, 25.697122528804986 63.28787036043587, 28.033745818147185 61.59984464326235 M66.95858441105514 16.17763576801295 C68.41505546137586 13.245234785840855, 70.31336627409432 11.986676832166715, 71.71029625041658 10.36728060937914 M67.02227040992723 16.112762263836615 C68.79744474709139 13.45808290838446, 71.07473874164792 11.378467729661738, 72.37288849707808 10.08828165774737 M17.94314779445324 81.8052635501787 C20.4675867815682 80.05025110284355, 21.206390356178648 77.61266797327232, 22.846687837426302 74.92867647548029 M17.68168136803519 81.576744364414 C19.71881995501492 79.7304884265735, 21.85585373196056 77.20275334738464, 22.903785131547114 75.92141991546023 M25.90718932693276 70.62232427401426 C30.59164514553376 67.49944034942378, 32.00395865479926 66.30994397468194, 33.211782747571995 63.51078221353443 M27.348298400801692 70.82445939370618 C29.519475550128437 68.21344956781395, 32.467489824802556 65.68230276636918, 33.81113022820604 62.54200226254516 M71.65170127905466 19.182190673429915 C73.62847093205308 17.378419004657154, 73.69444648519011 16.639822286395194, 76.7216495405831 13.255494088781619 M71.76562472533897 19.902169954265943 C72.70209070520079 18.354117015307267, 74.1608738378807 17.38770865234734, 77.06959977013668 13.899572937837737 M23.037753661813717 84.07077260415747 C25.620723120395475 83.05464619114244, 27.72985863113856 78.55624225170541, 30.58113760604023 76.47231767841636 M22.622419917467624 85.0964539097089 C24.203660701610026 83.30111691868451, 25.861373474139036 81.59260560502501, 30.722088481225875 76.58956479180564 M70.36061533651315 28.19976824211171 C74.1052645542761 24.612429637225652, 76.96784626607095 21.630954113244783, 81.6575216191722 17.323298161789562 M71.4141692590187 28.770559174240628 C74.31484944146216 25.25425626299721, 77.90478945367248 21.37486466860405, 80.70395247418911 18.436508567340358 M27.51407415866903 87.80627176013915 C29.698147750199098 85.62003297702555, 33.29312717056612 82.18973258575132, 34.60257078049493 81.87081067383347 M28.125044491327582 87.91475902855512 C30.048756910935968 85.62388699507608, 32.45355661292064 83.17932471705048, 34.264663016644484 81.23895784011293 M74.40589229457392 34.126960688247316 C76.57054123251321 32.44916327040242, 80.94256317242261 30.201348232870686, 85.2151901677479 22.90462362584725 M73.60308755957826 34.95837410563045 C76.11531005615994 33.05749728248794, 78.18298099677595 29.754449615738025, 83.83964213264746 24.421627474740927 M55.81281205750312 65.51865973067176 C56.30419804013754 64.99635527284002, 56.996727601458204 64.11835379978432, 57.46628401315122 63.52603346254955 M55.52703801492282 65.48814909386347 C56.34951524911323 64.91076796707388, 56.972526637789215 64.02710592504464, 57.63493621731833 63.2816886935245 M77.11627538631072 44.508872684618645 C79.11475777764646 36.65576911363791, 82.41546620047514 33.52266670827207, 87.80941271593832 30.181000088254603 M75.19618080467558 42.952237083636085 C78.08564741240976 39.070824317992205, 80.38884839532489 35.87808951967557, 87.24147525106702 29.126044557537064 M58.226827134372705 72.34111920341485 C69.66097264249403 59.51851775895768, 79.40229657926704 44.65310568082247, 89.35942706946392 36.69116156539058 M57.232909867268894 73.33892492000608 C64.2440504317535 64.71128193887024, 71.93677993239463 57.14992499680417, 89.14144266380649 36.7960578878965 M56.21459130375238 81.60997405867289 C66.34419796616447 71.9093974303499, 73.6973383259401 60.18021712250974, 88.40729277284231 44.73992024102009 M57.87714904396258 82.53842185244976 C69.21408258663989 67.74051080481614, 81.15525333721158 53.59003346896582, 88.84797305148568 45.602106455926226 M60.62329895392287 89.54281828358737 C66.29838256918843 78.84438595261348, 76.15398795064573 66.04945265151936, 91.45452251239891 54.94106284058525 M60.05236991660668 88.46551747954621 C67.4174900262588 80.2591400785234, 74.93799234853158 71.69132830829098, 88.95843788673024 53.20308145988162 M78.02967041438743 75.86114958604182 C78.83862350970975 74.74937081664122, 80.28521447685542 73.91273971639987, 81.48041217380528 72.33055391086968 M78.44201428703992 76.1966271570759 C79.18891528328422 74.86588258950059, 79.93110728669603 73.83251891813937, 81.3767371812016 72.09809111383952" stroke-width="1.5" fill="none"></path><path d="M45 0 C18.857894077779882 0.41496167959428387, -0.5682120875384662 21.829613005766017, -0.934519344726974 46.90735953374607 M44.47987291508443 0.4737950003446092 C21.756917963266556 -0.3601833607069471, -1.0739238331117904 21.46387949315069, 0.3687072082777876 43.92087700433295 M0 45.714 C-0.6467705124306145 65.39074806005517, 14.690380904268942 84.25314849289734, 34.26356477094502 90.23944780097332 M0.3768107395871523 46.288545568122245 C-0.1530683701606228 67.50097915198572, 12.379284006599137 85.0984746835624, 33.50333190780731 88.43812681777095 M33.802 90 C31.921986253335646 83.55790037627672, 35.282835638650084 78.26582984607303, 33.11013497783603 75.89611935017531 M34.241043293384564 91.16976873746917 C33.35723656591809 85.48891995083734, 36.07008440223471 80.49883514629066, 34.50560294725125 77.20841710319883 M33.762 76.218 C18.97338051856616 79.27061193676737, 17.80487428347749 71.62813995856753, 17.353035667812232 70.46983606692226 M34.01495006399087 75.86179726445869 C19.793024582733608 79.22379010114781, 18.20681588907241 68.89424860956113, 16.229624120128072 70.23737043272527 M18.036 70.623 C16.31773195029056 63.68031817986521, 14.431177506150219 64.64022627831346, 14.60903042436938 64.72208607626818 M19.33727351411886 72.09878376340052 C17.80851607079253 65.31045561527661, 14.056035641944058 65.21173771337527, 11.45331238710451 61.64618610035119 M12.853000000000002 63.684000000000005 C6.982765285897365 60.113992140571895, 12.57752248307782 62.13154798294126, 14.076588333977746 60.11760109448013 M11.91234462131115 63.84123976881108 C9.505804278163483 60.11782382105755, 12.845762691384936 60.658640699141145, 13.537822635810926 59.56149765681022 M13.172000000000002 60.801 C16.925610198618518 60.20459555191862, 21.6572668309441 63.88647143282851, 19.563901432707695 64.6724132682549 M13.867330738533557 60.35001607192615 C17.710894411250063 59.14052733335889, 20.377864706456883 66.1766594401552, 20.20719134573111 67.94303569033347 M20.328000000000003 65.688 C22.710941610362475 74.45973086937258, 32.612485514491446 69.58091814554538, 35.496762221030956 70.24375545656291 M21.55637018385578 65.41963615815617 C25.123497834717153 74.86104156442734, 32.68753436105368 69.14678518051483, 34.56943333617481 69.38602918135486 M33.912000000000006 69.63 C32.61907725650811 67.13656121678792, 36.46739901481628 66.26216071326101, 36.696853970373695 61.717064189989614 M34.071432823938295 69.63978134409848 C35.1465311381496 68.70441625572694, 35.04780335857966 65.65012374618213, 34.98214603063622 63.835930078541026 M36.876000000000005 63.288999999999994 C25.799724857699193 62.82949863468609, 17.548260814324884 56.42450724604325, 16.75354344131172 39.422252439167146 M38.69045141032943 61.93788480961203 C25.576287099182064 64.08128315394956, 17.88581356025112 57.103771832603286, 16.423998955783073 38.992942168650075 M15.608000000000004 39.854 C16.93308890645966 35.272026684673655, 18.352176666704754 31.414461776741867, 18.84588855018101 26.067799575323054 M14.356710723879743 40.0684382072063 C15.56693869873592 33.16115040332606, 17.44940427537739 30.33915539747731, 20.671434341803945 27.24754744752042 M20.418000000000003 27.125999999999998 C20.300740982219693 25.127082223474403, 18.08617101478697 22.74713253998043, 20.278972036141383 14.299541677418697 M20.767862268309425 26.168082180403246 C19.975015640290216 28.167381976426945, 17.6242704137374 22.70033121796958, 19.870140068227396 15.917361992887791 M20.870000000000005 14.575999999999997 C21.946623317729113 13.975698487288259, 26.185775019262937 15.187680023358858, 31.994999469685954 21.165176094020758 M21.652779531353545 12.975326349395848 C18.639444517759067 15.708619932649878, 24.6835531224833 12.202902267892554, 35.96288923888582 20.979699865491206 M33.71000000000001 19.436999999999998 C36.821032005421436 18.052728142071942, 40.43526285584326 16.159942197604646, 47.21632262236885 19.45257323868887 M33.065456657038354 20.62444291723749 C36.15848665058135 16.172301734958417, 40.72084389719523 15.869573735256502, 44.648312635536016 19.35132551998507 M45.394000000000005 17.840999999999998 C49.11863382772221 19.72611109039789, 51.766444088514255 18.010463644921263, 56.518988312520534 20.6633682143021 M46.63536267897443 18.15313971594201 C49.13301278755527 19.53079411110942, 52.29383989374991 19.34204465308335, 54.805078292244715 21.147381904252164 M57.08800000000001 19.436999999999998 C65.07260177443605 15.097017142266207, 69.20913277881402 12.790800270549312, 68.10292511198662 13.91611030357449 M56.40064987329018 17.82065536613598 C67.13303743566878 11.85064141651924, 67.9234311981998 14.456703275970455, 70.09655799995737 16.359469819143328 M69.912 14.575999999999997 C71.96301836276663 21.769591800258464, 69.89300871310216 24.562067859088817, 69.22527294535838 29.073609054071177 M71.54761533622779 14.44173086814486 C72.2097250601564 19.956475890765454, 68.67434178732465 24.126856843301827, 70.52920132496878 28.48035856457077 M70.37 27.125999999999998 C74.43699287038608 28.58396745681317, 77.05251380161418 34.8533833453383, 76.92849732947265 38.80499282105372 M71.0397036503928 26.321764820396325 C72.96189817238269 28.560016997383443, 73.95585001465736 36.96222632965486, 76.80593254997468 38.3358528260529 M75.174 39.854 C74.13522166310226 56.39681980417615, 65.37623785269594 61.436625154961, 54.94932601492222 63.804569145314915 M76.95950332163417 40.79062597799747 C77.27257107979537 56.36130745200863, 63.25682811693514 61.282261427779446, 54.493161355439725 61.4805806882116 M53.85900000000001 63.251999999999995 C54.14009114477004 63.49468241378925, 57.07712709514847 66.31248123467071, 58.97355261580779 70.39572578721943 M52.72440906246671 61.86097318132124 C57.07787717705663 65.73987980231067, 58.14489951916815 65.42797291891591, 56.23880331460999 72.2959533294756 M57.025000000000006 72.033 C56.92376523687787 76.56064777692043, 56.84110620948733 82.0237110041869, 57.89016000805447 91.56831800254908 M58.77429834404176 72.06345102952794 C56.47698715054257 77.35530706440143, 56.95347942514529 83.38542349888131, 55.148124692170434 87.54426495450845 M56.99400000000001 89.773 C76.89513651829557 82.74734666504382, 91.99464783613453 65.16775910011802, 88.00166060101444 44.737180194908035 M57.69153418823674 88.41494148665404 C75.42527117640998 82.66718165483148, 87.97965137125252 65.55782615607397, 90.93184017786102 46.4681601636336 M90 45.714 C88.97906454279067 20.998573468034678, 71.78126420768506 -1.916303284369397, 45.14718956393152 0.9205641077880582 M88.56940110838732 46.980762567135734 C87.84695976761435 19.14595766709892, 71.37204380820388 -2.147273519747361, 43.68166021971675 -1.4845230191985777 M45 0 C45 0, 45 0, 45 0 M45 0 C45 0, 45 0, 45 0" stroke-width="3" fill="none"></path></g></svg>