<svg width="40px" height="40px" viewBox="0 0 32 32" xmlns="http://www.w3.org/2000/svg"><g><path d="M5.365179612253054 4.663879482933585 C5.365179612253054 4.663879482933585, 5.365179612253054 4.663879482933585, 5.365179612253054 4.663879482933585 M5.365179612253054 4.663879482933585 C5.365179612253054 4.663879482933585, 5.365179612253054 4.663879482933585, 5.365179612253054 4.663879482933585 M1.7791086407884156 11.666757360036037 C3.504044160472016 10.155244216596893, 5.641504871654263 8.044140788293749, 9.853035587274118 1.8801333456157066 M1.7455575254241098 11.85801316407056 C4.323871493570075 8.623500832947128, 7.229901423869794 5.406545928698091, 10.172126375080802 2.074502123861004 M-0.0037057735055918695 16.663150730350843 C5.651751744847009 10.306998208268585, 10.389997946931034 4.880132688650482, 13.220305324797042 1.01608182647955 M0.42551143949163395 16.64290128745532 C4.624373414760748 11.890325292423592, 8.215660010620118 7.438162254229711, 13.44074181147828 1.0906475134453224 M1.6881549713704413 18.27798987181269 C6.488780207134647 12.34834991764097, 12.225827015664912 4.989132926976532, 16.439731530903252 0.5457542172614093 M1.541347278900535 18.61004404277341 C5.604926806186057 13.958323697286474, 9.2936975123122 9.317793350227737, 16.273427890223562 0.8373157386974609 M1.4846007717561167 21.80400606749154 C7.450025141832054 14.440837087288264, 14.077924730507322 7.336262533372734, 18.245939530304927 1.0498597574533801 M1.5777145553790923 21.438222289711945 C8.142088059682653 13.823483789902967, 14.755545882079327 6.511189242777061, 18.33226120809584 1.8151741455828017 M2.5434737318612277 23.460780181428163 C3.8684443281191334 21.463017266965874, 5.399575998005423 20.159365601575793, 7.782655216478236 17.484039105107087 M2.4343075828478837 23.35010517976239 C4.099932739665033 21.428651857542697, 5.687318473702479 19.545561808466694, 7.691732863574125 17.258203787768387 M9.02218549530889 15.754613845075161 C13.505028678468939 11.585985470649506, 17.539958970405692 6.554704773676506, 20.824029655855803 2.5471182865144764 M8.847112708310434 15.815938149092016 C12.606815866545698 11.503858789568689, 16.277129788988738 7.262661839322391, 20.573995448976277 1.9024356994714513 M3.79398188836217 24.444183245776838 C5.485815276198873 22.61346939545041, 6.96542417662836 21.017043660750307, 9.798789162171541 17.998614983565233 M4.025058381396071 24.593681370764415 C5.43727204693855 22.68952729106521, 7.192987756983212 20.826722975793555, 9.942750502293444 17.82911134838855 M13.38063096946064 13.855825906143773 C16.447547351635034 11.007395600183509, 19.098418128358254 7.0817459693565645, 23.049219290439286 3.11400795472799 M13.1179150779012 14.207725050801162 C15.385694285109677 11.368994606512889, 17.674167264914345 8.715756494400663, 23.1385331576616 2.759085852768009 M4.945847917485165 26.745051886755785 C6.743395813730438 24.659880811231684, 8.1776701328841 22.733544874814715, 12.182261067894983 18.15493494777033 M4.835849933546815 26.688759898111062 C7.3477648486012805 23.833931666007132, 9.950222690888452 20.844539827225418, 12.060640179717046 18.35193633645081 M17.186954788574504 12.115918524513647 C18.854724028985306 10.638099744889729, 20.717027584778176 8.573371608241313, 25.239131356126375 3.485884495252615 M17.415273355740737 12.236975518562295 C19.868390705250246 9.346034481763006, 22.586058648423226 6.148924812243157, 25.28791385488201 3.4622087584113768 M6.472090133980534 28.22606428540604 C7.641208060364453 26.501380442568976, 9.193184500098425 24.788395106982218, 13.248925758250508 19.51373367267311 M6.32366047393678 28.11046816766859 C9.007993773565014 25.043248639918335, 11.783807816883533 21.710148940723343, 13.579751334636816 19.535926235489647 M13.495224490777375 19.58466862630836 C14.782460543820783 18.092072698472162, 16.233257199151943 16.50872873967864, 17.319619124982545 15.282701294653812 M13.506877604169324 19.691991332394647 C14.81784507680917 18.202790010646815, 15.943057926222858 16.78009353547072, 17.47288225478091 15.075299054142423 M21.34726019480834 10.764692752523391 C22.41180279899894 9.34932445046391, 23.404352547643004 8.050704091977533, 26.598203723510373 4.403526455321881 M21.412337259232757 10.559035589401459 C22.459978160009506 9.434464232379156, 23.566224384756424 8.05607813493688, 26.709293510252728 4.636347769241119 M7.930355934793198 29.400398313320125 C10.00247400627678 27.01311440886128, 12.019248492875919 24.393139622347444, 12.853125200385211 23.292529489298758 M7.7927910857584255 29.311739588051186 C9.422756515678575 27.395331732210334, 11.003833402718259 25.62251929749557, 13.112228452091296 23.288957841752836 M23.449166638673784 11.244641663080442 C25.211472140547073 9.572800561299893, 26.62871504965813 7.496914740319005, 28.249349250192527 5.808034683407151 M23.586243208835626 11.225593357109567 C24.86619478858482 9.76225328246848, 26.17964655077222 8.276615261930482, 28.170273038069283 5.9795864972041946 M9.72274396425265 29.61713309642553 C11.877633183291065 27.479496190230364, 13.918643421345395 25.388256298702352, 16.91805724615673 21.26136268697215 M9.953009889342333 29.74606246530573 C12.058054190954449 27.498357382410205, 14.310361274216383 25.0044953073061, 17.176427743144128 21.710108951678293 M23.832278249294564 14.219709096595428 C25.708990583161807 11.585910343109152, 27.89089212875233 9.158394356699088, 28.796823877777964 7.883592485267676 M23.735557078600834 13.966054197687077 C25.10556776477931 12.603427945531053, 26.314874491344007 11.108223371165886, 28.8907896910424 7.9962918875231805 M11.177225012230558 31.482325506877764 C13.382583512401128 29.378947038420108, 15.274702737072442 27.010747870075438, 18.620590965833056 23.194312776606285 M11.314354226890034 31.283751479139873 C13.723884606197991 28.474881442782678, 15.955646801224496 25.761273152153727, 18.542378446493416 23.029379093574125 M22.87232858533192 18.017065637543794 C25.43029698935555 15.018211616711822, 28.180468240249716 12.568979231277078, 30.818545408733794 9.515274029010708 M22.602166166332466 18.247704251946473 C24.45580307851752 16.241401608714558, 26.30369487199703 14.102514484899904, 30.59445669905837 9.175066730453462 M13.566855413572586 31.48155782401968 C15.643913509123035 29.13862759504616, 17.809071469769016 26.930672823066157, 20.006081477098334 24.07199653812808 M13.781804952797934 31.85887080883267 C15.714133714539756 29.391218919361016, 17.806044230261598 27.135375099385758, 20.07745426942501 24.061162998696943 M22.529293657386543 21.564968810847468 C24.05732739198849 19.256291066803662, 26.574137233817897 16.696148130877706, 31.408493442517987 11.141060583592523 M22.103731972947 21.988050194107895 C24.876513094482306 18.85548069985061, 27.50205065399204 16.005799164374533, 31.327546639416838 11.539268292683914 M15.882399685073082 31.487045610307625 C21.032490328217673 26.301460024814247, 25.296545579027544 20.822727037417728, 31.440863320869852 13.835702858399271 M16.168591731834102 31.544810406356326 C20.470340734788063 26.788324966998797, 24.76607521878949 22.391721189770102, 31.272213309506654 14.031321247991904 M19.150972210287296 31.40255029973829 C24.06473213731393 26.020601372922936, 29.304799029454596 20.78951068629939, 32.03885522986582 15.960900486387036 M19.00390749483293 31.56903512976029 C22.91753121129647 27.544626938678366, 25.921944508448664 23.28277528529182, 32.475316230168396 16.53709401746652 M22.886779606566634 30.722200213800548 C26.06782605321268 26.897841122394116, 29.023901346269948 23.157700922516582, 31.408828750526187 20.50227893658126 M22.593382651180818 30.364219330210332 C24.60378539257789 28.22621451662829, 26.62728332183211 25.85929927384564, 31.436685027029853 20.59470942676493" stroke="currentColor" stroke-width="0.5" fill="none"></path><path d="M16 0.5 C6.956292507668386 0.8140375353832909, 0.6273761502096279 7.379879220899288, 0.07855625221854129 15.764953513152388 M16.203639420376543 0.678037969339541 C7.162995287412003 0.7475838727534737, 1.1399673830262729 7.901434189517922, 0.8399639698184445 15.952060757651838 M0.5 16 C-0.03459579334737295 25.037410950656223, 7.444389307852553 31.124534651385957, 15.57989873279255 31.390050995074514 M0.12560410042119052 15.424538947337899 C-0.056854216037659944 24.688243360640328, 8.085278516574688 31.759162341981295, 16.499863431096223 31.52873952319647 M16 31.5 C24.266658223362697 31.337546888435924, 30.977594612104603 24.136565932526434, 31.503073230669294 15.771472943618113 M16.512209736322244 31.1874871741353 C24.643993486248178 32.18047728470482, 31.00634008672174 24.425187023229903, 32.04380245524858 16.208356432966937 M31.5 16 C31.150118285917934 7.755303986844501, 25.140892481579066 0.6139229036724272, 16.08164463873958 0.3982111984505009 M31.330863020335336 16.12118457899649 C31.2371856258561 7.226003114985498, 25.124150314423083 0.17777885352921513, 15.437344665922332 -0.011045790911889175 M16 0.5 C16 0.5, 16 0.5, 16 0.5 M16 0.5 C16 0.5, 16 0.5, 16 0.5 M23.536700688285457 11.381219353415599 C23.085775400810803 13.766546433470483, 22.280085888253062 16.155503183311477, 21.168306328413767 23.316542377654628 M23.541361684545585 10.936367727870536 C22.586790047296667 15.29653014045202, 21.648904459374748 19.53890483813559, 20.925446602818035 23.21480480194705 M21.069 23.107 C20.512245846606504 23.87476557673999, 20.507893588566702 24.714542707211347, 19.971574609237962 23.456171669425622 M20.89772689830322 23.026820075943856 C20.96051145790537 24.23314059093942, 20.45507692628871 23.49200097403196, 20.13205791709892 23.171850826298986 M19.597597427785296 23.650144574938786 C18.752567200261648 23.030805165762516, 17.842763366256523 22.506781203951874, 15.665130545658785 20.83723245192736 M19.679568883977016 23.801905158894748 C18.066451281821845 22.65102879988873, 16.66151879325238 21.50368757680333, 15.850412944067175 20.975050252315285 M15.844889933299351 20.964539620675023 C15.430299866625475 21.213454060487113, 15.03742859637289 21.660473146460543, 14.00126298148809 22.74864437159041 M15.825772385191778 20.873384096338675 C15.41074479758231 21.3201357918478, 14.985123430236595 21.698764116186684, 13.926588187137694 22.66932377936556 M13.925 22.706999999999997 C13.512182048028272 22.726531705100964, 13.88680304175427 23.235521128214135, 13.618595731598031 23.211203176208308 M14.407067875154558 22.878151970154338 C13.14489174164916 22.729949056426726, 13.688548478454322 22.687895399328326, 12.884990514296245 23.353987547529744 M13.240989525351354 22.979828832225632 C13.221324465514583 21.886256998927074, 13.203654356897642 20.52909321367786, 13.366330687405075 19.143948673697956 M13.201178177475951 23.065353783041537 C13.231109959234317 21.510802548239045, 13.321239161255502 20.02631327148319, 13.412584351655866 19.1209473992055 M13.47928657516724 18.8831904916113 C16.344977366171797 16.64749188969875, 18.86389891182631 14.14167122277421, 20.547252244898885 12.59575863491541 M13.394760476654241 19.009084963363698 C15.555523715669347 17.15604863388509, 17.95318516000626 15.075067050244742, 20.62575326235928 12.607650893917029 M20.6 12.655999999999999 C21.00908459288294 12.023515270576766, 20.672679316218847 12.250927135543607, 20.044059226034506 12.543561958762808 M20.731863845570963 12.086887736729821 C20.23132536388654 12.438128303975358, 21.134123934450248 12.227660418431881, 19.906495270391332 13.132581407880679 M20.270650599545867 12.748665154644694 C17.87957094085606 14.104818132515105, 15.969292131019289 15.367613441517173, 11.339472329883854 17.965044886579324 M20.04647020440951 12.44182020004163 C17.283732742877888 14.337285882194127, 14.509874550395075 16.148703546088754, 11.327939631133571 18.1097364845299 M11.198959737453873 18.096746414052646 C9.978676330094501 17.72084829891612, 8.690771357142165 17.36938695616393, 7.366972176448301 16.836817847118837 M11.18554178909753 18.045048975819164 C10.027838573096263 17.633679534307586, 8.751191358881666 17.32367531473378, 7.404507497348909 16.889948890281776 M7.418000000000002 16.892999999999997 C6.551629012234608 16.14165319884354, 6.505780662298628 16.1001899234405, 7.542477040892346 16.230126538391684 M7.743707809260399 17.23975282275266 C6.9672846855524595 15.99500294630156, 6.329231270769464 16.7486871915101, 7.818926979075261 16.04737375632892 M7.923131127106912 15.406608263753881 C12.462372441342508 13.484796812124042, 16.613029533141383 12.077114612497239, 22.325028299134697 10.152860441715028 M7.375528483453832 15.646005420830846 C13.301549329983205 13.684963897183147, 19.471409980621694 11.017702344161009, 22.487232197287888 9.904107612079647 M22.537000000000003 9.898999999999997 C23.486179476280594 9.634739618875752, 24.379684182202247 10.507604842478926, 23.72983609676204 10.856662424850931 M22.90105202075894 9.622818166083473 C23.82745918478356 9.307021003330721, 23.152696239956065 10.721763622595471, 23.505660506523693 10.871654559362868 M23.612025201926226 11.117963921850704 C23.612324739720705 11.118354429167407, 23.612721568102565 11.118711685551004, 23.61297791071127 11.119017329714188 M23.612016466113403 11.117985193413121 C23.612275261217118 11.118308434730691, 23.612579206774743 11.118595448865571, 23.61300259400401 11.119018858643251" stroke="currentColor" stroke-width="1" fill="none"></path></g></svg>
