<svg class="toggle__label-wrap" width="26px" height="26px" viewBox="0 0 26 26" fill="none" xmlns="http://www.w3.org/2000/svg"><g><path d="M10.960359163641552 1.8338248556414154 C13.071566693342923 1.2984796856288963, 16.079996224300736 1.9313617268450836, 18.163497906952912 3.1864957805432415 C20.24699958960509 4.441629834241399, 22.578987324484665 7.063323153824168, 23.46136925955461 9.364629177830363 C24.343751194624552 11.665935201836557, 24.266454863801894 14.842255872504857, 23.457789517372568 16.99433192458041 C22.649124170943242 19.146407976655965, 20.710542177411735 21.07023492414693, 18.609377180978655 22.27708549028368 C16.508212184545574 23.483936056420433, 13.130142348667203 24.540593547140414, 10.850799538774089 24.23543532140092 C8.571456728880975 23.930277095661427, 6.374735345552575 22.25476390830035, 4.933320321619965 20.446136135846725 C3.491905297687354 18.6375083633931, 2.240143343563186 15.766794919836775, 2.202309395178423 13.383668686679162 C2.1644754467936598 11.000542453521549, 3.17174076903796 8.053552731793411, 4.7063166313113864 6.1473787369010475 C6.240892493584813 4.241204742008684, 10.301839990023833 2.581938826929889, 11.409764568818979 1.9466247173249798 C12.517689147614124 1.3113106077200705, 11.36161747643132 2.10952341380233, 11.353864104082255 2.3354940792715926 M11.470402028567282 2.176972972607583 C13.694667327580719 1.5752300981033032, 16.98250839841106 1.7759922713501215, 19.049927267591947 3.0309402021757634 C21.117346136772834 4.285888133001405, 23.088378259516563 7.388776050351185, 23.87491524365261 9.706660557561435 C24.661452227788654 12.024545064771685, 24.6768172083095 14.766067036417653, 23.76914917240822 16.93824724543726 C22.86148113650694 19.110427454456868, 20.557788028547243 21.617534466615417, 18.42890702824493 22.73974181167908 C16.300026027942614 23.861949156742746, 13.267386584275831 24.064229426911545, 10.995863170594335 23.67149131581924 C8.724339756912839 23.278753204726932, 6.352821483138567 22.151847036812978, 4.799766546155952 20.38331314512525 C3.246711609173338 18.614779253437522, 1.6211127658379796 15.507364902426428, 1.6775335486986496 13.060287965692865 C1.7339543315593196 10.613211028959302, 3.593998322165276 7.582436806981661, 5.138291243319973 5.700851524723876 C6.68258416447467 3.8192662424660915, 9.91183663009501 2.3654751944345183, 10.94329107562683 1.7707762721461595 C11.974745521158649 1.1760773498578008, 11.18315045424011 1.831292989917036, 11.32701791651089 2.1326579909937227" stroke="currentColor" stroke-width="1" fill="none"></path></g></svg>