<svg xmlns="http://www.w3.org/2000/svg" viewBox="69 54 500 924" id="smartphone2">
  <g fill="currentColor">
    <path
     d="M210 60.1c-57.9 6.7-93.2 17.4-105 31.8-3.7 4.4-8.1 17.6-11.4 34.3-3.7 18.4-4.7 28.7-5.3 57.1l-.6 25.8-2.9-.6c-5.4-1.2-9.5.2-10.7 3.7-2.2 6.3-.9 69.5 2.5 120.8 1.7 26.4 1.6 26 9.4 26h4.7l.6 39.7c2.2 135.5 3 250.4 1.8 284.8-2.3 71.2-1 173.1 2.4 197.7 2.2 15.3 6.6 29.3 13.9 44.3 6.9 14.1 11.6 20.2 19.8 25.9 14.8 10.1 55.4 23.2 82.8 26.6 19.1 2.3 54.8.9 91-3.7 10-1.2 28.7-1.7 94-2.2l81.5-.6 8-2.8c11.7-4.1 18.1-8.1 26.6-16.6 6-6 8.6-9.7 12.6-17.6 6.5-12.8 13.4-28.9 16.7-38.7 5.6-16.7 5.6-16 6-115.9.2-50.8.9-121.9 1.5-157.9s.8-87.3.5-114c-.4-26.7-.3-72.2.1-101.3l.7-52.7 2.7-.6c9.1-1.8 10-2.3 10.7-6.1.7-3.9-.4-66.4-1.3-70-.4-1.9-1.4-2.3-6.3-2.9l-5.8-.6-.6-15.2c-.3-8.3-.8-25.2-1.1-37.6-.8-31.8-2.4-66.8-3.6-78.5-1.4-13.9-5.4-29.7-9.7-37.9-7.4-14.2-24.7-27.9-44.5-35.4-13.8-5.2-24.8-7.1-46.7-8.2-31.6-1.6-115-3-168.7-2.9-42.1.1-52.3.4-66.3 2M398 69c38.3 1.8 63.5 5 90.8 11.5 17.6 4.2 23 7.2 32.6 17.6 10.7 11.5 12.5 18.2 15.8 58.9 1.6 19.4 1.5 231.5-.2 356-.6 45.9-1.4 145.4-1.6 221-.6 150.5-.3 144.3-6.6 164-3.7 11.6-11 26.6-18 36.7-8.9 12.9-20.5 21.5-33.6 24.8-5.3 1.4-9.1 1.4-27.9.6-26.5-1.3-99-1.3-127.8-.1-11.5.5-46.6 1.2-78 1.6-50.2.6-58.2.4-66.9-1-20.7-3.4-33.9-9.7-45.7-21.6-10.6-10.6-13.9-17.8-17.8-38-3.3-16.6-6.2-36.9-8.3-57-1.7-16.2-1.7-75.4-.1-100.5 2.7-40.8-.1-313.8-4.3-425.5-2.5-65.8-1-126.5 4.1-169 2.9-23.9 5.5-37.3 8.1-42.7 4.8-9.8 16.7-18.4 32.6-23.3 19.5-6 74.4-12 132.3-14.3 18.9-.8 101.6-.6 120.5.3M88 218.2c.1 1.3.7 31.8 1.4 67.8.8 36 1.3 65.6 1.2 65.6 0 .1-1.5-.1-3.3-.3-3.1-.5-3.2-.7-3.7-6.7-.3-3.3-1.2-28.6-2.1-56.1-.8-27.5-1.7-55.1-1.9-61.3l-.4-11.2h4.4c3.9 0 4.4.3 4.4 2.2m470.1 80.5c.2 9.8.2 24 .1 31.5l-.4 13.8H551v-63h6.8z"
     id="path6248" />
    <path
     d="m 405.6,83.1 c -8.4,6.6 -7.1,20.2 2.3,23 5.3,1.6 8.5,0.6 11.6,-3.6 3.7,-4.8 4.3,-10.1 1.6,-15.3 -1.2,-2.3 -3,-4.6 -4,-5.2 -3.2,-1.7 -8.6,-1.2 -11.5,1.1 m 10,2.8 c 1.1,1 2.6,3.3 3.4,5 1.8,4.4 -0.9,11.6 -4.7,12.6 -4.2,1 -8.2,-0.4 -9.8,-3.5 -2.2,-4.3 -1.8,-11 0.7,-11 0.6,0 1.9,-1.1 3,-2.5 2.3,-3 4.7,-3.2 7.4,-0.6 m -181.1,0.4 c -2,1.6 -2.8,3.5 -3.2,6.8 -0.5,4.1 -0.2,4.8 2.3,6.8 5.9,4.6 10.9,3.8 13.8,-2.4 4.3,-9.1 -5.5,-17.6 -12.9,-11.2 m 9,3.2 c 2.8,2.7 2.9,3.3 1.5,6.9 -0.8,2.1 -1.6,2.6 -4.4,2.6 -6.3,0 -8.6,-5.2 -4.4,-9.7 2.7,-2.9 4.3,-2.9 7.3,0.2 m 135.8,-3.3 c -1.3,1.3 -2.7,4.6 -3.2,7.3 -0.8,4.3 -0.7,5 1.5,7.1 1.6,1.7 3.4,2.4 6.2,2.4 5.3,0 8.3,-3.3 8.9,-9.7 0.6,-5.8 -1.4,-8.2 -7.4,-9 -3.1,-0.4 -4.2,-0.1 -6,1.9 m 8.9,2.5 c 2.4,2.1 2.3,7.5 -0.1,9.7 -2.9,2.6 -8.5,1.8 -8.9,-1.3 -0.6,-3.8 0.6,-6.5 3.5,-8.3 3.6,-2.1 3.3,-2.1 5.5,-0.1 M 274.5,90 c -9,0.8 -10.7,2.1 -10.3,7.8 0.3,4.4 0.5,4.7 3.8,5.4 1.9,0.4 17,0.3 33.5,-0.3 20,-0.6 33.2,-0.6 39.5,0.1 12.3,1.3 22.6,1.3 25.1,0 2.5,-1.4 2.5,-5.6 -0.1,-9.8 L 364,90 331.3,89.8 c -18.1,0 -36.8,-0.2 -41.8,-0.2 -4.9,-0.1 -11.7,0.1 -15,0.4 m 59.8,3.6 28.9,0.7 0.9,2.5 c 0.5,1.4 0.8,2.6 0.7,2.7 -0.2,0.2 -22.1,0.4 -48.8,0.6 l -48.5,0.4 -0.3,-2.8 c -0.2,-1.6 0.2,-2.9 1,-3.2 2.3,-0.8 28.1,-2.3 32.8,-1.9 2.5,0.2 17.5,0.7 33.3,1 M 454,95.2 c -2.1,3.5 -2.6,8.8 -1,11.8 2.4,4.5 12,4.7 16.1,0.4 1.8,-1.9 2.1,-3.1 1.6,-6.6 -0.8,-5.8 -4.3,-8.8 -10.3,-8.8 -3.9,0 -4.7,0.4 -6.4,3.2 m 11.4,1.9 c 3.2,2.5 3.3,5.5 0.4,8.6 -4.1,4.4 -10.8,1.8 -10.8,-4.2 0,-2.4 0.7,-3.9 2.2,-4.9 3,-2.1 5,-2 8.2,0.5"
     id="path6250" />
    <path
     d="m 278.5,911 c -1.1,0.5 -3.6,0.9 -5.5,0.9 -7.6,0.2 -10.5,6.1 -9.8,20.1 0.4,10.5 1.5,11.5 12.9,12.5 10.7,1 87.9,-0.5 90.1,-1.6 1,-0.5 2.5,-3.5 3.4,-6.6 1.8,-6.1 1.4,-12.7 -1.1,-18.6 -1.3,-3.1 -2,-3.5 -7.2,-4.5 -3.2,-0.6 -9.6,-1.6 -14.3,-2.2 -10.1,-1.2 -65.6,-1.2 -68.5,0 m 77.9,3.9 c 8.1,0.9 10.1,2.6 11.2,9.6 0.7,4.8 -0.1,12.1 -1.6,14.5 -0.7,1.2 -6.1,1.6 -29.7,2.2 -62.5,1.7 -68.1,1.3 -69.4,-4.7 -1.2,-5.6 -1,-17.6 0.4,-18.9 0.7,-0.7 2.8,-1.6 4.7,-1.9 1.9,-0.4 5.3,-1.1 7.5,-1.7 4.4,-1 65.5,-0.3 76.9,0.9"
     id="path6254" />
    <path
     d="m 424,145.6 c -2.5,0.2 -13,1.2 -23.5,2.1 -21.4,2 -28.5,2 -173.5,0.7 -92.8,-0.9 -100.9,-0.7 -112.6,2.5 l -4,1.1 -1.2,30.2 c -3.3,82.6 -3.3,86.3 -2.3,126.3 0.6,22 1.5,46.3 2,54 0.6,7.7 1.5,36.9 2.1,65 0.6,28 1.5,57.1 2.1,64.5 0.6,9.4 0.6,19.4 -0.3,33 -0.9,15.1 -0.9,25.6 0.1,46.5 3.2,72 3.2,73.6 2,94.7 -1,16.5 -1,32 0.1,74.5 1,42.7 1,55 0,59.8 -1.8,9 -2.5,49 -1,63.1 1.5,15 4.4,31.2 5.9,32.7 0.6,0.6 3.4,1.4 6.3,1.8 7.5,1.1 308.3,1 356.1,-0.1 25.1,-0.5 40.3,-1.3 41.1,-1.9 2,-1.7 3.4,-10 5.3,-31.1 1.8,-21.2 2.2,-66.4 1.4,-196 -0.3,-50.8 0,-73.3 1.3,-100.5 1.4,-30.4 1.5,-45 0.7,-111.5 -0.6,-42.1 -1.3,-88.4 -1.7,-103 -0.3,-14.6 0,-51.5 0.6,-82.1 1,-43.1 1,-60 0.1,-75 -1,-16.4 -3.6,-41.8 -4.4,-42.5 -1.3,-1.3 -20.7,-5.9 -29.7,-7 -10.9,-1.4 -62.9,-2.7 -73,-1.8 m 41,5.4 c 16.6,1.2 57.2,4.9 57.6,5.2 0.1,0.2 0.8,5.5 1.5,11.8 1.1,8.9 1.4,38.6 1.4,132.5 0,66.5 0.4,134.5 0.9,151 0.6,22.4 0.4,44.2 -0.9,86 -2.4,81.7 -2.5,98.4 -1.2,190.5 0.6,45.9 1,90.9 0.9,100 -0.3,21.9 -4.3,62 -6.1,62 -0.3,0 -14.3,0.2 -31.1,0.5 -16.8,0.2 -64.2,0 -105.5,-0.5 -52.7,-0.7 -101.8,-0.6 -165.2,0.2 -49.7,0.6 -90.5,0.9 -90.9,0.6 -0.3,-0.3 -1.7,-7 -3.1,-14.9 -2.4,-13.2 -2.6,-16.5 -2.5,-39.9 0.2,-35 0.8,-130.7 1.2,-181 0.3,-34.8 0.1,-44.3 -1.4,-59 -1.6,-14.7 -1.7,-20.7 -1,-37.5 1.7,-38.2 -0.2,-153.2 -3.2,-187.5 -2.2,-26.8 -3.7,-129.9 -2.4,-173.5 0.6,-19.8 1.3,-37.4 1.6,-39.2 l 0.6,-3.1 8.1,-0.6 c 4.5,-0.3 42.2,-1 83.7,-1.7 61.9,-0.9 78.4,-0.9 91.5,0.2 23.5,2 81.2,1.8 105,-0.4 32.6,-2.9 39.6,-3.1 60.5,-1.7"
     id="path6250-9" />
  </g>
</svg>
