<svg xmlns="http://www.w3.org/2000/svg" xmlns:xlink="http://www.w3.org/1999/xlink" version="1.1" width="96" height="96" viewBox="-2 -2 96 96" xml:space="preserve"><g><path d="M7.79621402544045 20.027275390980353 C7.79621402544045 20.027275390980353, 7.79621402544045 20.027275390980353, 7.79621402544045 20.027275390980353 M7.79621402544045 20.027275390980353 C7.79621402544045 20.027275390980353, 7.79621402544045 20.027275390980353, 7.79621402544045 20.027275390980353 M3.856443935774643 31.675427469291265 C6.537214953462032 27.58969286240571, 12.341901229429213 21.73134697869515, 23.18442743763077 5.221100452058952 M2.9499057732535796 31.113550740273407 C6.857803244852601 27.338374060025487, 13.040240972663918 20.862277301685292, 24.63024589556681 6.3084301247066525 M-0.34389952949954505 40.438224363139135 C5.549185608698272 33.33970216900323, 12.452564315836874 28.103891764383825, 22.702334350022046 16.8990117863543 M1.8014807667131232 39.1817462336401 C6.9808314346891995 33.255318062599045, 13.413899641231737 26.12554421148313, 21.720927574052727 16.584409108431522 M21.00296970127999 15.354505674122493 C24.416871676589004 12.391904922797528, 27.559429326163983 8.799094924715064, 34.76413683450404 1.109360928343617 M23.21229638508989 16.230629522676523 C26.757816336140195 11.202180364522055, 31.8829740547239 6.12526792370573, 33.28765727655372 1.8469732220941388 M0.14030961711522627 45.87359937134949 C6.228202319665613 40.98775106322854, 10.594136002636718 36.582765619363904, 21.390638455178053 24.88316924383979 M0.3784603716927446 46.7556175287766 C8.17056865677251 36.27883149751403, 16.862949147226313 28.7571586743528, 20.442675715970978 24.868068199379202 M28.585973447859267 16.334150476307425 C31.47769495620279 11.129596833699061, 32.57571102108484 11.194109564677007, 41.31795665817496 -0.7773773870478244 M27.34786733266463 15.095739992171218 C29.525818589778606 11.837534333797647, 33.601318589910576 9.582499788682682, 40.01651805353321 1.3580522755609128 M2.5637356880306426 51.98306071201746 C8.062751717707805 46.8489761044176, 11.894805101468789 38.60981587286164, 20.154048078925168 29.323718965124172 M1.702320315766911 52.49774036314372 C6.7932232471039065 44.40622427995501, 12.58172811197772 38.67822722529907, 19.093810461545214 32.163479350282756 M30.963376965904317 18.267850038992087 C33.5341066879321 13.290608193519446, 37.80589678239144 12.107154228214377, 45.1561062028907 0.01878547067943659 M30.88892660569167 18.173436967827012 C33.867349272229454 14.298141096959803, 37.99252927602471 10.10781998261069, 46.694891225168774 -0.05553623219840653 M2.0060088949007153 56.8269376225305 C5.382079768108081 53.384955122133945, 7.402668060549349 51.606811743350704, 17.159414978912803 39.629207881195846 M1.7093087208573825 57.74166196690685 C3.90000937588317 53.97864753696226, 7.654932888313008 50.41818239405552, 16.148968493418312 41.5421468612889 M34.020651598830455 19.631592448782705 C36.37082386068563 17.65985355370843, 42.83318518819247 10.003011740519867, 48.50920466576982 3.1287631694645457 M34.147165013750474 20.112412986528206 C38.0487723696558 14.587248143547558, 42.90907218511669 9.497449029222583, 49.445240990514094 1.002583179492132 M5.575361450529351 63.10475992229303 C5.3919676805824555 56.47320692860106, 10.978346590751093 54.63432473427595, 19.096111100803792 45.910290527197475 M2.972384664123302 60.45348291978248 C6.398322251474804 57.159915072717226, 10.147457316749513 53.69643621169238, 18.065251511134377 45.09826243360012 M40.94985964177394 18.485857138864834 C46.690808839878486 13.319958136070642, 50.05483035499982 7.567717216968672, 56.14000548423061 1.997784770552026 M41.079925602438394 19.452438465794213 C44.81941183136399 13.556231360598517, 50.187159095795614 6.7759210182242295, 55.9380583769563 2.0764164889868475 M4.801912220082325 65.61684985130755 C11.727619440718055 60.4895641319906, 15.017948944905779 53.412021032046454, 18.627664751724968 52.13682944569219 M5.646125001786572 65.72131869426077 C8.639692238237629 60.0787703143784, 14.055605217429349 55.918580754544315, 17.727279561697713 51.00507160756192 M44.989779013587594 18.48594181967684 C49.38214901790754 15.482340409026797, 51.50453393113125 11.51373110391652, 61.59325588159472 1.7634874358354558 M46.5231359853304 18.215203894997586 C50.624702469268996 13.79621100873844, 56.60362471427671 7.922730987103361, 59.055623062584225 2.6227381454640577 M7.024484112527455 70.36486760030144 C8.64630829931958 67.96476689940471, 9.585512941144984 66.08719451230108, 12.205527697581225 63.457512063379866 M7.0773403952761305 69.68838359752971 C8.735577337508026 67.185614596082, 10.853760279257342 65.80911732683461, 12.533478014401656 63.833570700197356 M14.555030966488882 61.03463970748104 C16.816350060779506 59.513518418920285, 17.762648461922126 57.353391756534585, 19.890608591476894 55.74749442918042 M14.390485062099637 61.32921050071513 C16.16094072503507 59.11280494422226, 17.781236624532866 57.368911353330326, 19.848682013062064 55.074508122094734 M53.248417196431795 19.218541787064705 C53.47360571356124 14.821928020542366, 57.95519376356849 11.137137270950252, 63.248124358159515 5.6420592239190075 M51.71098412655953 19.21791738344658 C54.03077395592882 14.368945529382923, 58.61050101482303 11.328882355218992, 63.18117718964271 5.023109033080317 M8.564139508816368 72.19051647975296 C12.202246239982635 70.39810007549491, 14.057931364914309 68.35313064475869, 15.908637932213662 65.98624176387862 M9.098796766827636 73.10651665018229 C11.594276006445355 70.25835339958358, 14.114220727551203 67.97722726341374, 15.302961864997116 66.39265259567722 M17.869890035939626 63.73543657148834 C19.914044256773323 61.69821268862235, 21.10392093317413 60.19948954545317, 21.900849242548297 58.326923037053234 M18.22268019765739 63.29106701098067 C19.676729819082148 61.564219134215186, 21.422609313219823 59.23217135639026, 22.268435773234874 57.664755272060674 M56.79165199158712 19.87876695208368 C59.74775916536712 17.96222000693012, 60.378575155245336 14.771951239985391, 67.44755669815132 5.191026320301648 M56.24077606964202 18.69609686382562 C58.370914923901275 15.199836695090667, 61.668038917239585 11.931700861965288, 66.57331450929964 6.691750182564707 M12.078348426205952 75.7980588923098 C13.535060993595971 74.43081676089854, 15.024941559868216 72.87732029659651, 17.190398445470976 69.79372138565913 M11.56735238659835 76.50907272161201 C13.477370406277464 74.31301971464595, 14.553791598944555 72.65401219119629, 18.008083398641578 69.2335242108454 M21.607820919669436 65.6932500098715 C22.055556589689 64.44941048531939, 24.38289734769918 62.02838140072068, 25.683306240005127 60.32641112955705 M21.090768397512587 65.67666005885415 C22.528511515908374 63.493796065239614, 24.437120811954802 61.51189968810578, 25.481973200765253 60.4461724658273 M65.05362638229678 16.033983331050273 C66.40124971267124 13.669749698190445, 67.85047251854415 12.909552360962724, 70.4754064388974 9.402729854810774 M64.98092571413088 15.189666815711453 C66.43156418649464 13.949928046359403, 67.33393817156953 12.628371522661846, 70.13417693899991 9.011087866410945 M14.8729916210734 79.08366904053696 C16.59932635939873 77.33440314071352, 19.203707227926714 74.45323880763009, 20.686774962470654 72.27294065556833 M15.097772299492448 79.46992822195732 C15.975051573976181 77.45567592838623, 17.38640850079375 76.18427683517777, 20.303190415403893 72.91105370971965 M22.914095772690928 69.21493916900037 C24.802729740344144 66.13141943673301, 27.137263043754526 64.40550776781905, 29.019174196201856 60.87701402170103 M23.50329003179725 69.58686003106948 C25.553911845737474 67.49397109891376, 26.69614447029226 64.97149350373948, 29.714463337118676 61.53456334829988 M70.3577628823383 14.855926957016166 C71.99880704839 13.473462316681148, 73.16391301790493 12.129477750233402, 73.91644756379787 11.275710734096831 M70.47972730355472 14.877024183341689 C71.96085870836518 13.72602710402579, 72.95638815882634 11.932490924630168, 73.67034876689208 11.257661102270474 M17.50962389602657 81.12349549532553 C20.002360187060372 79.45107656548801, 21.296552574514095 78.91091322233659, 23.3682199695743 75.96868270470951 M17.870825556999137 81.80619557902223 C19.321702303755668 79.93843860401645, 20.437599442361126 78.65367796826003, 23.121342041699553 75.6239519324357 M26.759121999559635 72.10826394673624 C28.18628978772911 69.61191266539615, 30.997068032186675 67.23011557964493, 34.14392026321867 63.69115353332902 M27.134800047065877 71.44874869129319 C29.902675384078773 68.3232409059284, 31.682246143067314 65.39309848907743, 34.54793610703788 62.72981421391958 M70.93075982090802 19.905023250649997 C73.46215189386348 18.43136556365202, 75.65095643313063 15.124485346698242, 77.29011197871205 13.559599528740357 M71.90758908489656 19.48255671927211 C73.00315699687516 17.844019553034805, 74.63109287457623 16.81624701322804, 76.74936466782039 13.920746664636123 M21.264234818806788 84.7967018387891 C22.593500109176283 81.72991623374811, 24.49016757180864 80.15109707089464, 27.792923977090386 76.82090655924455 M20.503637053128156 84.74791088702088 C22.312163284458126 81.86460585580548, 23.950361866380376 80.60918249432648, 26.92937330883678 76.5061779937611 M32.91299842022589 70.38440927672112 C34.03886484470049 68.63451113485705, 34.93508949037664 67.68882725865276, 35.997259302086164 66.67716432976263 M33.28296491512385 70.00873348968936 C33.90377785083382 68.92267789703737, 34.78687469409033 68.18572980797553, 35.72913852405984 66.8950107536876 M69.46473274722013 27.509650899001116 C72.77157773169509 22.547688591870042, 75.93575839360197 20.0061072148356, 78.62249691173109 16.76763241150006 M70.54031407316681 26.57636898098992 C73.67700029134912 23.651976351758314, 77.55644287596635 19.453123006308488, 78.85435484894128 17.158055910818657 M24.746597046837362 86.55983187065058 C26.045197102577806 83.19695356249875, 29.894115794142976 82.51640246389039, 33.53061366955242 77.23635496800067 M24.18359520884762 85.7030745130385 C28.126524361168034 81.82524844818421, 30.492806278568032 78.36600179485201, 33.60002428458505 76.30986300184088 M71.85884938685787 30.133989614500923 C74.83668939962078 27.908642134793542, 75.95108562116523 26.168709566958068, 81.96195238743488 21.25162395095928 M73.02777189785644 31.116840562953655 C75.24925269896191 28.343179072917017, 77.51094538891071 24.343957221530964, 81.33427654119097 20.333992603692288 M27.766530648262634 87.21692547507314 C29.091329186311224 86.07954759755569, 31.570284867578113 84.89380001149877, 34.125873481760685 81.36447893607902 M28.06989237454558 88.23109627552066 C29.843114495797117 86.58065464568125, 30.909891574287332 85.32849733870069, 34.19040397245518 81.47528649252075 M73.64255832447067 36.339327171365206 C77.4008950592842 30.082463702577847, 80.53429419831346 27.419406317324185, 83.99444414482929 23.253326567492444 M73.80904283428643 34.82475856323726 C76.44904911821024 31.74733076888722, 79.25951393761521 29.918285261657818, 83.57289435597606 24.65662874814887 M32.43673047160104 89.33711433480045 C32.78424990823385 88.81701017917005, 33.42847463998996 88.32443033053517, 34.34243255872327 86.83232918811042 M32.471108853643855 89.18639354765259 C33.230225731332155 88.4234626892577, 33.82134721557563 87.47758609369623, 34.48657125654911 87.06068344143505 M54.78550910171684 63.52447240681836 C54.78550910171684 63.52447240681836, 54.78550910171684 63.52447240681836, 54.78550910171684 63.52447240681836 M54.78550910171684 63.52447240681836 C54.78550910171684 63.52447240681836, 54.78550910171684 63.52447240681836, 54.78550910171684 63.52447240681836 M75.7336803964261 40.719916555584796 C77.81097924782472 35.25121933037065, 83.13413323302981 31.09391007224188, 85.4033002888245 27.725506475397687 M74.87456248751144 39.61016873411474 C78.64670975566135 35.84675683429851, 82.47815637335898 30.489250052265703, 86.89594244732248 26.73656415579818 M56.53682378617092 67.76520026685314 C58.83157957586428 65.63522985278284, 61.34498506594226 62.816245685428775, 61.35596896204691 62.35060730786199 M56.63267616951964 67.78655557746885 C58.27355087115223 65.82109842224418, 60.036249830703966 63.56826366700086, 61.70466308358923 61.936691497138646 M76.71596885126769 45.27715575893307 C79.42399127069035 41.52944560333799, 83.84907995741233 39.24264721054031, 88.73711087369495 32.593449982030705 M74.92335538429602 46.80416349619384 C77.5769010261986 44.01563320679974, 79.64455352222556 39.48408034584423, 87.42432028279295 32.0428693199322 M56.57771592869869 70.68119452986902 C70.57545682600136 57.57303239287988, 81.40144758244772 43.86572732710756, 89.54835302092056 35.54063285725317 M56.5562098624464 73.47704343117297 C68.4594685138936 59.73624503573177, 80.94357714258659 45.59184479576335, 89.22357535394364 36.49897897426079 M59.0151750755323 77.36865539612184 C68.03338135104181 66.03340589244179, 82.460935660012 50.95919180490284, 89.19015312552146 40.36298526345819 M57.42199986236464 79.50742707956917 C66.92021729800048 67.5745538350228, 77.84512389567519 53.600244557247784, 90.23152227869605 41.71591958430427 M56.97890405971943 85.66775889276693 C65.99280176266163 73.11885079676402, 77.87756853549196 61.22280209718267, 91.28744280385779 46.34687063375394 M57.73995335688762 85.17030618486726 C67.78838540730332 72.55380287552408, 78.61017311665697 60.42656243798174, 90.53711701336582 47.59677642682189 M60.09232959218055 87.34254666946265 C68.89056504207204 77.21420500926178, 75.19103584178565 68.60872508490681, 89.31835766865396 52.899227617029354 M59.450082555461826 89.22509264325268 C70.3745726119769 74.41818238068683, 83.56075006694145 60.704106999587914, 90.18657678998947 54.3153940156757 M68.89213485876523 86.18176344000175 C71.3999473941848 79.30584197823008, 75.21437478597109 74.6835147448221, 86.39834905387698 65.96199810585715 M68.27147062983173 85.24309653355965 C76.07666969810181 77.37400914024217, 82.65229473223779 67.89450861238919, 84.36417181616692 64.33197184311088" stroke="currentColor" stroke-width="1" fill="none"></path><path d="M45 0 C19.63085913841186 -1.8221715209674318, 0.061546074179258614 19.724130756255427, 1.1221532964109149 43.955674786789096 M46.85248780818162 -0.5154368323369698 C18.71239685663956 0.4907879945760709, 0.7300635755104423 19.060153585997387, 1.9415225057354144 47.73238730191682 M0 45.714 C0.4602460008631857 65.73392171407536, 13.782324231424262 83.74408428037816, 32.212259552221795 91.30213277460133 M1.5015137348498144 44.03578891426823 C-0.7521016080750289 67.44225863397331, 15.957712458918186 84.39521695383685, 34.54291352599501 91.62544072468962 M33.802 90 C35.268310917662376 86.64458069435901, 32.87493481564749 76.63327623896495, 34.54642990163815 77.43305596267143 M34.742720305844564 88.5228174810218 C33.18020374969978 84.69396638234004, 32.88330307325786 78.31950515343573, 34.29376049664501 78.5024583677043 M33.762 76.218 C21.55935055242289 79.41033990186833, 16.79535263743202 70.36477606161964, 16.89598941588173 70.36993211922541 M32.15279069782469 77.45622639434094 C21.0311224210545 79.6698190167181, 19.948093267314345 68.9514739573485, 16.199898261560485 68.86336716376712 M18.036 70.623 C13.988621615730835 65.52300449585798, 13.26387153161843 64.34817853371274, 12.807251198364597 64.72903805942006 M16.46842038227607 71.93802959588083 C15.87923549000036 66.66732300704987, 10.685851556723454 62.60472331404318, 13.906625693877073 65.58162719492002 M12.853000000000002 63.684000000000005 C7.513886518483854 59.51388000439499, 12.439122911535568 61.72129886281536, 14.344795664046769 59.535603570223614 M12.89529006290859 63.25252959469597 C6.7352133240354375 60.425645422254696, 13.284272855390665 62.801814278256956, 11.19892160159762 61.16600415372818 M13.172000000000002 60.801 C18.15674665629432 61.90722512149174, 18.801356935696763 63.72163390362011, 20.6811986562286 67.4000509328963 M12.991841973743965 61.985817534510076 C19.71301304707859 62.07959221609229, 19.249225924803344 67.28295274347752, 21.818859025822526 66.50506620896203 M20.328000000000003 65.688 C22.909829741712414 71.69787216191395, 32.018198382163554 68.99845697957379, 34.110427405655535 68.04919949769271 M20.049001156611176 64.401778847325 C24.383051212544714 71.49244289294982, 29.506520292251796 71.29191003885101, 35.6884965365555 71.79419375125993 M33.912000000000006 69.63 C33.641974040284275 64.56924589565602, 36.929945810482835 62.58631387864528, 35.04610198921811 62.087084083377185 M33.93760045401054 67.83863261109026 C34.82586304925009 67.6629910009096, 36.491049344829406 65.23543660065862, 37.02402564557549 62.12906004246843 M36.876000000000005 63.288999999999994 C28.37729709834421 63.61263514634285, 14.699463934084665 56.24839993604394, 15.496088251413786 39.923709490523514 M38.62477024723103 62.2144665595822 C25.989191530077736 63.759569219599804, 13.331519500021656 57.04051243819495, 14.510908482710516 41.89821979298673 M15.608000000000004 39.854 C14.566659958730858 36.335956171311494, 19.253593168691726 31.608567347613924, 21.682698911473512 26.474577967561974 M15.941171070972585 38.645667631935126 C13.602826403495527 32.49379830402421, 17.30573464527393 28.4999449388215, 19.261998373068117 25.733185036161153 M20.418000000000003 27.125999999999998 C18.833999601451254 25.86874304911455, 16.79221489897037 19.922178188091763, 21.02593372529539 14.74910555883857 M22.379833361983366 25.979549882102646 C20.79187455768279 23.945431638595988, 16.07405876036013 19.425129312772626, 23.11277633578612 16.827084188463154 M20.870000000000005 14.575999999999997 C20.98790930102094 13.04631276428768, 24.09478811797039 13.62583324150658, 35.5247588088577 19.52829946180763 M20.470916161131232 15.960572015968758 C20.345078157232333 15.268180195667608, 23.77905714885723 14.05620226608968, 34.23971031138539 20.593661523211164 M33.71000000000001 19.436999999999998 C37.79130444653245 18.8427571715309, 41.692792128058514 16.27686707319277, 44.84105301699867 17.129823830020285 M31.88786039425068 18.281442941193305 C35.940838722393686 19.782189827363204, 39.777874715484245 19.013629671955535, 47.17438075834292 20.018881043282157 M45.394000000000005 17.840999999999998 C47.45655484676799 18.100986427287946, 53.82156450596319 19.39030277423652, 57.86412638399054 20.33047064232749 M46.36672088259245 19.50827459073883 C50.24835823387446 17.699411509769252, 51.54486851599263 17.919436309499396, 57.839347137821626 21.51009698446954 M57.08800000000001 19.436999999999998 C67.75743580255944 14.171298469121611, 68.25727637121668 14.151162299463174, 71.38117351672643 15.143568043004548 M56.38158460980673 20.253416875123822 C67.68848031684902 14.334755090481174, 69.00604279915487 14.795228348610008, 68.47405088313918 12.606126470631025 M69.912 14.575999999999997 C73.28646337717826 21.191120272609776, 70.77909074260928 25.116430594109246, 69.38770191826089 27.49701526189122 M70.1585189334756 12.582692355259123 C72.0938349910671 22.650009260558505, 70.12942727709859 26.826705451447673, 71.59618429370555 26.389926817732935 M70.37 27.125999999999998 C75.33886446402683 29.69685526510627, 75.52608942012272 36.10814379454773, 75.92807368563552 38.054407815299925 M69.33778186784615 26.350651418123643 C71.18244208274429 31.956567653858112, 74.58102670890452 34.54768682570819, 76.2807815859918 38.72636438622278 M75.174 39.854 C74.07141175663563 56.35342350012408, 62.810566560996705 63.62036747011524, 53.61331652590535 61.51898430716138 M74.56942101777044 40.385235756268415 C73.42527449691129 59.977792496337266, 65.79689459210002 61.92560249923159, 52.95507154332531 61.11904014478711 M53.85900000000001 63.251999999999995 C57.42767756419547 66.51349184608185, 55.328239290304694 67.21956904559858, 56.31562140256455 72.22733851653669 M53.56867618089091 64.47441603801275 C53.58786872657354 65.7728237710045, 59.09523439687518 66.52963684797353, 57.90221537855183 70.37451599918434 M57.025000000000006 72.033 C58.12395036610003 75.8889991283509, 57.44276454499186 82.63978770806469, 56.206158582309754 91.2547172001215 M56.907930515825 72.13362333477174 C58.33610489976757 76.6239895899911, 56.4901342984353 84.00243226156594, 57.21491719536423 89.51264414236717 M56.99400000000001 89.773 C74.56096218120103 85.69007878904398, 91.61027817518003 66.58715176867997, 89.40487245256395 46.438705986581816 M55.62247930340029 90.64685666636548 C76.97513907610971 84.92127089588814, 91.68389838119471 64.59952222160936, 91.99845938631624 47.88008372176889 M90 45.714 C88.23960791989474 19.434515660702466, 69.70100969857627 1.530193064715267, 46.29536615360501 -1.4051115311285627 M90.59165346451503 44.666984886022924 C89.17346590578305 20.61694551489037, 69.45325424361036 -1.1980652644230687, 46.56461244672475 1.1385693207862446 M45 0 C45 0, 45 0, 45 0 M45 0 C45 0, 45 0, 45 0" stroke="currentColor" stroke-width="2" fill="none"></path></g></svg>
