<svg class="toggle__wrap" width="68px" height="38px" viewBox="-2 -2 64 34" fill="none" xmlns="http://www.w3.org/2000/svg"><g><path d="M15 0 C4.22811556745831 1.3875453011080547, -3.949064263201829 11.032348293538513, 2.7521843713563485 23.694969676654594 M16.962691372909607 0.23767086472957066 C1.4865678073397945 1.6692504264066717, -4.5352872403722095 14.315429696609975, 1.6234900968391295 24.029292835257728 M2.00961894323342 22.5 C4.967674565663971 25.243880917558705, 8.115282284140683 29.211137112838856, 13.158194057757838 30.729958529356693 M1.8961636149371421 23.708475867108234 C4.5173929752757225 27.806279072425838, 10.873182348154836 28.958988984787897, 15.096091205506058 29.07815809471153 M15.218526768369818 30.07040459832426 C21.610409608625442 28.783935129194855, 33.51283236155662 30.6269467386205, 46.43131443973634 30.510587334572 M14.432229679958207 30.795498138100225 C25.204168766581297 30.81900121902078, 33.02525339020054 30.66917561536207, 44.85284575017189 30.130538795362806 M45 30 C57.79284122495763 28.51660710942122, 63.50688082983468 18.192791178585765, 59.27804386388295 9.445061782319035 M46.19938187146762 31.874465735886684 C54.835991733475915 28.926705378169277, 65.9278785197469 19.638073934609743, 56.328440400588576 7.959194730013577 M57.99038105676658 7.500000000000003 C57.067203772889194 2.6815047278740085, 51.494680453552924 0.06537964479484859, 44.929110008997846 -0.18367724355674087 M57.321687447340736 9.168534911404258 C57.27162714359475 2.7982658857955913, 49.1342324909225 -1.8749359191935342, 44.7825711716734 1.6684685615668378 M45.49736288070568 -0.6977191962336491 C37.11117492792096 0.8280413956674584, 31.3981739479406 0.6772394730300639, 13.65845174428815 -1.913547953228941 M44.18857076757539 0.8386036042538416 C36.945715614924914 0.35299613811158864, 26.236091323865026 0.07844072439392619, 15.682285824844026 0.794387178012139" stroke="currentColor" stroke-width="1" fill="none"></path></g></svg>