<svg class="toggle__label-wrap" width="26px" height="26px" viewBox="0 0 26 26" fill="none" xmlns="http://www.w3.org/2000/svg"><g><path d="M12.825562521142091 1.9205257605914756 C15.100316379886205 1.6816072563490405, 18.340013445580308 2.483967761630584, 20.139422659502046 4.012804303207364 C21.938831873423783 5.541640844784144, 23.209345604863913 8.703717860229185, 23.62201780467252 11.093545010052155 C24.034690004481128 13.483372159875126, 23.73138814629897 16.36410531632221, 22.61545585835369 18.35176720214519 C21.499523570408414 20.33942908796817, 19.054708326821217 22.210671242623565, 16.92642407700085 23.019516324990047 C14.798139827180481 23.828361407356528, 12.021543767366365 23.92650356782858, 9.845750359431479 23.204837696344075 C7.669956951496593 22.48317182485957, 5.1818415126888935 20.632978021302442, 3.871663629391529 18.689521096083027 C2.5614857460941645 16.74606417086361, 1.7307996572662891 13.86893495311313, 1.9846830596472902 11.544096145027595 C2.2385664620282912 9.21925733694206, 3.6137243575946574 6.32110472590975, 5.394964043677535 4.740488247569823 C7.176203729760413 3.1598717692298965, 11.38505639433323 2.439877859288994, 12.672121176144556 2.060397274988034 C13.959185957955881 1.6809166906870745, 13.091073844514936 2.309812337232874, 13.117352734545491 2.4636047417640654 M12.37499938722162 2.3277283101812714 C14.634549307760548 1.9303591723307174, 17.568002979568575 2.2242658764506436, 19.430041443774275 3.495298297284956 C21.292079907979975 4.766330718119268, 23.00705459389603 7.651949645050583, 23.54723017245581 9.953922835187143 C24.087405751015588 12.255896025323704, 23.60256176062371 15.041187577492469, 22.671094915132954 17.307137438104316 C21.739628069642198 19.573087298716164, 20.054067112424814 22.520747353528044, 17.958429099511264 23.549621998858232 C15.862791086597714 24.57849664418842, 12.365315356073015 24.151341690504744, 10.097266837651656 23.48038531008544 C7.829218319230296 22.809428929666133, 5.794369556942424 21.494307382081512, 4.3501379889831036 19.52388371634241 C2.905906421023783 17.55346005060331, 1.272807804987396 14.125417270451887, 1.4318774298957315 11.657843315650835 C1.590947054804067 9.190269360849783, 3.552212589923376 6.303824896799201, 5.304555738433116 4.718439987536102 C7.056898886942856 3.133055078273003, 10.859657342448264 2.5187155033030098, 11.945936320954171 2.145533860072243 C13.032215299460079 1.7723522168414765, 11.73091993091256 2.354968053993536, 11.822229609468557 2.479350128151502" stroke="currentColor" stroke-width="1" fill="none"></path></g></svg>