<svg class="toggle__wrap" width="68px" height="38px" viewBox="-2 -2 64 34" fill="none" xmlns="http://www.w3.org/2000/svg"><g><path d="M15 0 C4.0901713175394 0.9477644419712269, -3.1200947451819494 10.800669554258102, 0.6778420167905099 22.40800448608692 M13.208562006934669 -0.7918777873029823 C1.241846489653554 0.12472456703952596, -4.946661957187608 11.046157931056158, 1.9253806787326955 21.509045028976225 M2.00961894323342 22.5 C5.476528028621685 28.082231143235514, 10.194309530002304 31.20925980938449, 13.946454138551477 30.460589274363347 M1.4270355355682796 21.229095489795707 C5.229215809655484 26.497895139178528, 10.79304042376968 28.036153536246776, 15.828947334922278 29.13585940536413 M16.549912574401716 29.5411597008199 C24.842010169480304 30.83218186520974, 36.796027965084335 29.229401414710956, 44.451286195889296 31.072139646294957 M14.84839330651842 30.86607802153993 C25.788921621146642 30.13748045286998, 34.379781906424235 29.461231945810816, 45.72526945263489 29.432285610473194 M45 30 C57.419711509234894 31.955718310580107, 65.20557293099328 16.758969312546, 58.83798093097675 8.137092617149872 M46.41122131498235 28.25084193692407 C58.556270560940895 31.129136331390512, 63.21775346132719 19.056339481557174, 59.61525553243202 9.14412991520678 M57.99038105676658 7.500000000000003 C55.99120053431938 2.1846284635694313, 48.91313992208777 -1.6697643230174302, 43.19034789386886 -1.2436381163652785 M57.662207965934485 8.666060777705702 C53.42658055822162 3.5989357999652647, 51.16152859062423 -1.7235280424819435, 45.15455448670133 1.9483390916707082 M45.89442651621765 -1.4187544288452805 C36.221312607775786 0.5136276422473123, 28.626815516109918 -0.5868908474309018, 16.548421914688777 -0.9831666999912057 M44.263304034594334 -0.5586089398803689 C34.56705056911338 1.1867500200151155, 23.30551543144974 -0.7017524074784411, 15.026157080732828 -0.4058057726484099" stroke="currentColor" stroke-width="1" fill="none"></path></g></svg>