<svg id="notebook" xmlns="http://www.w3.org/2000/svg" version="1.0" viewBox="0 0 626 413">

  <g fill="currentColor">
  <path
     d="M260 17.1c-23.9.4-67.6.9-97 1.3-31.9.4-55.8 1.1-59.3 1.8-11.5 2.2-15.7 7.3-16 19.5-.3 17.1 3.4 196.7 4.3 209.8.6 7.7 1.1 20.7 1.2 29l.2 15L87 302c-3.5 4.7-11.4 14.1-17.5 21s-13 14.9-15.4 17.8c-2.5 3-10 11.7-16.8 19.5-6.9 7.8-12.9 15-13.4 16-.8 1.4-.4 2.4 2 4.7 1.6 1.7 3.6 3 4.4 3 .7 0 5.7 1.8 11 4l9.5 4h22.9c12.5 0 28.9.4 36.3.9 18.7 1.3 62.5 2 167.5 2.7 49.4.3 90.2.7 90.6.9 1.1.7 106.2.8 111.9.1 3-.3 21.7-1.1 41.5-1.7 52.6-1.6 54.6-1.7 58-3.1 4.7-1.9 20.5-12.9 22.2-15.5 1.4-2.1 1.4-2.6-.3-5-.9-1.5-8.6-9.5-17-17.8-8.3-8.2-17.2-17.5-19.6-20.5s-10.1-12.6-17.1-21.2c-7.6-9.5-13-17.3-13.7-19.5-1.8-6.3-2.4-67.4-1.1-115.3 1.3-44.6 1.1-53.5-1.9-119.5-1.3-27-3-34.2-9.3-38.9-2.9-2.1-2.9-2.1-110.5-2.1-59.2 0-127.3.3-151.2.6M392.5 20c.3.6-.2 2.2-1.3 3.8-2.9 4.2-3.6 6-1.2 3.2 6.1-7 7.1-8 8.5-8 2.3 0 1.8 1.8-2.1 7.4-2 2.8-2.6 4-1.4 2.6 5.9-6.8 9.2-10 10-10 1.8 0 1 2.2-2.6 7.4-3.5 5.1-3.5 5.1 2.5-1.4 4.7-5.2 6.2-6.3 7.2-5.3s.9 1.7-.8 3.5c-2.1 2.4-4.7 6.8-3.9 6.8.2 0 2.1-2.3 4.2-5 2.1-2.8 4.4-5 5.1-5 2 0 1.6 1.2-1.8 6.1l-3.1 4.4 4.8-5.2c4.6-4.8 9.7-7.2 11-5.2.3.5-.9 2.9-2.6 5.5-4.5 6.4-3.3 6.4 1.8-.2 3.1-4 4.8-5.4 6.7-5.4 3.1 0 3.1.5.2 4.4-4.5 6-4 6 1.6.1 4.3-4.4 6-5.6 6.8-4.8.9.9.4 2.1-2 5-1.7 2-3.1 4.2-3.1 4.8 0 .5.7.2 1.5-.9.7-1 3.1-3.6 5.1-5.9 4.3-4.6 5.8-3.5 2.1 1.5-4.3 5.9-4 6.4.8 1 3.2-3.5 5.4-5.2 7.1-5.2 1.3 0 2.4.3 2.4.8 0 .4-1.8 2.9-4 5.6-5.9 7.1-4.8 7.1 1.6-.2 3.9-4.3 6.3-6.2 8-6.2 3.2 0 3 .7-1.1 5.9-5.2 6.5-4.2 6.4 1.6-.2 2.9-3.2 5.9-5.7 7-5.7 2.6 0 2.4 1-1.1 5-4.7 5.6-3.4 5.7 1.6.1 3.2-3.6 5.3-5.1 7.1-5.1h2.5l-3.6 4.4c-5.1 6.3-4.5 6.8 1 .7 2.5-2.8 5.4-5.1 6.5-5.1 2.5 0 2.4.4-.8 4.8-2.6 3.4-2.4 3.3 2.1-1 2.8-2.8 5.4-4.4 6.2-4.1 1.6.6 1.4.9-3.1 6.3-1.1 1.4.3.3 3.2-2.3s5.4-4.7 5.7-4.7c1.8 0 1.2 2.4-1.5 5.4-1.7 2-2.8 3.6-2.5 3.6s2.2-1.8 4.2-4c5-5.5 7.6-5.3 3.3.2l-3.3 4.3 4.5-4.3c6.3-5.9 9.7-5.8 4.2.2-2.3 2.5-2 2.3 1.6-.7 8.8-7.3 17.1-2.9 18.6 9.8.7 5.6-.7 9.5-6.6 18.2-1.6 2.3-2.9 4.5-2.9 4.9s2.1-2.2 4.6-5.9c2.6-3.7 5-6.7 5.5-6.7 1.4 0 1.1.9-1.4 4.3-3.3 4.5-7 10.7-6.3 10.7.3 0 2.1-2.5 4.1-5.5 1.9-3 4-5.5 4.5-5.5 1.3 0 .9.6-3.6 7-3 4.2-7.4 12.2-6 10.9.3-.3 2.4-3.3 4.6-6.7s4.4-6.2 5-6.2c1.3 0 1.3 1.3-.2 2.8-.8.8-.8 1.5-.1 2.4 1.1 1.3-.5 4.4-8.6 18-4.3 7.1-1.5 3.8 3.4-4 5.9-9.3 5.4-8.7 6.1-7.9.4.4-.5 2.4-1.9 4.6-5.5 8.3-10.7 17.2-9.8 16.6.6-.3 2.9-3.7 5.2-7.5 2.2-3.8 4.7-7.4 5.5-8.1 3.1-2.5 1.3 3.1-3.6 11.4-6.3 10.7-6.6 12.7-.4 2.7 5.4-8.8 5.9-9.4 5-5.9-.5 2.5-4.9 10.8-9.8 18.6-1.1 1.8-1.7 3.3-1.4 3.3.2 0 2.9-3.9 5.8-8.8 3.9-6.4 5.4-8.2 5.6-6.6.2 1.2-2.2 6.2-5.8 11.9-3.3 5.4-5.9 9.9-5.8 10.1.2.2 2.8-3.5 5.8-8.1 4.7-7.4 7-10 7-7.9 0 .3-2.9 5.5-6.5 11.6s-6.4 11.2-6.2 11.4 2.8-3.7 5.8-8.6c4.8-7.9 6.9-10.5 6.9-8.3 0 .3-1.6 3.6-3.6 7.2-7.5 13.4-8.5 15.6-6.9 13.6.9-1.1 3.3-5 5.3-8.8 2-3.7 4-6.7 4.4-6.7 2.5 0-.8 7.3-7.9 17.1-1.8 2.6-3.3 5-3.3 5.5 0 .4 1.4-1.1 3.1-3.4 3.4-4.7 4.4-5.2 3.6-2-.4 1.2-.2 2.7.3 3.4.7.8-.6 3.5-4 8.8-2.7 4.2-4.6 7.6-4.2 7.6s2.3-2.5 4.1-5.5 3.7-5.5 4.2-5.5c1.5 0 1.1 1-3 7.1-2.2 3.3-3.6 5.7-3.1 5.4 1.5-1 10-13.1 10-14.4 0-.6.5-1.1 1-1.1.6 0 1 .4 1 1 0 .9-6.5 11.6-13.6 22.2-1.3 2.1-2.2 3.8-1.9 3.8.2 0 3.7-4.8 7.7-10.8 4-5.9 7.4-10 7.5-9.2.2.8-2.6 6.5-6.2 12.5s-6.5 11.4-6.5 12c0 .5 2.6-3.4 5.8-8.7 3.1-5.4 6.1-9.8 6.6-9.8 1.6 0-.4 4.8-6.3 15.5-3.3 5.8-5.4 10.2-4.7 9.6s3.2-4.6 5.7-9c6.2-11.4 8.1-10.5 2.3 1-1.3 2.6-3.7 7-5.4 9.9s-2.9 5.4-2.7 5.6c.1.2 2.3-3 4.7-7.1 3.8-6.4 6-9 6-7 0 .3-2.7 5.7-6.1 12.1s-5.6 11.3-5 10.9c.6-.3 3-4.3 5.3-8.8 3.2-6.2 4.3-7.7 4.6-6 .2 1.3-1.6 6-4.2 11-5.3 10.3-5.5 12.3-.2 2.9 2-3.7 3.9-6.6 4.1-6.6 1.5 0-.1 4.6-4 11.4-5.6 9.9-5.8 11.1-.3 2.6 6.2-9.6 6-5.1-.3 6.5-2.8 5.3-5 9.8-4.7 10 .2.2 2.4-3.3 4.8-7.8 4.2-7.7 4.5-8 4.8-5 .2 2.1-1 5.7-3.8 11.3-2.3 4.5-3.9 8.4-3.6 8.7.2.3 1.9-2.4 3.7-5.8 1.8-3.5 3.4-5.9 3.6-5.2.3.7-1.6 5.2-4.1 10s-4.4 8.8-4.3 9c.2.1 2.1-2.8 4.3-6.5 3.6-6.2 3.9-6.5 4.2-3.8.3 1.9-1.1 5.2-4.3 10.8-2.5 4.4-4.5 8.2-4.2 8.4.2.2 2.1-2.6 4.2-6.2 5.9-10 5.4-5.8-.4 4.8-2.8 5-5 9.3-4.7 9.5.2.2 2.3-2.9 4.7-6.9 3.4-5.7 4.5-6.8 4.7-5.1.3 2.1-4.3 12.4-8 17.6-1.1 1.6-1.8 3-1.5 3.3s2.5-2.7 4.8-6.8c3.5-5.8 4.4-6.8 4.7-5.1.2 1.4-1.8 6-4.8 11.4-2.8 5-5 9.3-4.7 9.5.2.2 2.3-3.1 4.8-7.4 4.1-7.2 4.4-7.5 4.7-4.7.2 2.1-1.2 5.7-4.8 12-2.7 5-5 9.4-5 10 0 .5 2.2-2.8 4.9-7.5 4-6.9 5.1-8.1 5.7-6.6.9 2.2-3.6 11.4-10.4 21.6-4.9 7.2-7.1 11.1-5.4 9.5.5-.6 4.2-5.9 8.1-11.9 5.2-8 7.2-10.5 7.7-9.2.4 1-1.9 5.9-6.5 13.8-3.9 6.6-7 12.3-6.7 12.5.2.2 2.9-3.9 6.1-9.2 3.2-5.2 6.2-9.5 6.6-9.5 1.2 0 1.1 2.7 0 3.5-1.3.7-10.2 15.7-9.7 16.2.2.2 2.2-2.8 4.5-6.7 2.3-3.8 4.6-7 5.1-7 1.3 0 1.3 9.2 0 12.2-1.3 3.3-4.7 7.4-5.5 6.6-.4-.3.5-2.7 2-5.3 1.5-2.5 2.5-4.8 2.3-5.1-.3-.2-2 2-3.8 5l-3.3 5.4-18.1.5c-10 .3-52.7 1-95.1 1.6-42.3.5-88.2 1.3-102 1.6-15 .4-32.2.2-43-.5-9.9-.6-51.1-1.3-91.5-1.6s-73.7-.7-74-1c-1.7-1.7-4.4-92-5.9-194.4l-.9-62.5 2.1-4.5c3.2-6.6 7.7-7.9 27.3-8 8.3 0 15.4.3 15.7.6.4.4-1 3-2.9 5.8-3.5 5-2.6 4.2 4.2-3.7 3.6-4.1 6-3.5 3.1.8-5.8 8.4-5.4 9 .7 1.2 2.6-3.3 4.5-4.7 6.2-4.7 1.3 0 2.4.3 2.4.8 0 .4-1.6 3.1-3.5 6-2 2.8-3.4 5.2-3.2 5.2s2.5-2.7 5.1-6c2.9-3.6 5.5-6 6.7-6 2.4 0 2.4.8 0 3.4-1 1.2-2.6 3.4-3.6 5.1-1.7 2.9-1.7 3 .1.9 1.1-1.2 3.2-3.8 4.8-5.8 2.5-3.1 6.6-5 6.6-2.9 0 .4-1.8 3.4-4.1 6.8-4 5.9-3.3 5.3 3.7-3.3 1.9-2.3 4.4-4.2 5.4-4.2 1.1 0 2 .3 2 .6 0 .4-2.3 3.6-5.1 7.3-4 5.2-4.3 5.8-1.2 2.5 2.1-2.2 5-5.5 6.5-7.2 1.7-2.1 3.5-3.2 5.2-3.2 1.4 0 2.6.3 2.6.6 0 .4-1.8 3.5-4 7s-3.8 6.4-3.6 6.4 2.8-3.2 5.6-7.1c5.5-7.5 8.3-8.9 3.4-1.7-3.9 5.7-5.1 8-2.2 4.3 1.2-1.7 3.9-4.8 6-7 3.1-3.4 3.8-3.7 4.3-2.3.4 1-.2 3-1.5 5l-2.2 3.3 3.1-3.5c1.7-1.9 3.1-3.8 3.1-4.1 0-1 3.1-2 4.1-1.3.5.3.1 1.7-.9 3.2-3.7 5.4-3.5 5.6 1.1.7 5-5.4 6.3-4.6 2 1.3-2.2 3.1-1.9 2.9 1.9-1.1 4-4.1 7.8-6.1 7.8-4 0 .5-2.1 3.4-4.6 6.6-6.3 8-5.1 8.1 1.4.1 5.2-6.3 7.6-8.3 8.9-7 .3.3-1.6 3.4-4.2 6.8l-4.8 6.3 5.9-6.3c3.3-3.4 6.5-6.2 7.2-6.2 1.5 0 1.2.5-3 6.7-4 5.9-2.8 5.4 1.7-.7 6-8.2 11.1-9.7 6-1.8l-2.7 4.3 4.5-5c5.2-5.8 7.4-5.5 2.7.5-4.2 5.3-3.2 5.1 2.2-.4l4.3-4.4 74.8-.6 74.9-.6-4.4 6.2c-2.4 3.5-4.7 7-5.1 7.8-.8 1.5.4.1 7.6-9.2 2.2-2.8 4.5-4.8 5.7-4.8 1.9 0 2.8 2.4 1.2 3.4-.4.2-2.2 2.6-4.1 5.3-3.4 4.9-1.5 3.1 5.2-5.1 3.7-4.5 6-5.6 7.2-3.6m135.1 93.7c-1 1-1.9-.5-1-1.8.6-1.1.8-1.1 1.2 0 .2.7.1 1.5-.2 1.8m1 4c-1 1-1.9-.5-1-1.8.6-1.1.8-1.1 1.2 0 .2.7.1 1.5-.2 1.8m.4 171.2c0 1.2-2 2.5-2.7 1.8s.6-2.7 1.8-2.7c.5 0 .9.4.9.9m-370.2 7c9.9.1 11.4.3 11.8 1.8.6 2-12.7 1.8 182.2 2.5 92 .3 99.3.2 98.9-1.4-.5-1.8 6-2.3 51.1-3.4 28.7-.6 27.7-.9 33.4 7.3 8.4 12.3 30.6 38.4 45.4 53.4 9 9.2 16.4 17.4 16.4 18.3 0 4.7-17.2 6.2-86.5 7.5-62.4 1.1-380.6.6-420-.8-17.1-.6-37.8-1.1-46.1-1.1-13.5 0-15.4-.2-17.5-1.9l-2.4-1.9 2.1-2.4C39.8 360.1 47 351.7 55.1 342c5.3-6.3 13.1-15.3 17.4-20s10.7-12.4 14.2-17.2 7.2-8.8 8.1-9c1.5-.3 35.6-.2 64 .1m100.4 1.2c15.2.7 43 .8 86.8.2 54.5-.8 102.9-.5 101 .6-.8.4-114.7 1.6-146 1.4-55.4-.2-124.5-1.5-125.4-2.4-1.4-1.3 56.2-1.1 83.6.2M52.4 385.9c1 1 1.3 2.1.9 2.4-1.1.7-7.3-2.2-7.3-3.4 0-1.7 4.7-.9 6.4 1m7 0c2.4 2.6.4 3.6-2.9 1.5-1.4-.9-2.5-2-2.5-2.5 0-1.6 3.7-.9 5.4 1m5.6-.4c.7.9 1 1.8.7 2.1-.7.8-4.7-1.4-4.7-2.6 0-1.5 2.6-1.2 4 .5m5.6.2c1.1 1.2 1.3 1.8.5 2.1-1.3.4-4.1-1.6-4.1-2.9 0-1.4 1.7-1 3.6.8m5.4-.2c.7.9 1 1.8.7 2.1-.7.8-4.7-1.4-4.7-2.6 0-1.5 2.6-1.2 4 .5m5 0c.7.9 1.1 1.8.8 2-.9 1-3.8-.7-3.8-2.1 0-1.8 1.4-1.8 3 .1m5 0c.7.9 1 1.8.7 2.2-.8.7-3.7-1.5-3.7-2.8 0-1.4 1.6-1.1 3 .6m5.8-.3c1.6 1.6 1.5 2.8-.2 2.8s-3.8-2.4-2.9-3.3c.9-1 1.7-.9 3.1.5m5.9 2.4c-.9 1-3.8-1.6-3.1-2.8.4-.6 1.3-.4 2.2.6.9.8 1.3 1.9.9 2.2m5.7-2c.9.3 1.6 1 1.6 1.6 0 1.4-4.3.5-4.8-1-.4-1.3.7-1.5 3.2-.6m6 0c.9.3 1.6 1 1.6 1.5 0 1.4-2.6 1-4-.6-1.3-1.6-.3-2 2.4-.9m7 0c.9.3 1.6 1 1.6 1.6 0 1.4-4.3.5-4.8-1-.4-1.3.7-1.5 3.2-.6m9.4.6c1.8 1.8 1.4 2.8-1.1 2.8-2.3 0-4.7-1.7-4.7-3.2 0-1.2 4.5-.9 5.8.4m6.8.2c1 .8 1.6 1.7 1.2 2.1-1.1 1.1-4.8-.5-4.8-2.1 0-1.8 1.1-1.8 3.6 0m450.1-.8c-.3.3-1.2.4-1.9.1-.8-.3-.5-.6.6-.6 1.1-.1 1.7.2 1.3.5m-442.6 2c1.1 1.4 1 1.5-1.1 1.2-1.3-.1-2.5-.9-2.8-1.6-.5-1.7 2.3-1.5 3.9.4m5.7-.4c1.8 1.8 1.5 2.7-.7 2.1s-3.7-3.3-1.8-3.3c.7 0 1.8.5 2.5 1.2m6.2.3c.7.9 1.1 1.8.8 2-.8.9-3.6-.5-4.2-2.1-.7-1.9 1.8-1.8 3.4.1m6.5.5c1.1 1.3 1.4 2 .6 2-1.8 0-5.1-1.9-5.1-3 0-1.7 2.6-1.1 4.5 1m5 0c1.4 1.6 1.5 2 .4 2-1.6 0-3.9-1.9-3.9-3.2 0-1.4 1.6-.9 3.5 1.2m7 0c1 1.1 1.5 2.3 1.1 2.7-.9.9-5.8-1.8-6.4-3.5-.6-2 3.3-1.4 5.3.8m4-1.2c1.9 1.3 3.7 4.2 2.8 4.2-1.2 0-5.3-3.4-5.3-4.4 0-.8 1.3-.7 2.5.2m8.3 1.1c2.7 2.3 2.8 3.1.4 3.1-1 0-2.9-1.1-4.2-2.5-2.2-2.3-2.2-2.5-.4-2.5 1 .1 2.9.9 4.2 1.9m6.2.6c1.7 1.8 2 2.5.8 2.5-.8 0-2.5-1.1-3.8-2.5-1.7-1.8-2-2.5-.8-2.5.8 0 2.5 1.1 3.8 2.5m6.4-.4c2 1.6 2.4 2.4 1.5 2.9-1.7 1.1-3.5.2-5.4-2.6-2-3.2.1-3.3 3.9-.3m6.5.3c1.2 1.3 1.8 2.7 1.3 3-1.1.6-6.2-3-6.2-4.5 0-1.7 2.6-.9 4.9 1.5m7.1 1c1 1.3 1 1.6 0 1.6-1.6 0-5-2.9-5-4.2 0-1.1 3.3.6 5 2.6m4.4-1.1c1.7 1.4 2.5 2.6 1.9 3-1.2.7-6.3-2.9-6.3-4.4s1.3-1 4.4 1.4m6.2 0c3.5 3 1.6 4.5-2 1.6-2.6-2.1-3.4-3.9-1.7-3.9.6 0 2.2 1.1 3.7 2.3m7.4 1.1c1 1.4.9 1.6-.7 1.6-2.2 0-5.7-3.3-4.7-4.3.8-.8 3.6.7 5.4 2.7m74.4-1.3c2.8 2.2 3.4 3.9 1.4 3.9-1.4 0-5.8-4-5.8-5.2 0-1.4 1.6-.9 4.4 1.3m6.9.7c1.8 1.6 2.3 3.2.8 3.2-1.6 0-6.1-4.2-5.5-5.1.6-1 1.9-.5 4.7 1.9m5.8-.7c1.6 1.1 2.9 2.5 2.9 3 0 1.7-3.3.9-5.7-1.3-4.2-4-2.2-5.3 2.8-1.7m8.4.9 2.9 3H323c-2.3 0-7-3.5-7-5.2 0-1.9 3.8-.6 6.5 2.2m6 0c2.5 2.6 2.6 3 1 3-1.9 0-6.5-3.7-6.5-5.2 0-1.7 2.8-.7 5.5 2.2m7-.3c3.6 2.9 3.7 4.8.2 3.7-2.4-.7-6.7-4.3-6.7-5.6 0-1.6 3.2-.7 6.5 1.9m7.1-.1c3.4 2.6 3.8 4.8.6 3.7-2.1-.7-6.2-4.4-6.2-5.5 0-1.5 2.1-.8 5.6 1.8m7 .4c1.8 1.6 2.9 3.2 2.4 3.5-1.3.8-3.9-.7-6.9-3.9-2.1-2.3-2.2-2.6-.7-2.6 1 0 3.3 1.3 5.2 3m7.7-.2c3 3.2 3.4 4.2 1.3 4.2-1.7 0-7.6-4.8-7.6-6.1 0-1.9 3.7-.8 6.3 1.9m9.9-.1c3.6 3.4 3.5 4.3-.2 4.3-2.9 0-8-3.9-8-6.1 0-2 5.6-.7 8.2 1.8m7.7-.1c3.6 3 3.9 4.4 1.2 4.4s-7.6-4.4-6.7-5.8c1.1-1.8 2.1-1.5 5.5 1.4m-140.5.3c2.8 3-.8 3.6-4.1.6l-2.8-2.4 2.6-.1c1.4 0 3.4.8 4.3 1.9m8.1.1c1.8 2 1.7 2-1.1 2-2.9 0-5.4-1.5-5.4-3.2 0-1.6 4.7-.7 6.5 1.2m6.6 0c2.3 1.8 2.3 1.9.4 1.9-2 0-5.5-2.1-5.5-3.3 0-1.3 2.9-.5 5.1 1.4m9.1-.3c2.7 2.5 2.2 3.6-1.4 2.9-3.3-.6-5.8-2.3-5.8-3.7 0-1.5 5.3-1 7.2.8m6.8.8c2.1 2.2 2.2 2.5.5 2.5-1.9 0-5.5-2.7-5.5-4.2 0-1.6 2.7-.7 5 1.7m7.4-.3c.9 1.2 1.4 2.4 1.1 2.6-1 1-5.5-1-6.5-2.8-.9-1.7-.8-2 1.4-2 1.4 0 3.1.9 4 2.2m6.7.4 2.4 2.6-2.9-.4c-1.6-.2-3.5-1.3-4.4-2.6-1.3-2-1.3-2.2.5-2.2 1.1 0 3 1.2 4.4 2.6m8.7-1c3 2.1 2.8 3.4-.6 3.4-2.9 0-7.2-2.4-7.2-4.1 0-1.5 5.3-1 7.8.7m8.5.4c2.2 2.6 2.2 3-.6 3-2 0-6.7-3.2-6.7-4.5 0-1.4 5.8-.2 7.3 1.5m85.1.4c2.8 2.6 3.2 3.6 1.4 3.6-1.4 0-5.8-4-5.8-5.2 0-1.5 1.9-.8 4.4 1.6m6.9.4c2 1.8 2.2 3.2.4 3.2-1.7 0-5.9-4.4-5.1-5.3.8-.7 2-.1 4.7 2.1m82.7 2.7c0 1.1-1.3.7-4.1-1.4-1.6-1.2-2.7-2.6-2.4-3.2.6-.9 6.6 3.3 6.5 4.6m5.3-3c3.2 2.8 3.4 3.5.8 3.5-2.3 0-7.3-3.9-6.6-5.1 1-1.5 2.8-1 5.8 1.6m6.2 0c1.6 1.3 2.6 2.7 2.3 3.1-.8.8-6.8-3.3-6.8-4.7 0-1.5 1.3-1 4.5 1.6m4.5-1c.7.9 1 1.8.7 2.1-.6.7-4.7-1.8-4.7-2.8 0-1.4 2.7-.9 4 .7m43 0c.7.9 1 1.8.7 2.2-.8.7-3.7-1.5-3.7-2.8 0-1.4 1.6-1.1 3 .6m-135.6 1.7c.5.9.7 2 .3 2.4-.8.8-4.7-2.4-4.7-3.8 0-1.5 3.2-.5 4.4 1.4m5.7-.3c1.3 1.1 2.1 2.3 1.7 2.7-1.2 1.1-5.8-1.3-5.8-3.1 0-2 1.3-1.9 4.1.4m6.7-.3c2.7 1.8 2.9 3.4.4 3.4-2.1 0-5.6-3.3-4.5-4.3.9-1 1.6-.9 4.1.9m21.6.5c2.1 1.7 2.5 2.4 1.4 3-2 1.3-3.4 1.1-5.8-.9-2.3-1.9-2.1-4.2.4-4.2.7 0 2.6 1 4 2.1m7.6 1.4c1.9 2.3.4 3-2.5 1.1-3-2-3.6-5.3-.7-3.7 1 .5 2.5 1.7 3.2 2.6m4.7-1.3c2.5 2.4 3 3.8 1.1 3.8-1.6 0-4.8-3.1-4.8-4.7 0-1.9 1-1.6 3.7.9m5.4-.1c3.2 2.3 3.8 3.9 1.3 3.9-1.5 0-5.3-3.7-5.4-5.3 0-1.2 1-.8 4.1 1.4m5.4-.1c1 1.1 1.5 2.3 1.2 2.7-.8.7-4.7-2.5-4.7-3.9s1.6-.9 3.5 1.2m5.5.2c3.1 2.3 3.8 3.8 1.8 3.8-1.4 0-5.8-4-5.8-5.2 0-1.3.8-1 4 1.4m6.4.2c1.5 1.3 2.4 2.6 1.8 3-1.1.6-6.2-3-6.2-4.5 0-1.4 1.3-1 4.4 1.5m35-.3c-.6 1.1-2.4.2-2.4-1.1 0-.5.7-.7 1.5-.4.8.4 1.2 1 .9 1.5m6.1-1.1c.3.5-.1 1-.9 1-.9 0-1.6-.5-1.6-1 0-.6.4-1 .9-1 .6 0 1.3.4 1.6 1m6 0c.3.5-.3 1-1.4 1-1.2 0-2.1-.5-2.1-1 0-.6.6-1 1.4-1s1.8.4 2.1 1m6 .1c1.2 1.9-.5 2.3-2.2.6-1.6-1.6-1.6-1.7-.1-1.7.9 0 2 .5 2.3 1.1m8 0c.4.6.5 1.3.1 1.6-.8.8-5.6-.6-5.6-1.7 0-1.3 4.7-1.3 5.5.1m19-.1c.3.5-.3 1-1.5 1s-1.8-.5-1.5-1c.3-.6 1-1 1.5-1s1.2.4 1.5 1m6.5 0c0 .5-.7 1-1.5 1s-1.5-.5-1.5-1c0-.6.7-1 1.5-1s1.5.4 1.5 1m6 0c0 .5-.7 1-1.5 1s-1.5-.5-1.5-1c0-.6.7-1 1.5-1s1.5.4 1.5 1m5.5 0c.3.5-.1 1-.9 1-.9 0-1.6-.5-1.6-1 0-.6.4-1 .9-1 .6 0 1.3.4 1.6 1m6.5 0c0 .5-.7 1-1.5 1s-1.5-.5-1.5-1c0-.6.7-1 1.5-1s1.5.4 1.5 1m5.7-.4c-.3.3-1.2.4-1.9.1-.8-.3-.5-.6.6-.6 1.1-.1 1.7.2 1.3.5M414 390.5c.7.9 1 1.8.7 2.1-.7.8-4.7-1.4-4.7-2.6 0-1.5 2.6-1.2 4 .5m6.1.3c1.4 1.2 1.8 2.1 1.1 2.6-.6.3-2.3-.5-3.9-1.9-2.1-1.8-2.4-2.4-1.2-2.5.9 0 2.7.8 4 1.8m116.6-1.2c-.3.3-1.2.4-1.9.1-.8-.3-.5-.6.6-.6 1.1-.1 1.7.2 1.3.5"
     id="path4485" />
  <path
     d="m 307.2,27.9 c -2.3,1.4 -1,4.6 1.8,4.6 1.6,0 2.6,-0.6 2.8,-1.9 0.3,-1.6 -1.2,-3.6 -2.8,-3.6 -0.3,0 -1.1,0.4 -1.8,0.9 m 2.8,2.7 c 0,0.8 -0.4,1.2 -1,0.9 -0.5,-0.3 -1,-1 -1,-1.6 0,-0.5 0.5,-0.9 1,-0.9 0.6,0 1,0.7 1,1.6"
     id="path4487" />
  <path
     d="m 522,63.3 c -1.9,2.8 -4,6.2 -4.8,7.4 -0.8,1.3 -1.2,2.3 -1,2.3 0.8,0 10,-14.1 9.5,-14.6 -0.2,-0.2 -1.9,2 -3.7,4.9 M 92,115.7 c 0,6.1 1.3,13.3 2.4,13.3 1.1,0 1.1,-11.4 0.1,-14.8 C 93.7,111.9 92,113 92,115.7 M 519.2,127 c -1.7,2.7 -2.9,5 -2.7,5 0.7,0 6.7,-9.1 6.3,-9.6 -0.3,-0.2 -1.9,1.8 -3.6,4.6 M 195.7,286.6 c -0.4,0.4 -0.7,1.3 -0.7,2.1 0,1 2,1.3 8,1.3 6.4,0 8,-0.3 8,-1.5 0,-1.2 -1.3,-1.5 -5.9,-1.5 -3.3,0 -6.6,-0.2 -7.3,-0.5 -0.8,-0.3 -1.7,-0.2 -2.1,0.1 m 217,1 c -0.4,0.4 -0.7,1.3 -0.7,2.1 0,1 1.9,1.3 7.6,1.3 6.6,0 7.5,-0.2 7.2,-1.8 -0.3,-1.4 -1.6,-1.8 -6.9,-2 -3.5,-0.2 -6.8,0 -7.2,0.4 M 99,315.7 c -5.1,6.5 -11.1,13.7 -13.2,16 -4.1,4.6 -4.9,7.3 -2,7.3 0.9,0 42.2,0.3 91.7,0.6 122.7,0.9 184.2,1 208,0.3 11,-0.3 38.2,-0.3 60.5,0.2 25.7,0.5 44.3,0.4 51,-0.3 5.8,-0.5 18.1,-1 27.4,-1.1 20.5,-0.2 21.4,-0.7 14.8,-8.2 -2.3,-2.6 -7.4,-9.6 -11.4,-15.6 -6.1,-9 -7.7,-10.9 -9.8,-10.9 -1.4,0 -7.9,0.5 -14.5,1.1 -16.4,1.3 -217.8,1.9 -275,0.7 -25.3,-0.5 -62.2,-1.1 -82.1,-1.4 l -36,-0.5 z m 28,-9.5 c 0,1.8 -1.2,3.4 -3,4 -0.8,0.3 0.6,0.9 3.3,1.3 2.6,0.4 4.7,1 4.7,1.4 0,0.3 -0.3,1.7 -0.7,3 l -0.6,2.4 -14.4,-0.6 c -7.9,-0.3 -14.7,-0.7 -14.9,-1 -0.3,-0.3 0.2,-1.8 1.2,-3.2 1.8,-2.7 2,-2.8 9.9,-2.3 4.5,0.3 6.7,0.2 5,-0.2 -1.6,-0.4 -4.9,-0.8 -7.2,-0.9 -2.4,0 -4.3,-0.5 -4.3,-1 0,-2 3.1,-3 10.5,-3.4 4.4,-0.1 8.6,-0.4 9.3,-0.5 0.6,-0.1 1.2,0.4 1.2,1 m 13.9,0.4 c 0.3,0.3 0,1.3 -0.5,2.2 -0.8,1.2 -2.8,1.8 -7.3,2 -6.6,0.3 -7.4,-0.5 -4,-3.9 1.7,-1.7 2.8,-1.9 6.7,-1.4 2.6,0.3 4.9,0.8 5.1,1.1 m 18.3,0.9 c -0.5,2.4 -1.9,3.4 -5.2,3.6 -2.5,0.1 -2.5,0.1 0.2,0.8 l 2.8,0.6 -2,3.2 -2,3.3 h -9.9 c -5.5,0 -10.2,-0.4 -10.5,-0.8 -0.3,-0.4 0.1,-1.9 0.7,-3.3 1.1,-2.1 2.1,-2.5 8.2,-3 3.9,-0.3 5.5,-0.6 3.8,-0.7 -2.1,-0.1 -3.3,-0.7 -3.3,-1.6 0,-2.3 2.3,-3.5 8,-3.9 8.8,-0.6 9.5,-0.4 9.2,1.8 m 11.6,-1 c 0.2,0.2 -0.1,1.3 -0.8,2.4 -0.8,1.7 -2,2.1 -5.5,2.1 -4.9,0 -5.8,-1.5 -2.8,-4.5 1.2,-1.2 2.5,-1.5 5.2,-1 2,0.4 3.7,0.8 3.9,1 m 13.7,2 c 0,1.8 -0.8,2 -6.7,2.3 -3.8,0.2 -6.8,0 -6.8,-0.3 0,-0.4 0.5,-1.5 1.1,-2.6 0.9,-1.7 1.9,-2 6.7,-1.7 4.9,0.3 5.7,0.6 5.7,2.3 M 503.1,307 c 4.1,2.3 2.1,3.8 -5.8,4.5 -7.9,0.8 -10.5,0.1 -11.1,-2.8 -0.3,-1.3 0.9,-1.7 6,-2 3.5,-0.2 6.9,-0.4 7.6,-0.5 0.7,-0.1 2.2,0.3 3.3,0.8 m 15.7,0.2 c 2.6,2.6 1.3,3.8 -4,3.8 -4.9,0 -8.8,-1.9 -8.8,-4.2 0,-1.3 11.5,-0.9 12.8,0.4 M 201,308.5 c 0,1.8 -3,3.4 -5,2.8 -0.9,-0.4 -0.8,0 0.4,0.9 1.5,1.2 1.7,1.8 0.7,3.6 -1.4,2.6 -4.9,3.6 -9.8,2.9 -4.6,-0.8 -4.9,-1.2 -2.9,-4.2 1.1,-1.7 2.6,-2.5 4.9,-2.7 l 3.2,-0.1 -3.2,-0.4 c -3.6,-0.5 -3.6,-0.4 -2.7,-2.7 0.9,-2.2 14.4,-2.4 14.4,-0.1 m 13.4,-0.9 c 1.2,0.5 1.3,1 0.5,2.5 -0.8,1.5 -2.1,1.9 -6.4,1.9 -5.7,0 -7.5,-1.1 -5.5,-3.5 1.3,-1.5 8.4,-2.1 11.4,-0.9 m 16.1,1.9 c 0,1.8 -0.8,2 -6.4,2.3 -7.1,0.3 -9.1,-0.6 -6.5,-3.2 1.2,-1.3 3,-1.6 7.3,-1.4 4.8,0.3 5.6,0.6 5.6,2.3 m 17.1,-1.3 c 1.3,2 -2.8,3.8 -8.7,3.8 -6.3,0 -7.8,-1 -5.3,-3.4 1.9,-1.9 12.9,-2.3 14,-0.4 m 16.3,0.4 c 0.2,0.2 0.1,1 -0.2,1.9 -0.5,1.1 -2.2,1.5 -7.1,1.5 -6.5,0 -8.3,-0.9 -7.2,-3.5 0.4,-1.1 2,-1.3 7.3,-0.8 3.7,0.3 7,0.7 7.2,0.9 m 77.1,0.5 c 2,3.7 0.8,4.5 -6.1,3.9 -5.2,-0.4 -6.4,-0.8 -6.7,-2.4 -0.5,-2.6 1.4,-3.6 7,-3.6 3.8,0 5,0.4 5.8,2.1 m 19,-0.2 c 1.8,3.4 1.2,3.8 -6.6,4.5 -8.4,0.8 -10.4,0 -10.4,-4 0,-2.3 0.2,-2.4 8,-2.4 6.8,0 8.1,0.3 9,1.9 m 15.1,0.2 c 3,3 1.3,4.1 -6.2,3.7 -6.2,-0.3 -6.4,-0.4 -6.7,-3.1 -0.3,-2.7 -0.2,-2.7 5.2,-2.7 4.4,0 6.1,0.5 7.7,2.1 m 88.1,-0.4 c 3.8,3.5 2.4,4.4 -6.4,4.2 -8.8,-0.2 -11.8,-1.1 -11.8,-3.4 0,-1 1.6,-1.5 5.8,-1.8 3.1,-0.2 6.8,-0.4 8.1,-0.5 1.4,-0.1 3.3,0.5 4.3,1.5 m 20.7,0.5 c 1.1,1.1 1.8,2.5 1.5,3 -0.3,0.4 -4.1,0.8 -8.4,0.8 -6.8,0 -8.2,-0.3 -9.9,-2.2 -1.1,-1.1 -1.8,-2.5 -1.5,-3 0.3,-0.4 4.1,-0.8 8.4,-0.8 6.8,0 8.2,0.3 9.9,2.2 m -205.8,-0.1 c 3.3,1.7 1.1,2.9 -5.6,2.9 -6.2,0 -8.3,-0.9 -7,-3 0.8,-1.3 10.1,-1.3 12.6,0.1 m 16.3,-0.5 c 0.9,0.3 1.6,1.5 1.6,2.5 0,2.1 -2.2,2.4 -10.4,1.3 -4.4,-0.6 -6.2,-2.6 -3.3,-3.7 1.8,-0.8 10.3,-0.8 12.1,-0.1 m 17,1 c 1,2.7 -0.3,3.4 -6.2,3.4 -6.5,0 -8.5,-0.9 -7.6,-3.3 0.9,-2.4 12.9,-2.5 13.8,-0.1 m 14.4,-0.4 c 2.7,2.7 1.3,3.8 -4.6,3.8 -5.7,0 -8.2,-1.1 -8.2,-3.7 0,-1.7 11.1,-1.8 12.8,-0.1 m 65.6,0.5 c 1,2.4 -1.2,3.4 -7.3,3.1 -4.5,-0.3 -5.5,-0.6 -6.2,-2.6 -0.8,-2.1 -0.7,-2.2 6,-2.2 5.5,0 7,0.3 7.5,1.7 m 16,-0.1 c 1.2,3 0.6,3.4 -5,3.4 -6,0 -9.4,-1.3 -9.4,-3.5 0,-2.3 13.5,-2.1 14.4,0.1 m 12.4,0.1 c 3.6,2.2 2.6,3.3 -3.2,3.3 -5.4,0 -8.5,-1.7 -7.1,-4 0.9,-1.4 7.5,-1 10.3,0.7 m 15,-0.5 c 2.7,2.7 1.3,3.8 -4.7,3.8 -4.5,0 -6,-0.4 -6.5,-1.6 -0.3,-0.9 -0.4,-2 0,-2.5 0.8,-1.3 9.8,-1.1 11.2,0.3 m 8,0 c 1.2,1.6 15.2,26.6 15.2,27.3 0,0.8 -4.4,0.6 -5.5,-0.3 -2.2,-1.6 -15.5,-25.4 -15.5,-27.7 0,-1.1 4.8,-0.4 5.8,0.7 M 183,312.7 c -0.1,4.3 -1.3,5.3 -6.4,5.4 -4.7,0.2 -4.5,0.2 2.2,0.9 4,0.5 7.6,1 7.9,1.3 0.6,0.7 -1.6,4.9 -3.1,5.9 -1.6,1.1 -17.6,1 -17.6,-0.2 0,-2 2.4,-5.9 3.9,-6.3 0.9,-0.3 0.2,-0.5 -1.6,-0.6 -2.5,-0.1 -3.1,0.2 -2.7,1.4 0.4,0.8 -0.2,2.7 -1.1,4.2 l -1.7,2.6 -11,-0.6 c -6.1,-0.3 -11.2,-0.8 -11.4,-1 -0.3,-0.2 0.1,-1.6 0.7,-3.1 1.2,-2.6 1.4,-2.6 12.3,-2.8 6.1,-0.1 9.2,-0.3 6.9,-0.5 -4.6,-0.4 -5.2,-1.5 -2.7,-5.1 1.4,-2.1 2.2,-2.2 13.5,-2.2 6.5,0 11.9,0.3 11.9,0.7 m 325.2,1 c 1,0.9 1.8,1.9 1.8,2.3 0,1.4 -16,2.2 -17.6,1 -2.8,-2.4 -1.6,-3.9 3.4,-4.3 9.7,-0.7 10.6,-0.7 12.4,1 m 15.1,0.5 2.2,2.3 -5.9,0.3 c -4.2,0.2 -6.3,-0.1 -7.4,-1.1 -2.2,-2.3 -0.5,-3.7 4.4,-3.7 3.2,0 5,0.6 6.7,2.2 m -305,-0.5 c 0.3,0.5 0.1,1.8 -0.4,3 -0.8,2.2 -1.4,2.3 -10.9,2.3 -5.5,0 -10,-0.3 -10,-0.8 0,-0.4 0.7,-1.8 1.6,-3 1.4,-2 2.4,-2.2 10.4,-2.2 4.9,0 9.1,0.3 9.3,0.7 m 18.4,2.5 c -1.3,3.3 -1.4,3.3 -8.7,3.6 -8.4,0.3 -10,-0.6 -7.6,-4.2 1.5,-2.4 2.2,-2.6 9.6,-2.6 h 8 z m 18.8,-0.5 c -0.3,1.6 -1,3.2 -1.4,3.6 -0.4,0.4 -4.4,0.7 -8.9,0.5 l -8,-0.3 1.3,-3.3 1.4,-3.2 h 16.3 z m 16.2,0.5 0.7,3.3 0.6,-3 c 0.5,-3 0.6,-3 7,-3 h 6.5 l 0.3,3.2 c 0.3,3.2 0.2,3.3 -3.5,3.4 -7.7,0.3 -26.5,0 -26.9,-0.4 -0.2,-0.2 -0.1,-1.8 0.2,-3.5 l 0.7,-3.2 h 13.8 z m 130.4,0.5 c 1.5,4.1 1.2,4.4 -4.8,4.1 -5.3,-0.3 -5.8,-0.5 -6.7,-3.1 -1.3,-3.6 -0.2,-4.3 5.9,-3.9 3.8,0.3 4.8,0.8 5.6,2.9 m -95.5,-0.2 c 0.4,1.4 0.5,2.8 0.3,3 -0.9,0.8 -16.5,1.5 -17.6,0.8 -0.6,-0.5 -0.9,-2 -0.6,-3.6 0.5,-2.7 0.6,-2.7 8.9,-2.7 8.1,0 8.4,0.1 9,2.5 m 15.2,1.4 0.3,3.4 -5.3,-0.6 c -2.9,-0.4 -6.1,-0.7 -7,-0.7 -1.3,0 -1.8,-0.8 -1.8,-3 v -3.1 l 6.8,0.3 6.7,0.3 z m 17,-2.7 c 0.7,0.7 1.2,2.2 1.2,3.5 0,2.2 -0.3,2.3 -8,2.3 h -8 v -7 h 6.8 c 4,0 7.3,0.5 8,1.2 m 32.8,1.3 c 1.1,4.4 0,5.5 -5.8,5.5 -2.9,0 -5.8,-0.4 -6.4,-0.8 -1.3,-0.9 -2.6,-5.7 -1.7,-6.6 0.3,-0.3 3.5,-0.6 6.9,-0.6 5.9,0 6.4,0.2 7,2.5 m 16.8,-0.9 c 1.9,5.1 0.3,6.4 -7.9,6.4 -5.8,0 -7.5,-1.4 -7.5,-5.9 0,-1.9 0.6,-2.1 7.4,-2.1 5.8,0 7.5,0.3 8,1.6 m 30.1,1.4 c 2,3.8 1.2,4.2 -7.6,3.8 l -6.4,-0.3 -0.3,-3.3 -0.3,-3.2 h 6.5 c 6.3,0 6.6,0.1 8.1,3 m 20.5,-0.8 c 1.1,1.2 1.9,2.7 1.7,3.3 -0.2,0.6 -4.3,1.1 -9.5,1.3 -9.1,0.3 -9.2,0.2 -10.2,-2.3 -0.6,-1.5 -1,-3.1 -1,-3.6 0,-0.5 3.8,-0.9 8.5,-0.9 7.4,0 8.7,0.3 10.5,2.2 m 28.8,-1 c 3,3 1.3,3.8 -7.6,3.8 -7.3,0 -9.2,-0.3 -10.5,-1.8 -1,-1 -1.4,-2.2 -1,-2.5 1.2,-1.2 17.8,-0.8 19.1,0.5 m 21.2,0.3 c 0.7,0.9 1.1,1.8 0.8,2 -0.3,0.3 -3.8,0.8 -8,1.1 -7.8,0.7 -11.8,-0.4 -11.8,-3.1 0,-2.2 17.2,-2.2 19,0 m -133,2.1 c 0.6,1.4 1,2.7 1,3 0,0.2 -3.3,0.4 -7.4,0.4 -6.7,0 -7.4,-0.2 -7.9,-2.2 -0.9,-3.3 -0.1,-3.8 6.9,-3.8 6,0 6.5,0.2 7.4,2.6 M 111.3,319 c 3.3,0 3.5,2 0.5,5.4 -2.2,2.4 -2.6,2.5 -10,1.9 -8.4,-0.6 -9.4,-1.5 -5.5,-5 3,-2.8 4.6,-3.3 8.7,-2.8 1.9,0.3 4.7,0.5 6.3,0.5 m 403.3,2.6 c 3.5,4.5 2.4,5.4 -6.9,5.4 -6.2,0 -7.1,-0.3 -9.8,-2.9 -1.6,-1.6 -2.9,-3.4 -2.9,-4 0,-0.5 2.6,-1.2 5.8,-1.4 3.1,-0.2 6.9,-0.4 8.4,-0.5 2,-0.2 3.4,0.7 5.4,3.4 m 10.1,-3 c 1.2,0.3 3,1.7 3.9,3.1 2,3.1 0.7,4.3 -4.8,4.3 -2.9,0 -4.2,-0.7 -6.3,-3.2 -2,-2.4 -2.3,-3.3 -1.3,-3.9 1.5,-1 5.4,-1.1 8.5,-0.3 m -384.9,1.8 c 0.1,0.2 -0.2,1.5 -0.7,3 L 138,326 h -25.1 l 1.2,-2.3 c 2.6,-5 2.6,-5 14.4,-4.3 6,0.4 11.1,0.9 11.3,1 m 354.6,1.8 c 3.3,4.2 2.3,4.8 -8.2,4.8 -7.5,0 -8.6,-0.2 -10.3,-2.3 -3.1,-3.7 -2.4,-4.6 4.4,-5 3.4,-0.2 7.4,-0.4 8.9,-0.5 1.9,-0.1 3.3,0.7 5.2,3 M 210.1,322 c -1.2,4.9 -1.1,5.3 0.5,2.5 0.9,-1.7 2.2,-3.3 2.8,-3.7 0.9,-0.6 14.5,0 15.3,0.7 0.6,0.4 -2.2,6.5 -3.2,6.8 -0.5,0.2 -5.7,0.1 -11.5,-0.4 -5.8,-0.4 -14.1,-0.8 -18.6,-0.8 -4.4,-0.1 -8.4,-0.4 -8.7,-0.7 -0.4,-0.4 0.3,-2 1.4,-3.6 l 2.1,-2.9 10.1,0.3 c 8.5,0.3 10.1,0.6 9.8,1.8 m 262.3,0.2 c 3.1,4.3 2.3,4.8 -7.8,4.8 -8.7,0 -9.6,-0.2 -11,-2.2 -3.1,-4.3 -2.3,-4.8 7.8,-4.8 8.7,0 9.6,0.2 11,2.2 M 246,323.4 c 0,4.1 -2.5,5.6 -9.3,5.6 -8.2,0 -9.2,-0.7 -6.7,-4.8 1.9,-3.1 2.2,-3.2 9,-3.2 6.7,0 7,0.1 7,2.4 m 15.3,1 c -0.1,1.6 -0.8,3.3 -1.5,3.8 -1.6,1 -12.5,1.1 -13.1,0 -0.2,-0.4 0.2,-2.2 1,-4 1.3,-3.3 1.4,-3.3 7.6,-3 6.2,0.3 6.2,0.3 6,3.2 m 30,-2.4 c 3.4,0 3.7,0.2 3.7,3 v 3 h -7.5 c -7.3,0 -7.5,-0.1 -7.5,-2.5 0,-2.8 2.6,-4.7 5.5,-4 1.1,0.3 3.7,0.5 5.8,0.5 m -12.3,1.7 c 0,3.5 -1.5,4.1 -9,4.4 -6.9,0.2 -7.5,0 -7.2,-1.7 0.7,-4.2 1,-4.4 8.7,-4.4 6.5,0 7.5,0.2 7.5,1.7 m 31.5,1.3 c 0,2.4 -0.3,2.5 -6.7,2.8 l -6.8,0.3 v -6.2 l 6.8,0.3 c 6.4,0.3 6.7,0.4 6.7,2.8 m 17.5,-1.1 c 2,3.8 0.3,5.1 -6.5,5.1 -7.8,0 -9.5,-0.6 -9.5,-3.4 0,-3.3 0.7,-3.6 8.1,-3.6 5.7,0 7,0.3 7.9,1.9 m 12.4,-0.3 c 0.9,0.8 1.6,2.4 1.6,3.5 0,1.7 -0.7,1.9 -6,1.9 -5.9,0 -6,0 -6,-2.8 0,-1.6 0.3,-3.2 0.7,-3.5 1.3,-1.3 8.2,-0.7 9.7,0.9 m 16.8,1.8 2,3.1 -0.5,-2.8 -0.4,-2.7 h 7.4 c 6.6,0 7.5,0.2 8,2 0.3,1.1 0.9,2 1.3,2 0.5,0 0.6,-0.9 0.3,-2 -0.5,-1.8 0,-2 6,-2 5.6,0 6.7,0.3 8,2.2 l 1.6,2.3 v -2.1 c 0.1,-1.2 0.8,-2.5 1.7,-2.8 2.7,-1 10,-0.6 11.6,0.6 2.2,1.9 2.9,4.5 1.3,5.2 -0.8,0.3 -15.1,0.4 -31.7,0.3 l -30.3,-0.2 -0.3,-3.3 -0.3,-3.3 6.1,0.2 c 5.8,0.2 6.4,0.5 8.2,3.3 m 68.8,-0.7 2.1,2.8 -0.6,-2.9 -0.6,-2.9 7.7,0.5 c 6,0.4 8,0.9 9.1,2.4 0.7,1 1.2,2.3 1,2.9 -0.2,0.6 -6.9,1.1 -18,1.3 -17,0.2 -17.6,0.2 -18.7,-1.9 -2.2,-4 -0.7,-4.9 7.9,-4.9 7.5,0 8.1,0.2 10.1,2.7 m -322.3,2.9 6,0.7 -1.6,3.8 c -0.9,2.2 -2.4,4.2 -3.5,4.5 -1,0.3 -5.6,0.3 -10.2,-0.1 -9.6,-0.8 -10.3,-1.6 -4.9,-6.4 3.8,-3.3 4.8,-3.5 14.2,-2.5 m 20.6,0.3 c 3.2,0.1 3.7,2.7 0.9,6.1 -1.4,1.8 -3.1,2.3 -8.6,2.6 -3.7,0.2 -7.2,0.2 -7.7,-0.1 -0.5,-0.4 0,-2.4 1.1,-4.5 1.9,-3.8 4.8,-5 10,-4.4 0.8,0.2 2.7,0.3 4.3,0.3 m 26.9,0.9 c 0.4,0.4 0,2.2 -0.7,3.9 l -1.4,3.3 H 138 c -7,0 -11,-0.4 -11,-1 0,-2.2 3,-6.9 4.7,-7.3 2.4,-0.6 18.6,0.3 19.5,1.1 m 382.2,1.9 3.6,3.8 -5,0.3 c -4.4,0.3 -5.3,0 -7.5,-2.5 -3.5,-4 -3.2,-5.3 1.4,-5.3 3.3,0 4.6,0.7 7.5,3.7 m -356.4,-2 c 0,0.4 -0.5,2.2 -1.2,4 l -1.2,3.3 h -11.1 c -6.2,0 -11.4,-0.3 -11.8,-0.6 -0.3,-0.3 0.2,-2.1 1,-4 l 1.7,-3.4 h 11.3 c 6.2,0 11.3,0.3 11.3,0.7 m 19,1.1 c 0,1 -0.7,2.8 -1.6,4 -1.4,2 -2.4,2.2 -10,2.2 -4.6,0 -8.4,-0.3 -8.4,-0.8 0,-0.4 0.9,-2.2 2,-4 2,-3.2 2,-3.2 10,-3.2 7,0 8,0.2 8,1.8 m 65.6,-0.4 c 61.2,0.1 60.4,0 60.4,5.1 0,2.1 -0.5,2.3 -9.5,3 -5.3,0.4 -16.6,0.4 -25.3,0.1 -8.6,-0.4 -32.3,-0.9 -52.6,-1.1 -20.2,-0.2 -37.1,-0.6 -37.4,-1 -0.3,-0.3 0.2,-2.2 1.3,-4.1 1.5,-2.9 2.3,-3.4 3.9,-2.8 1.2,0.4 27.8,0.8 59.2,0.8 m 239.8,1.9 c 1.4,1.9 2.6,3.7 2.6,4.1 0,0.4 -4.6,0.5 -10.1,0.4 -9.7,-0.3 -10.3,-0.4 -12.2,-3 -1.1,-1.4 -1.7,-3 -1.3,-3.6 0.3,-0.5 4.6,-1 9.5,-1.1 l 8.9,-0.2 z m 19.5,-0.2 c 1.3,1.7 2.1,3.2 1.9,3.3 -0.1,0.2 -3.5,0.6 -7.5,1 -7.1,0.7 -7.1,0.7 -10.1,-2.5 -1.7,-1.8 -2.9,-3.7 -2.6,-4.1 0.3,-0.4 4,-0.8 8.3,-0.8 7.5,0 7.8,0.1 10,3.1 m -42.4,0.9 c 3.6,3.7 2.7,4.1 -9.1,4.4 -7.9,0.1 -8.7,-0.1 -10.5,-2.3 -3.6,-4.5 -2.7,-5.1 7.4,-5.1 9,0 9.4,0.1 12.2,3 M 337,331 c 3.9,0 4.9,0.4 5.8,2.2 1.1,2.3 1.1,2.3 1.1,0.2 0.1,-2 0.8,-2.2 9.2,-2.9 9.7,-0.8 11.4,-0.2 12.1,4 0.3,1.9 -0.3,2 -19.7,2.3 -17.9,0.2 -20.1,0.1 -21.2,-1.5 -0.7,-0.9 -1.3,-2.6 -1.3,-3.6 0,-1.8 0.5,-1.9 4.6,-1.3 2.6,0.3 6.8,0.6 9.4,0.6 m 45,0.9 c 2.3,4.4 1.5,5.1 -6.5,5.1 -7.2,0 -7.6,-0.1 -8.5,-2.6 -0.6,-1.4 -0.8,-3 -0.4,-3.5 0.3,-0.5 3.6,-0.9 7.4,-0.9 5.8,0 7.1,0.3 8,1.9 m 21,0 c 0.5,1.1 1,2.4 1,2.9 0,1.2 -14.1,2.6 -16.8,1.8 -1.6,-0.5 -4.2,-4.4 -4.2,-6.1 0,-0.3 4.3,-0.5 9.5,-0.5 8.3,0 9.6,0.2 10.5,1.9 m 15,0 c 2,3.7 1.3,4.2 -5.7,3.9 -6.6,-0.3 -6.8,-0.4 -7.1,-3.1 -0.3,-2.7 -0.3,-2.7 5.7,-2.7 4.9,0 6.2,0.4 7.1,1.9 m 16.6,0.6 c 0.9,1.4 1.3,2.9 1,3.3 -1.5,1.4 -13,0.1 -14.3,-1.6 -2.7,-3.3 -1.6,-4.2 5.2,-4.2 5.8,0 6.6,0.3 8.1,2.5 m 13.1,0.1 c 2,2.7 1.1,3.9 -3.5,4.2 -4.4,0.3 -8.2,-2.2 -8.2,-5.4 0,-2.4 9.8,-1.4 11.7,1.2 m 71.3,18 c -6.3,5.2 -12.6,10.7 -14,12.1 -1.8,1.9 -1.4,1.7 1.5,-0.6 2.2,-1.8 8.5,-6.9 14,-11.3 11.8,-9.5 12.2,-9.8 11,-9.7 -0.6,0 -6.2,4.3 -12.5,9.5 m 7,-0.7 c -5.8,4.8 -12.5,10.7 -15,13.1 -3,2.8 -2.3,2.4 1.9,-1.1 6.4,-5.5 15.9,-13.2 22.1,-18.1 1.9,-1.5 3.1,-2.7 2.5,-2.7 -0.5,0 -5.7,3.9 -11.5,8.8 m -14.1,0.5 c -5.7,4.6 -11.7,9.9 -13.4,11.8 -2.3,2.5 -1.9,2.3 1.5,-0.8 5.1,-4.6 19.1,-15.8 21.8,-17.3 0.9,-0.5 1.4,-1.2 1.1,-1.5 -0.3,-0.4 -5.3,3.2 -11,7.8 m -4.9,-1.3 c -4.5,3.4 -10.5,8.4 -13.3,11.1 l -5.2,5 6.5,-5.4 c 3.6,-3 9.2,-7.5 12.5,-9.9 8,-5.9 9.1,-6.8 8.3,-6.9 -0.4,0 -4.3,2.8 -8.8,6.1 m -322,7.5 c -3.9,6.7 -7,12.6 -7,13.2 0,0.6 28.2,0.9 80.1,0.8 l 80,-0.1 -0.6,-2.5 C 336,361.5 334.1,350.2 334,347.8 V 345 l -61.2,-0.1 c -33.7,-0.1 -65.7,-0.2 -71.1,-0.3 l -9.7,-0.1 z m 146.7,-9.2 c 0.7,0.6 4.4,20.9 4,21.2 -0.7,0.5 -155.7,1 -155.7,0.5 0,-0.3 2.7,-5.3 6,-11.1 l 5.9,-10.5 4.8,-0.6 c 6.4,-0.9 134.2,-0.4 135,0.5"
     id="path4489" />
  <path
     d="M306.8 351.7c.7.3 1.6.2 1.9-.1.4-.3-.2-.6-1.3-.5-1.1 0-1.4.3-.6.6m-28.3 1.3c-3.8.4.2.5 9 .2 8.8-.2 16.2-.6 16.4-.8.6-.6-17.5-.1-25.4.6m-17.7 4.7c6.8.2 17.6.2 24 0 6.4-.1.9-.3-12.3-.3s-18.5.2-11.7.3m46 0c1.2.2 3.2.2 4.5 0 1.2-.2.2-.4-2.3-.4s-3.5.2-2.2.4m-12 5c3.4.2 8.8.2 12 0 3.1-.2.3-.3-6.3-.3s-9.2.1-5.7.3m20.9 1c1.8.2 5 .2 7 0 2.1-.2.7-.4-3.2-.4-3.8 0-5.5.2-3.8.4m171.8-18.5c-2.9 1.6-17.5 13-17.5 13.5 0 .3.6.1 1.3-.4 4.1-3.2 14.6-11.1 16.7-12.5 2.8-1.9 2.5-2.3-.5-.6m14.5 2.6c-2.5 2-8.8 7.3-14 11.7-5.3 4.4-11.1 9.3-13 10.8l-3.5 2.9 4-2.8c2.2-1.5 6.7-5.1 10-7.9s9.4-7.7 13.5-11c9.3-7.2 9.6-7.5 8.5-7.5-.6.1-3 1.8-5.5 3.8m32.7 3.3c-5.4 3.9-12.1 9.4-15 12.2-2.9 2.9-3.7 3.8-1.8 2.1 6.8-5.8 13.6-11.1 21-16.2 4.1-2.9 7-5.2 6.5-5.2s-5.3 3.2-10.7 7.1m-41.3-1.9c-8.2 5.8-26.4 20-26.4 20.6 0 .2.6 0 1.3-.5.6-.6 5.3-4.1 10.2-8 5-3.9 12.1-9.1 15.8-11.7 3.8-2.5 6.4-4.6 5.9-4.6s-3.5 1.9-6.8 4.2m-424.7 2.4c-3.2 3.1-5.6 5.8-5.4 6s3-2.3 6.2-5.6c7.5-7.6 6.9-7.8-.8-.4m28.3-3.2c-1.4 1.2-4.5 4.5-7 7.2-2.6 2.8-1.4 2 2.8-2.1 3.9-3.8 7.2-7.1 7.2-7.2 0-.6-.5-.2-3 2.1M72.5 353c-3.3 3.3-5.5 5.9-5 5.9 1-.1 12.2-11.9 11.4-11.9-.3 0-3.1 2.7-6.4 6m6.6.7-6.6 6.6 6-5.3c9-8 9-8 8.1-8-.4 0-3.8 3-7.5 6.7m7 0-6.6 6.6 6-5.3c9-8 9-8 8.1-8-.4 0-3.8 3-7.5 6.7m15.3-4c-1.7 1.6-4.1 4.1-5.4 5.8-1.4 1.6.1.5 3.3-2.5 3.1-3 5.7-5.6 5.7-5.7 0-.7-.7-.2-3.6 2.4m276.5 4.5c-6.6 7.5-10.9 12.9-7.8 9.8 7-6.9 15.1-16.1 14.7-16.5-.3-.3-3.4 2.7-6.9 6.7m26.6-4.1c-2 1.8-4.1 4.1-4.7 5.3-.6 1.1 1.3-.1 4.1-2.9 2.8-2.7 5.1-5.1 5.1-5.2 0-.8-1.3 0-4.5 2.8m-295.1 1.4c-2.3 1.9-4.9 4.7-5.9 6.2-1 1.6 1 .1 4.4-3.2 3.3-3.3 6.1-6.1 6.1-6.3 0-.5-.7 0-4.6 3.3m31.7 1.3c-2.8 2.6-5.1 5.4-5.1 6.1s1.2-.2 2.8-2c1.5-1.9 4.1-4.6 5.7-6.1 1.7-1.5 2.7-2.8 2.4-2.8-.4 0-3 2.2-5.8 4.8m7.3-2.6c-4.3 4.9-4.6 6.1-.6 2.3 2.3-2.1 4.2-4 4.2-4.2 0-1-1.9 0-3.6 1.9m246.9 2.5c-3.8 4.6-6.8 9-4.6 6.8 5.4-5.5 10.4-11.5 9.5-11.5-.5 0-2.8 2.1-4.9 4.7m11.7 0-4.5 4.7 4.5-3.8c6.5-5.6 6.5-5.6 5.4-5.6-.5 0-3 2.1-5.4 4.7m-25.4 3.4c-3.7 4-6.4 7.4-6.1 7.7s.6.3.8.1c.1-.3 3.3-3.7 7.2-7.7 3.8-3.9 6.4-7.2 5.8-7.2s-4.1 3.2-7.7 7.1m7.5-1.4c-2.8 3.1-4.9 5.9-4.6 6.1.3.3.6.3.8.1.1-.2 2.7-3 5.7-6.2 3-3.1 4.9-5.7 4.3-5.7s-3.4 2.6-6.2 5.7m156.4-3c-4.5 3-19.5 15.4-19.5 16.1 0 .6 2.3-1.2 8.3-6.5 2.7-2.3 7.5-6 10.9-8.3 3.3-2.2 5.6-4 5.1-4-.4 0-2.6 1.2-4.8 2.7m-433.5 3c-7.6 8.1-11.6 12.6-10.4 12 1.3-.7 15.8-16.7 15.2-16.7-.2 0-2.4 2.1-4.8 4.7m21 .8c-2.9 3-5.2 5.7-4.9 5.9.2.2 2.8-2.2 5.7-5.5 2.9-3.2 5.2-5.9 5-5.9s-2.8 2.5-5.8 5.5m-13-.9c-2.2 2-5.9 6-8.1 8.8l-4.1 5.1 4.1-4.5c2.3-2.5 6.3-6.4 8.9-8.7 2.6-2.4 4.4-4.3 4-4.3-.5 0-2.6 1.6-4.8 3.6m8.4 1.6c-2.7 2.9-5.6 6.2-6.4 7.4-.8 1.1.2.2 2.3-2 2-2.3 5.4-5.6 7.4-7.4 2-1.7 3.2-3.2 2.7-3.2s-3.2 2.4-6 5.2m423.6-2.5c-4.7 2.8-18 13.2-18 14 0 .6 1.1-.2 8-5.9 2.5-2 7.2-5.2 10.5-7.2s5.6-3.6 5-3.6c-.5 0-3 1.2-5.5 2.7m-433 6.5-7.3 8.3 8.1-8c4.5-4.4 8.2-8.1 8.2-8.2 0-1.5-2.9 1-9 7.9m438.5-5c-7.2 4.4-12.5 8.8-12.5 10.1.1.7.5.6 1.3-.3 1.7-2.2 8.4-7.2 13.7-10.3 2.5-1.5 4.1-2.7 3.5-2.7-.5 0-3.2 1.4-6 3.2m4 1.8c-2.3 1.1-5.6 3.4-7.5 5.1l-3.5 3.1 3.4-2.3c1.8-1.2 5.6-3.5 8.5-5 5.8-3.3 5.2-3.9-.9-.9m-95.1.6c-1.8 1.4-1.8 1.5.4.4 1.2-.6 2.2-1.3 2.2-1.5 0-.8-.5-.6-2.6 1.1m-2 5.6-1.9 2.3 2.3-1.9c1.2-1.1 2.2-2.1 2.2-2.3 0-.8-.8-.2-2.6 1.9m21 4-1.9 2.3 2.3-1.9c1.2-1.1 2.2-2.1 2.2-2.3 0-.8-.8-.2-2.6 1.9m12.2.9c-2.1 1.6-3.5 2.9-3 2.9.6 0 2.5-1.3 4.4-3 4.5-3.7 3.7-3.7-1.4.1m-11 3.4c-1.1.8-1.7 1.7-1.4 2 .2.3 1.3-.4 2.3-1.5 2.1-2.3 1.8-2.5-.9-.5"
     id="path4491" />
  <path
     d="m 412.5,41.2 c -47.8,0.4 -135.3,0.9 -194.3,1.1 -66.00001,0.3 -107.70001,0.8 -108.20001,1.3 -0.6,0.6 -1.3,24.3 -1.7,57.9 -1,80.3 -0.8,102.3 1.1,124.4 0.9,10.6 1.6,24.2 1.6,30.1 0,14.6 -0.2,14.4 14.9,13.6 20.1,-1 49.4,-0.9 88.60001,0.3 48.4,1.5 230.1,1.6 248.5,0.2 7.4,-0.6 21.2,-1.3 30.5,-1.7 9.4,-0.3 17.4,-0.9 17.8,-1.4 0.5,-0.4 0.8,-19.6 0.6,-42.6 -0.1,-23.1 -0.3,-56.5 -0.4,-74.4 -0.2,-28.3 -1,-54.3 -3,-96.5 -0.6,-11.9 -1.4,-13.7 -6.4,-13.3 -1.4,0.1 -41.7,0.5 -89.6,1 m 93.7,4.9 c 3,14.3 5.7,216.4 2.9,219.2 -0.6,0.6 -8.1,1.4 -18.3,1.8 -9.5,0.4 -23.4,1.3 -30.8,1.8 -17.8,1.4 -174.1,1.3 -231.5,-0.1 -24.2,-0.7 -59.5,-1 -78.5,-0.9 -28.2,0.3 -34.80001,0.1 -35.70001,-1 -0.7,-0.8 -1.6,-10 -2.3,-22.4 -0.6,-11.6 -1.5,-24.8 -2,-29.5 3.08447,-18.77325 -5.59979,-170.644359 5.3,-171 C 132.1,44.4 357.3,43 357.7,42.6 c 0.4,-0.3 33.8,-0.4 74.2,-0.2 l 73.6,0.4 z"
     id="path4487-4" />

	 </g>
</svg>
