<svg fill="#000000" width="40px" height="40px" viewBox="-1 -1 34 34" xmlns="http://www.w3.org/2000/svg">
<g fill="none" stroke="currentColor"><path d="M5.365179612253054 4.663879482933585 C5.365179612253054 4.663879482933585, 5.365179612253054 4.663879482933585, 5.365179612253054 4.663879482933585 M5.365179612253054 4.663879482933585 C5.365179612253054 4.663879482933585, 5.365179612253054 4.663879482933585, 5.365179612253054 4.663879482933585 M1.9628551898483015 12.250826246369076 C3.6871308290921587 9.842333706594408, 5.493182537155487 7.014809417386383, 10.5923012426188 2.7218333338283007 M1.3878740906035834 11.981731069416972 C3.247027560586219 10.028271006072835, 5.085645737441366 7.687820188019581, 10.00217911077979 2.0209572555969784 M0.5755439644271683 16.844963155545788 C4.468126007536886 11.336710801155458, 8.217109350030348 7.002103429135364, 12.918941311529213 0.8540508041542116 M0.8654322848093519 16.620954835071196 C3.6764346034723943 12.860763140880694, 6.636688611431813 9.274019010492127, 13.737370953048067 0.9843128130421455 M2.053235707503048 18.594278022696106 C6.626477575020181 12.50199323915242, 11.274801000616769 6.613001500987876, 16.56181055664036 0.7896118687094253 M1.4772551824773001 18.117983000931506 C4.689663791411943 14.603973673170987, 7.876247314572215 11.350653381821699, 16.74122315236564 1.1751253100664012 M1.244691006294778 21.039706902219233 C6.730436642068165 14.05715348669692, 13.237605609981733 8.055261975958885, 18.552716363066256 2.130062320226715 M1.8660191322795305 20.8568945798603 C6.816268477816288 15.230263748235352, 12.03481365533056 9.436007887576316, 18.479672414982346 1.4694330175090335 M2.315221606968041 23.339575318400474 C3.244907272954126 22.090383000760127, 4.9579752554055885 20.945063957954748, 7.7789387835569785 17.095787126332993 M2.3140527979852084 23.192220321136737 C3.8465214704084785 21.945253814430206, 4.829776082297304 20.28991184892587, 7.604205098453496 17.37367331828429 M8.37491005756528 15.214204318510948 C13.078108929087515 11.418355065018842, 16.311431303240695 8.09749741813263, 21.219517833402243 1.635172153032082 M9.146548213021502 16.05545284606866 C12.811567846602301 10.953717417226468, 17.152137829511936 6.070898129962329, 20.79439025297749 1.9362464688361962 M3.612597230089813 24.668800151801396 C5.122122702072354 23.120486799500593, 6.333584553540849 21.789117926497163, 9.482003003516082 17.984052376072874 M3.75888434099409 24.712711388447303 C6.156623559851835 21.912908757845507, 8.509731802976841 19.40122743351967, 9.839774796391467 17.64663940835099 M12.71926080544899 14.318462547665613 C14.642199870017674 12.102725642942376, 17.07174086794772 9.063950571181286, 23.2253671409794 2.4001962181781886 M12.946147256053566 14.212529663844677 C16.014163813307224 10.88202293920165, 18.432775607199503 7.4681612176903585, 22.915508144129713 2.7949714901487863 M4.4337818646411025 26.93030960549473 C6.768068637922551 24.149525560990483, 9.089724449635256 21.780730717648368, 12.092668287481407 18.04515754063616 M4.705876094423029 26.68171395905639 C6.912675720283444 24.31077659869199, 8.847286860859993 22.026740362553586, 12.084486176391144 18.351653104674593 M16.925666841878883 12.026592091015111 C19.228496318404755 10.103697043705926, 21.8936869746116 7.749736635005879, 24.905035256821314 2.9909232269339294 M17.33974127952185 12.513562740833278 C20.354425089292665 9.095497586816956, 23.223663613562955 5.551079862995046, 25.050845955691102 3.2921070504911487 M6.572250619177105 28.23736516373153 C8.538572071271002 24.897494714240754, 11.167374201940158 22.112105383810338, 13.548848149328444 19.28120720979499 M6.443495148774624 27.774855486595015 C8.621055966730564 25.330150030730376, 11.254437463128085 22.454018601183954, 13.46774449226546 19.854441605455428 M13.456189933944806 19.635875504968546 C14.535252702879077 18.646108661106208, 15.601544214130033 17.47182151298293, 17.239233266462385 15.380278072504092 M13.620509559142034 19.739627945900157 C14.89777169627634 18.015047673850002, 16.38415098155872 16.39901701123942, 17.360238154920395 15.124811753484499 M21.64876560951633 10.735241376347975 C22.593449925054756 9.202647551579197, 24.026831437576604 7.463621307437817, 26.70515885422993 4.6074955384013965 M21.50114195843589 10.487141279901822 C22.65677395150598 9.117831834233256, 23.87673886721074 7.764303718498647, 26.475912451355615 4.501374111586468 M7.688763738122434 29.326986125207533 C9.286877609338042 27.38795965911463, 11.105431320416457 25.240527068551025, 13.162999242961378 23.097432499937582 M7.949784159174491 29.169413666347197 C9.705962120430943 27.049901267127193, 11.59608228583157 24.905886746742958, 12.929729669032925 23.424768528270473 M23.45516369919966 11.17934882935969 C24.832606952893624 9.862568458200808, 25.795361946258975 8.261108109465095, 28.39738144532206 6.1136014379426475 M23.499366254633905 11.054656249358503 C24.860960884465637 9.744458381805904, 26.174493978230693 7.910164775202935, 28.16155554089695 5.97580138962817 M10.382879130129822 30.00895209591059 C11.682681928761175 28.22862174258249, 13.382094294729127 25.52175179084322, 16.93030844324811 21.727725868381555 M10.004657984108311 29.97585090373201 C12.146746742747702 27.3542853660896, 14.428116876063635 24.65016266430601, 17.001197518923636 21.635129004035527 M23.441443677920393 13.867440697889894 C25.729202244120078 12.044444769003842, 27.599144868244323 9.50843536507742, 29.28394429421695 7.974665753336806 M23.733169534576383 13.910969270163235 C24.767808895162833 12.75577834732208, 25.900997229708775 11.55709554745921, 29.026710925223377 7.830840991143876 M11.61515961722712 31.488336880046443 C13.9674656389674 28.305928425586288, 17.11773831807761 25.113826229929874, 18.643681034885336 22.444018045570267 M11.364691732529838 31.11775816140908 C13.42256953818161 28.858416043433046, 15.18163244876777 26.60283798375591, 18.83562924159096 22.71509600784999 M22.35004674734276 18.28423606882638 C25.67528199662023 14.48043859861477, 28.621580690884596 11.770325424874661, 30.098367714308345 9.560588638877089 M22.50641468169895 18.57889382922046 C25.123812967995033 15.44756770643374, 27.55163510836958 12.952897126951989, 30.623759899459095 9.080997025820952 M13.394170318341088 31.443840757891973 C16.029030033168528 28.817378350564525, 18.653729424023727 26.090624552614486, 20.065405789823046 24.231057253820047 M13.836514556977106 31.876185892002294 C15.626058080767336 29.45493979469861, 17.42219380477316 27.160059644671055, 20.303425250532804 24.067828318857647 M22.20347961310437 21.817211026525342 C23.596391045451487 20.14415831817866, 25.403946519184093 18.09038319029297, 31.423501084747702 11.418333895190823 M22.37346428863307 21.708386934230933 C25.681474462758903 18.448222318490245, 28.686060032182738 14.528079098630629, 31.612009397201128 11.303463972459419 M17.109363119707897 31.59572660817092 C21.191398478269303 26.693894102152562, 26.2777034111717 19.82977480470984, 32.16045400245105 14.440234607468208 M16.739547782448962 31.380168808888122 C21.34561339610297 26.252701640675305, 26.180585093396694 20.649376815770225, 31.579736665987877 13.925579027276061 M18.505389414204085 31.418072870246675 C22.938316030967183 26.75566018055793, 27.561469539045913 23.088908114724983, 32.109176062538765 16.50587716444575 M19.248379681768615 31.061619821066635 C22.228442104310286 28.623860274905102, 24.823698843370902 25.18498512168774, 32.125407806808674 16.442241358031108 M22.572173502267347 30.439537930706933 C25.35406477905408 28.315674684504256, 27.345117881191275 25.40665585733644, 31.012321760012842 20.344896389092764 M22.59792541255782 30.46756059582699 C24.969501302261317 27.798823232096794, 27.403473884944408 24.595407864376668, 31.15848786417909 20.63723383749524"  stroke-width="0.6"></path><path d="M16 0.5 C6.990307318430554 1.171148007131361, -0.19725476180317725 8.008608118715724, 0.26152502944315315 15.661687086673489 M15.974412662794094 -0.2855511622972229 C6.939039217151754 0.31658867444465866, -0.22321455204692497 8.034634722514433, 1.1946287309888945 16.161821785408538 M0.5 16 C-0.18201080756351828 24.812806347285605, 7.880863734569243 31.845076341078133, 16.22539617989146 31.62738565495346 M-0.28951266756579686 15.919944148761935 C0.7236395153630395 24.40839186156064, 6.833533629738514 31.024145699828097, 16.501843932921638 30.642450218173845 M16 31.5 C25.054961979655033 30.773545554770713, 31.67253404174482 23.791441520511487, 31.465235310313652 15.909318625258276 M15.52246043325918 31.807251797063195 C23.889587434363897 31.964061816748963, 30.724667577448553 24.098918071939778, 30.64285541656726 16.333993142344735 M31.5 16 C32.08898805867848 6.676998124665618, 24.34390951342581 1.0344956267634267, 15.864475156697589 0.7292867997341934 M31.051923258356023 16.528009170719898 C32.347637306102236 8.330309013955603, 24.428785495529493 0.5033682774141803, 15.141549948668922 1.28169457579392 M16 0.5 C16 0.5, 16 0.5, 16 0.5 M16 0.5 C16 0.5, 16 0.5, 16 0.5 M24.01250222511681 11.114587918477579 C22.73240467515032 14.184851623890884, 21.99358264541678 16.847857835653645, 21.450154303381552 22.892195952256174 M23.429392759917768 11.361431891896622 C22.668722061565973 14.760621115153896, 21.80560863655297 18.762316885758757, 21.221039269171587 22.95808403769771 M21.069 23.107 C20.783271104561273 24.249895355692473, 20.163861769142738 24.106007317378157, 19.343149600610282 23.04919019318682 M20.983122778275803 23.36135585618105 C20.043212480269883 24.29906401508232, 20.91691810752498 24.866776549470202, 19.20705187174787 24.411640616166196 M19.510534382137035 23.755307050239605 C18.37107285370281 22.786564547151233, 16.717694031015046 21.769785512229756, 15.98382763730893 20.78593163576523 M19.66052780077766 23.78390298911781 C18.860045173783508 23.14866287304976, 18.050166665314524 22.531568868333554, 15.807689182064017 20.97912579909861 M15.874524399587806 20.87224788572911 C15.10364461269347 21.57527200654689, 14.514368817609192 22.099138161905724, 14.01266891771338 22.78392316457916 M15.80910352878894 20.90305342197886 C15.202666988808785 21.42609666765848, 14.659805650331313 21.93719145121587, 13.918565695911854 22.754963388044498 M13.925 22.706999999999997 C14.122664384411289 22.700230326743288, 13.598206956574376 22.356639454635175, 13.507095620568412 23.4727563078496 M14.44968742338584 22.43974178604735 C13.980611388680735 23.82537397219041, 13.032763706743589 23.058796155803552, 13.712511928182373 23.519617382568995 M13.175615972302419 23.190487749532146 C13.37693170577243 21.846785969313782, 13.446819870060851 20.628084037090325, 13.572523567877825 19.289610602138016 M13.219399381766435 23.034213578408597 C13.146306213664472 21.973082104609325, 13.299746522424293 20.940468032587596, 13.485476257609495 19.17499727567359 M13.533970315123337 18.927856996278205 C15.298668404738095 17.153465074033946, 17.467495192467673 15.4468270248669, 20.47249117284377 12.650720375590756 M13.30656889984716 19.195325705492486 C15.504842740756898 17.17167272991962, 17.98719237138529 15.07402614134741, 20.548687600770254 12.617048053724366 M20.6 12.655999999999999 C20.90607671535846 11.951694859215833, 20.878564811252307 12.816158377777782, 20.57009470827474 12.659840711618033 M21.064961341977558 12.444372773658959 C21.243484058863057 11.803385492206122, 21.29895323599755 11.987326945407556, 19.69193488987571 13.402082904235181 M20.361188030064195 12.49452813112121 C17.136340883068815 14.382834212828696, 14.05182926945131 16.11975720404623, 11.465376627842149 18.464673354051055 M20.269867598486293 12.35277551069917 C17.46825014411224 14.229864491855077, 14.85831967226008 15.629876023152883, 11.324853898030558 18.191205678813503 M11.186006067792523 18.16912204081754 C10.041590334518066 17.831710503958245, 8.665199616931131 17.366382576835406, 7.5494238749266875 17.050432370021827 M11.280936366613554 18.039193782632903 C10.141178156827477 17.737734669961473, 9.108048795905518 17.534673636392395, 7.46526739510382 16.82229622411412 M7.418000000000002 16.892999999999997 C6.025714547449842 16.424617541316373, 7.352375828648984 15.33145042518249, 6.8076179751966395 16.2982079849256 M7.25805505690774 16.25259781659536 C6.42671823187784 16.00854264170489, 5.680044989691787 15.49746568509891, 7.692942112037955 15.02129317259596 M7.697225020093007 15.653007869533466 C11.35889783753183 14.926158488599524, 14.3499918933102 13.270718779386492, 22.369124204131033 9.41237234703548 M7.630292331463166 15.444537957024318 C11.773103810095948 13.94742142010917, 16.00357758363328 12.246839223885013, 22.392004376581703 10.191532410230252 M22.537000000000003 9.898999999999997 C23.879871843269388 9.017497245719069, 24.492743194713483 10.322318307589873, 23.492312783391817 10.52411205892965 M21.939490498328823 9.649652524375897 C22.423979370830825 8.931871577818631, 23.260147430569845 9.870641043090124, 23.865032828474458 10.936258482213658 M23.612003167555727 11.117949563311118 C23.61224091873078 11.118296045333517, 23.612478781204803 11.118512003315864, 23.6129668035687 11.119040816445194 M23.611998984892356 11.117990652212058 C23.612257859222765 11.118277989298292, 23.612515469176238 11.118536870533257, 23.613019243421704 11.119026038548215" stroke-width="1.2" ></path></g></svg>