<svg width="300" height="36" viewBox="0 0 300 36" xmlns="http://www.w3.org/2000/svg"><path d="M0 0 C0 0, 0 0, 0 0 M0 0 C0 0, 0 0, 0 0 M-0.47893173466087235 8.116384548835198 C0.8455946620271644 6.264581610926606, 2.9325602211689135 3.3160167105028178, 6.526701105808012 1.21824701238888 M-0.39836068017990245 7.361755399733523 C1.0035777980429903 6.251875774045186, 2.3602113387735213 4.23073310101068, 6.427225214478664 0.4174966534273574 M0.7294218347477743 15.181681837424119 C6.09014740675266 12.201650915433078, 10.820789114639147 3.4077506858808775, 13.501707939939724 1.2222079570137891 M-0.2201474520307949 16.522639749109228 C1.55765366285648 13.03088103414485, 5.957482759121299 8.583800028074853, 13.108851936223136 -0.32994744640653995 M-0.22747983280458506 21.83133780024619 C5.313814616861 14.874786052879482, 11.045203271890125 9.245869850901828, 21.4321065457531 -1.6775222716515081 M-0.4070098591957336 21.7374338731137 C6.8910037142750955 15.395339676690117, 12.70298218394406 7.013176149859758, 19.5548933638253 -0.6350271084939259 M-0.7436273274431571 29.50577246560549 C11.101318907468633 17.28547614873078, 18.338043663914664 7.019602815715277, 28.223844720658274 -0.8549128701898514 M0.9514484806497947 30.5101049204806 C7.107041323796533 22.238213162334425, 16.09451784653045 11.435014489172598, 27.24680919633469 0.6632925061520876 M1.8013781174910832 35.333557288146196 C8.85243220356171 30.184017243494587, 17.099488551249614 18.432773328633626, 31.94692192333325 -0.7461919735115146 M1.603739127133565 37.10185374038535 C13.818907068431274 21.743714470651486, 26.805960734895898 7.3503967386728775, 33.021383560398064 0.5914907821524764 M9.28908110562868 35.073666231844186 C12.844856024435062 27.79335250654496, 21.7012211195632 22.791186679875977, 37.87112927548452 -0.5039277258584534 M8.151316351854872 38.03123681633508 C15.697667026572717 27.664911063311507, 24.563113679105307 17.49579519217905, 39.69448912069066 0.8991602197965349 M13.24022761372358 36.31582905357135 C24.62876769805571 26.479986465737852, 31.376148554145907 15.314228118968103, 47.27740373579009 -1.400285762140939 M14.11413267453641 36.58701954973293 C21.292536209149457 28.563884102579657, 27.817382483278948 20.086716402049195, 46.559941253859236 -0.03175104629475811 M19.49882751348227 38.02075885908573 C26.103676453648667 30.364759791438168, 33.01125562916974 22.771608331725936, 52.36465101292795 0.562099532730759 M20.30220138485342 37.68090381586819 C27.85498663641645 27.24094823616145, 35.86310968856651 20.172497651191215, 53.983820961550535 -0.4853105065004222 M27.795036513582758 37.15457126347708 C32.1581347665659 30.892349528483244, 39.29036515434586 22.316435326599297, 59.15656847860461 2.0392537645146795 M28.065978484452657 37.79444712436187 C39.470682543526436 23.402191634111958, 51.51680718716672 9.569095640845216, 59.99879778343981 -0.7099725355311683 M34.65197907270304 36.0779131318351 C43.47656471614647 27.41186197229564, 51.28292769216975 19.624734732626965, 64.31299934149807 0.9426050483005568 M33.89068559998087 35.68069135983491 C45.09135566195875 24.654589622182154, 54.53334306172198 12.968363171873207, 66.80298397117382 0.9906641262339875 M40.292571312549626 37.93509131991785 C51.34875658044357 25.777361946426165, 63.42288254940583 14.098202668610483, 74.03675556028632 -0.17188725082188938 M39.99063289611331 37.065791522576625 C51.22700881500115 25.227544740370508, 62.16660127008174 13.698387316849171, 73.3542574013993 -1.0405148865839848 M45.450875191800506 35.250815192815054 C52.187387100097126 29.105744890257835, 59.8640589875602 20.710782610647115, 78.98044075667588 1.2853962229053906 M46.80807324949673 36.55825824720799 C57.03922171411282 24.970660362849458, 67.56299942187452 14.338066100777251, 79.9645844887915 0.8874891763042143 M54.27892141913368 37.319325365616436 C68.17609252538419 20.677177058429095, 80.38142259962385 7.257179182114232, 87.71386341833522 -0.22023224565064936 M53.60752516177787 36.350586543349976 C63.03146563545947 25.51416707763991, 72.82398109730514 14.043498963697555, 85.45493338898768 -1.0316788807032111 M61.253532366255655 37.59352244408005 C72.49179122682573 22.81058557731847, 84.67355591506687 10.707136197422013, 94.35056466697087 0.814909199268044 M61.07009567263199 36.920884536291894 C66.86816610970983 28.908218815163867, 74.74862953091784 20.177437853869243, 92.4693017666631 0.373448442683042 M67.98767624184441 38.281709543295605 C77.82361695391961 22.827882211648216, 92.72700038365028 10.32539291405789, 100.01523146126081 0.7749049227511762 M67.79233453370583 36.942115985654695 C74.14541971339736 28.16133174629428, 81.65088884352821 19.59128162882473, 98.62962999846448 0.40669428108392935 M74.13729000457799 37.736721028352854 C87.63155746651239 20.77213349697331, 99.30688680081099 9.686609201685492, 107.75051950988305 -1.6866294601114973 M74.88055712164616 35.983729026059386 C84.32678761068713 25.35737436315107, 91.84302715917462 15.916465245929423, 107.13012408603859 -0.7941338558795437 M80.30810227616286 37.84505125500982 C89.89605023361747 26.620167813142793, 95.9441721892421 20.41165044893383, 113.4238761845441 1.7425816564380483 M80.54516735112821 37.21328490779524 C87.59661534856563 28.445221499021564, 93.89538294370644 20.736205119699598, 113.3315785690607 0.44438465708189767 M88.86698751527702 36.62359708835624 C94.34485327888252 30.21364800727486, 98.82953031122933 23.22618413351703, 118.53889469392192 1.630216387489547 M86.59951184879874 37.305700515483245 C99.36194240135933 23.396600071639355, 111.83283654502179 9.936974543929214, 119.2602306991775 -0.7594739204107626 M94.84878893059847 35.60878664348185 C106.5991077020033 23.881774209994518, 117.47954143639899 6.6916760165324725, 125.14213699669455 -1.811515901867267 M93.0542028663045 37.14487710874438 C103.69946101489671 25.675825964088787, 110.98254619187935 15.33340911327397, 126.20208335303579 -1.1409489537365403 M100.86314139383373 35.24570802614468 C112.92152872847642 24.202861053997154, 124.4343891219119 9.679106852901665, 130.72995671456846 0.663254144125645 M100.71144119332072 36.52532906286794 C107.24315231227494 28.94175241491833, 114.70303851591908 20.583115361296805, 133.2972279453108 -0.5871666926061465 M105.90582561366077 35.484851851434456 C114.44468120413217 29.932937323070476, 123.4412908261862 20.236634328987375, 137.0598533062217 -0.06920160944200404 M107.66387033149417 38.06142638747488 C118.76586028682496 23.293321391226506, 131.22531666749086 10.795082901867058, 138.0386986026493 -0.22789775239861854 M112.26559104875763 35.171239984440916 C126.03315140391088 23.046306197552664, 137.26617544811472 9.342292799929055, 145.05729498033222 -0.11308004748046585 M113.88889940747161 35.889023467186206 C124.88712382583154 23.93305084060698, 135.90836191455904 10.367570790869355, 146.86679507669803 0.26607162650704197 M120.43097882083077 35.433554280922095 C127.77014718128098 29.17473235992678, 134.41227527049648 21.63993543184726, 153.72254160860655 0.8360819357682914 M119.84302608592827 36.367087802291195 C131.8160427656071 24.24343342440774, 144.5353186617095 9.465828165944366, 151.76340565713224 -0.6154316805998832 M125.90167588855822 36.28087910596775 C135.50541592753916 27.648266555225085, 141.77009145906152 21.43835161992727, 156.94199889972265 0.08814995539401593 M126.96069074351091 37.986942527410854 C138.9615188062845 24.996842491186648, 148.61264797191302 11.198707102074472, 158.75086134559865 -0.3127251640983957 M134.09533796061797 35.99183007466756 C143.16769002793097 26.12289435517289, 154.8736958602839 11.824132447722445, 166.39504131235856 -0.6524791235135865 M134.24859938186628 36.073895152166116 C142.95760763046286 25.923552012405093, 153.23128471267637 14.172619998491683, 166.48625876874405 0.5053580606324601 M139.2544124087165 38.50368279277961 C148.6017187675061 26.943486516615934, 158.40478257410592 16.15214499272623, 170.46083496822075 0.1022515548035301 M140.8800465406696 37.48886630184631 C146.85878097546725 28.861899088901342, 155.6683261717004 20.023793422548394, 172.85578309124367 0.6430979938819803 M145.2574924415318 38.00911537539362 C157.45247917873945 24.957700745206814, 167.17327695253542 15.590804151020091, 179.02969182598727 0.22080135543512824 M146.69376947156766 36.53763223607241 C156.61104688619753 26.10459135271877, 167.26457885312732 14.146666848943088, 179.47356218974429 0.2871302702711773 M152.52614001774197 38.34533718759929 C164.7678793198145 24.616363857483904, 175.81078764015598 13.726902063596064, 186.40989259433607 1.3411608934708852 M152.78827105120723 37.67245358946537 C162.21642249571818 27.923319816724945, 170.70732234920814 17.789058505286313, 186.27598956589262 -0.29192510057902155 M160.93170875905338 36.383217585154696 C169.77773861604604 23.37206753892922, 181.7872280983121 10.487881707742446, 190.23450964497368 0.25998077466886116 M160.1161426942635 36.19370411231451 C171.5897808393552 23.819677409827317, 181.44047511833259 12.704405813798004, 192.11604725936394 -0.03783499337930607 M166.6066981241441 38.62402843314955 C178.6038440142036 21.49554308160789, 189.9291354580875 9.878043354194265, 200.27276118657807 1.5293141141187903 M165.98291852738322 38.159113189240784 C175.82502712257752 25.620367065093163, 185.76092639166723 15.005988133923843, 199.26216002180496 0.8004893514913078 M172.85157632169214 36.5885728466736 C186.1801733557203 22.080576229995934, 197.718778108062 9.299445018655188, 205.33683417782726 0.8457452769104208 M172.64139830221322 37.08539457986521 C185.68061861541952 23.646594795307067, 196.8573750315112 10.73764174437434, 205.99251822986247 -0.6293789313461815 M181.04160322340394 38.20631393148486 C189.05842027010186 26.38525399637012, 193.90794328637588 20.81298099669838, 212.18870724042773 0.43951861880175613 M179.88597030842865 36.649875159477034 C189.4845689025778 27.380029918869013, 197.9748679042566 17.902580837336192, 211.1894007982117 0.9182464083974793 M188.09424356694805 35.6574077224503 C197.60704729041078 26.698495030460656, 205.18163799951134 15.365238378926936, 218.35150483305753 1.6712810048825588 M186.20752457666683 35.84502785747449 C197.8343465307793 22.896204620852473, 208.43723849247783 11.563599855755523, 218.83802935349942 0.6964072553433027 M194.09569472403098 36.53537982532798 C207.01114166289346 21.252291276624092, 217.8311744278975 7.437328866758055, 227.01632016439464 0.4212105502425345 M194.107480646603 37.45364829914688 C204.8393787604771 24.10963623904891, 214.87366128144384 12.519806085161054, 224.6208911473724 0.6671298691122445 M199.76829990333067 35.68915835520761 C207.91230825802728 29.76471599708897, 217.03736386811147 20.04344272644449, 229.9490381061455 -1.5218546393602566 M199.25270076988386 37.20338774411516 C205.90078316540547 29.2523409046765, 213.81453384637965 21.237417784473124, 232.5120619695058 0.2030536249936148 M205.37737106352517 34.612202677178914 C214.00169901138318 27.298740367078928, 221.4358596965762 20.163041666751713, 236.30168936698817 0.1363260511638913 M207.0698128231562 36.468381827000314 C215.55896853138177 26.853799446580936, 225.07406469378597 15.763192791593358, 237.27606032154642 -0.003326467391630672 M213.638011826321 36.83163214699994 C225.55106254953415 22.753229721398174, 236.03673427501025 12.446326201667006, 243.51927340560064 -0.41547551309527364 M213.3395332210953 36.97087929809163 C224.2188431517712 24.210561757862187, 235.9066471328174 10.457243813744476, 245.06217033014104 0.7619689765775064 M218.52647165039608 36.50496862976043 C228.76359436005816 28.285350089359405, 236.10793104410016 16.023953758712867, 252.2465813436894 0.29517252362029467 M218.69552109034785 36.69048454201011 C228.89469472785666 24.945034186006005, 238.45540575647075 14.937929127158963, 251.99876465996488 -0.06396754280967798 M228.18696874442847 37.80926524055009 C234.65617381052957 25.945520143208867, 247.0613108161321 13.776924749912748, 259.79560916892297 -1.1336050538224782 M227.21870118256064 36.56578631837671 C238.48214907022063 22.73343290318931, 251.0816345845853 9.337788898145938, 259.3482177166552 -1.1663974711550082 M231.83851298012468 38.330235085126986 C245.51079178990892 25.374278420951985, 255.82643337522313 9.78419197116235, 263.7720855030078 0.18468611033452476 M233.0315867874089 37.195986502480736 C241.88323337985324 25.745932084250093, 250.85324650281106 15.137454436509149, 264.82093341488724 -0.8777595581691173 M240.58626006616265 37.658993778580836 C249.73110866326525 23.75367387285055, 264.5219383627684 12.231546890647625, 271.542884804622 1.2669428811809382 M238.7971339065394 36.75014260394316 C249.9524155972869 25.082844485229064, 261.2233611686778 12.79697061914321, 271.7302583813078 -0.0231369192311206 M246.32833446122044 36.781188186001344 C253.87665840400857 28.17268919380325, 261.86863362422173 21.093028586919555, 279.1428502824435 -1.350406626193461 M246.31306416659885 35.66879650738494 C256.6589548133446 24.35905620960976, 266.4521895452065 12.70309142458704, 277.58680486756356 -1.2186282947199913 M252.6626522870045 37.4661251631466 C262.8418227768147 28.7226770375184, 270.0354890588893 16.353883910211458, 286.1816168081787 -0.22227430603064136 M253.10618773226253 37.36560321309541 C261.34233727567414 27.38674452934776, 270.55703190316297 15.045627432900936, 284.6927736633298 -0.16971930934644774 M259.69827550219287 38.863514075106295 C269.24908511780006 24.80535595658793, 282.1236391623319 11.823010686756664, 292.65496509050575 -0.3981695432408685 M258.9312574801772 38.13657335569552 C269.3826912378151 25.743319370925644, 278.9597407294163 13.16363253530222, 290.6408082702532 0.2379600465104943 M266.96223481546355 36.89259553697018 C281.08464527431636 23.43841181824699, 290.03963914892154 7.962236967875928, 297.8516445881026 -0.03307047273440844 M266.3652919119896 35.861701944806256 C278.33799746702636 21.317739708009555, 291.6009792940578 7.869965550402316, 298.90831781498065 0.6402641574718189 M272.30635259852306 35.63127015449628 C282.7690714660885 25.78704886142365, 293.14175098478404 13.703101871118928, 301.29201933570425 3.265833501915097 M273.401898067375 36.70659710571691 C280.749636368375 27.93683523204638, 286.26220586064545 21.38572942989947, 303.4836228752158 2.160289264495134 M280.7185970600493 35.91284104277436 C286.94619330840584 27.747645222816494, 295.77426240072316 17.022628190611243, 300.85154017602656 11.526465066688473 M279.95012569798007 37.03172259804849 C287.5107854454274 26.586702422493083, 294.81261551814447 18.739228608708462, 302.6769277116433 10.808196823092516 M287.2299051587204 34.7151425668941 C288.5697969901243 32.116603543102286, 295.8211412724831 29.281629219498264, 302.8842169916908 17.499182355338775 M286.42879018045164 36.09402655642192 C290.9610001798185 32.153031179916525, 295.89685084007647 26.492766646521144, 302.93129249985316 17.881036861548267 M291.95630999479863 36.6321534553188 C295.41663762524354 32.37568150378563, 297.7767238874755 30.2992849217131, 304.2794338676739 25.663053318879676 M292.38814192537643 36.791274374129166 C296.0658494022847 32.54050148929332, 300.68697508545523 28.07425834044514, 302.90944556776765 24.557828544101785 M299.29685012565704 37.47397867564753 C299.84038610440723 35.95260586019606, 301.55597523144417 34.58791558232814, 302.2555646840644 32.5038396687944 M298.8883147697687 37.26381459117577 C299.5841369868059 35.85756555723695, 300.74744871592054 35.15396746384494, 302.55761936289935 32.98524171186132 M0.4529430169641573 14.504223477886589 C0.8796630210620724 10.39208270409775, 2.9134629164270236 5.743460847427066, 5.198287333188393 -1.0523335235805789 M-0.8818732352348571 15.418239795796234 C2.582089560735775 11.114162560226411, 4.393315173791858 6.955419223425715, 6.356630616176448 0.16761379460075487 M1.5591726129885668 21.331548681479404 C5.202943820801638 16.043569457779487, 5.660956840140466 11.849871422704016, 14.708956389265285 0.312105351194087 M-0.4633256984863525 23.31555547564895 C2.983184390203633 18.015186535460007, 6.805794053197329 11.974272672636534, 13.703220036389457 0.41261568206483457 M0.44592962884804166 30.609609598059407 C7.259736604798159 21.58797221076071, 14.17406387500155 8.692523572730686, 18.470859816856006 -0.018372863311054033 M0.8287206693132774 30.31592389545237 C7.538669551844427 19.928621240235863, 14.87824285619629 7.09881516922141, 19.9874763382592 0.5777317902411205 M0.23942063896782884 38.08411149213332 C9.502369420913885 27.425061510664214, 14.28809232394551 15.178459253710873, 24.552843047913523 0.22334206793575895 M1.4888791289073993 36.694879365137396 C8.551926928959642 24.180604808570084, 18.403672334188187 14.372861850623707, 26.95425255284867 0.6615547923383058 M6.051658996978473 37.47105957767701 C12.899022744045304 27.80978031561687, 19.55167496593032 20.334075826435278, 33.29834304111584 1.702584510024252 M8.534619576895308 36.46121274321115 C14.598497766319333 28.04042074160611, 20.598925370340297 20.402108949310076, 33.86611405680462 0.5772828229773665 M15.508859429633919 37.44221486156238 C20.738858178410776 26.210030461037356, 26.136207097969642 20.456598368020167, 40.00058841816946 -1.3816511812875305 M15.464410157999698 35.83142380607677 C20.68540255796946 27.751149670335302, 26.585078777070937 19.898270253849606, 40.089714764802295 0.8362271324475969 M19.435500558640655 37.16532169954746 C26.780416376112743 25.92338886099908, 37.85599307066114 16.900741253521893, 47.71395363775237 -0.6999681409098599 M20.629279786895808 36.08244880402356 C28.848920268646225 27.063956601208304, 34.70211262421014 16.083183420473915, 45.59465130348845 0.4570546053699758 M25.41720684267669 36.938526956722015 C37.03665651733014 24.49719516236255, 44.781899920596445 15.242614802535826, 54.160781908542575 1.5965617462469943 M26.483200090230397 37.498579621672505 C36.777687302272746 23.989358367525, 45.86705099636178 9.834614679820262, 53.547785924509824 -0.3325834986345164 M32.70757149042002 37.57950874817574 C40.9289653723231 26.52306907785698, 48.55957306761873 21.03018477615913, 58.63820810224658 0.26552658594107115 M34.17740831965021 36.07309251864457 C44.37204176662863 22.300585597236292, 53.81654403680169 7.346310408983033, 58.90756941754168 0.6055771957234093 M39.13497937357715 35.81460517966669 C51.55921974722689 23.888490351948086, 59.04162563041852 12.464677244137121, 66.82951292754238 -0.43008300673789535 M40.154730264830505 36.20987687022906 C47.49907035650632 27.70836466062665, 54.14438578214343 18.19329783624215, 66.92289528423076 1.229656698064737 M45.91396120082608 36.8755568662846 C55.10224782518446 24.68266607372879, 66.15544630334048 9.861770101271766, 73.71094584310798 0.6672548332998147 M46.648434427418024 36.63267768604695 C53.350109294030304 28.180849825535088, 58.61200840841959 19.97064001114567, 73.72742265122382 0.019259393010436554 M52.5520164308448 37.88863567311918 C58.52356163643214 26.84906248581403, 64.93801836819652 18.255913457257822, 78.45854797064987 0.9987219618122509 M54.27655493405952 37.08672435071921 C58.804606750078975 28.968664062669024, 64.91868588298186 20.471616217035816, 78.9338991831961 0.6771027808498076 M59.75643618533982 35.2637734559285 C67.88229081824838 29.510588262123477, 73.62131545308885 17.94559194881044, 85.91556529783657 -1.8688068363336328 M60.63621444943024 37.04035936453515 C70.66077114975816 22.890819707784182, 80.67418984865968 8.657608011199304, 86.78907428578486 -0.716449584018946 M66.24565742298913 37.29130457980226 C71.5148672914604 29.433679524770838, 79.0803914414258 23.62966745542156, 94.21897644637455 0.9199127946202168 M66.80247835017693 37.594280862115724 C73.88524351683087 27.542918759058693, 81.00256253095546 17.806735487636455, 93.48772687366535 0.771788548693479 M75.65608585247075 35.53109465983021 C86.1548251699286 20.00651267744967, 94.55176264145678 5.7128199181180115, 100.26690587494184 1.3505277197635053 M73.92267763794636 36.18317135308194 C82.5146553022893 24.51955895489807, 91.13077136575214 11.952552337570971, 98.32757857348432 0.08235906360803824 M79.44891884549116 36.20166930177038 C88.28152558421809 24.424286945882645, 98.0478945845019 9.492685530990883, 106.62544679221642 -2.071783945814012 M79.81073185241377 37.27732646272307 C87.6722744523117 26.31250635842417, 95.5533082035701 15.76344356277108, 106.3036166368885 -1.135211779654263 M85.72149961072837 36.776956620712504 C91.793476296547 29.172369245625973, 99.92291618312082 20.68152060942262, 112.43548406990482 -0.9331840963543101 M87.4460032452259 36.291897450660095 C96.10558196311248 24.523661096441305, 102.59667803790005 12.734631200789245, 112.70241685355319 0.1792153941958503 M94.11414010686038 37.375415981746315 C100.6517679675522 29.655820257663432, 105.13846638303225 20.992115265596155, 118.22404841668498 -0.31443211676765515 M93.5676196930295 36.288519951514004 C100.26779323941646 25.965799646340244, 106.98675631449619 17.200239597036422, 119.60099772512507 0.40563559477936195 M98.71694395559368 36.14916674062985 C108.18638211294032 25.481327571228555, 113.95890216327922 16.37193741548844, 124.81113929123495 0.598243858035687 M101.26879761049983 36.676942715574086 C109.84104962399861 23.471676678480957, 117.77785533769034 11.363407473268396, 126.46114337825094 -0.054471793282743874 M104.88116061560626 37.88073076245283 C113.95432343246735 28.34351784880021, 120.2760224713833 16.647901397601057, 132.2165478152612 -0.09772431618624466 M106.49569612428363 37.1242701274613 C116.42509389150707 23.274638909295952, 125.98428740065953 10.66392057513255, 132.72372647760602 -0.07651426970117825 M112.12600829557617 37.37216116230499 C119.02493204830596 30.639103485434564, 122.75195331479338 21.148461797328203, 140.4712109474418 1.5754977256562626 M114.64173998602767 36.25659094679665 C122.59103605858681 24.422934509885415, 129.7942936636175 13.395453594441587, 138.3075623998371 0.0964563001450216 M121.04549686720986 38.83417104594437 C127.39458525579262 27.635294548574006, 135.65352710901533 14.810176949661113, 144.52403439645465 -1.134724401347043 M121.14194248540718 36.36060704886941 C130.5637091972283 23.101479225497002, 139.40008843756738 10.649736491062878, 146.2037321465909 -0.444627574123146 M126.11978203918535 36.48287602846073 C136.99050039153295 21.733346668919552, 148.65880547732786 10.067790775906882, 153.14871553400633 1.6776349085618705 M125.97175962406892 37.292875943300594 C133.42504412676365 25.85569508712083, 141.06776882564665 15.063055472376337, 153.0699052575427 -0.5732202672163993 M134.62198827018065 37.928922974943745 C143.33016206769247 21.653488835391855, 154.20225114242956 7.244773471517245, 157.75509756877477 1.1740037704727513 M134.24141302865965 37.18143951471113 C141.81814463856392 26.293835262651058, 150.35256769679708 13.317714158731285, 159.7291939843392 0.7820794804862601 M141.52503168190222 35.566618741151494 C147.39973063799076 25.216040146362815, 154.5233888963253 15.133057037703232, 167.29599245943803 1.160341549475305 M140.79021286385458 37.127452763390345 C145.1598437745973 29.019078955273987, 151.7934399141276 20.29056658477115, 165.76447620362717 -0.6608426963942122 M146.3129742330281 39.17067269217371 C153.50174299054254 26.7173273288821, 162.61686246577898 14.972877835027337, 171.17400382770256 1.476267601327578 M146.68541200630048 37.11442632395922 C154.17769365737414 27.179996975215598, 161.34012817020667 15.292125007864875, 172.11271833008186 0.1640119524314798 M151.8878466322363 35.285325443100085 C160.44068136215796 26.530447755338017, 168.55281474438797 15.123035893068515, 180.05288113224643 -1.4081962088806677 M153.81652895764415 36.709855206038704 C160.88503986569697 27.04128968883837, 167.587696090575 18.085133170703056, 179.56382949035006 -0.4200021884156513 M159.47647125123325 38.61347759968869 C168.18854748121282 26.821449896098763, 175.91969494159005 11.199525988653846, 184.76434258174757 0.9965032339402455 M159.48967075756076 37.766847534918114 C164.9944297045231 28.44429180263613, 169.7294063966105 22.136302702554676, 185.35498443607847 -0.13054635931467828 M165.441816298697 36.61343227702925 C173.33957629110958 25.329910951044464, 181.58715416041176 14.05155020355727, 191.21489804791253 0.5885790355483778 M166.9263871576971 36.333367070218415 C171.53888858609054 28.688717116567712, 178.53278248866704 21.459052474981334, 191.76494645694237 -0.024668684976290933 M172.1898187333056 36.8880238402115 C180.8931295106651 26.18454950231106, 191.80337012730334 13.05952236855601, 197.19720323941925 1.271646811033463 M173.85799353469994 37.35386194656061 C178.32905105946958 29.88478930873219, 183.31752625795784 22.008470670871915, 198.61292155458847 -0.5895616557795051 M179.07620717676545 38.57374664499346 C184.8706996277983 27.565254158497766, 195.2536494685096 16.986126529510084, 207.2968826149458 -1.6561465745147501 M179.11989380324448 37.37089341423396 C186.87106449275714 25.425204794751863, 196.1259787396143 13.826755067959766, 205.85288135566356 -1.0409333871033226 M187.8739151167451 36.18278797624211 C194.75462208434166 27.588413058498254, 197.91562016650857 20.82811780825679, 211.7993522961986 1.8870057346617415 M187.806493618968 35.67966877763669 C193.05867673216997 26.27791518590827, 199.61411836461352 17.028493570848266, 212.16788602484286 -0.62137887865849 M194.39960867495108 38.76570468971549 C203.8713837391771 22.122157566033085, 210.46861385072074 9.847496902938204, 219.50117424185575 1.3633131036527004 M192.58522814654577 36.8032180370581 C199.4082131902962 27.332722909580088, 206.15509035916696 18.983093494263358, 217.46893843877316 1.3088625041760054 M197.98109981006132 37.753456150503325 C207.32393066107517 24.45996186325072, 218.8613148732436 9.064190736973963, 224.6168791605952 1.0045161475478324 M198.8514752626245 37.64692682711916 C208.83896356565384 23.231664940045533, 218.65929842397333 10.020808498361198, 225.4893070991012 -0.02646422897888101 M208.36416923075387 38.34653297369533 C217.07035870290147 22.054340191400584, 225.54343199204922 5.854224863137709, 233.6857894241234 -0.7989845278948025 M207.32287846885094 36.200165157440836 C215.125833125076 26.425782173046848, 220.9275990839859 15.396216429328444, 232.3788490455022 -0.11800095283383882 M212.61938930873524 34.90408576504956 C220.53470358100583 25.84601423843492, 226.66872458172588 19.098275327791495, 238.38337324111842 1.0986141924145016 M212.6336698049004 36.237916153312426 C218.702193213648 29.736158585739005, 222.8564696789294 22.497529084375714, 237.2028640296229 0.7384660922320876 M219.95347825268337 35.54066763965575 C226.32522466778795 26.4584530791574, 233.00609360542614 18.771701058529334, 246.42806757025824 -2.012353326434507 M219.83352402241954 37.23001857435493 C224.6173073287927 28.236178966101967, 230.14248593367967 21.665057321403353, 244.5364174281101 0.14363504083989653 M224.6161230212763 37.51536296260362 C233.07459425074487 23.35295205886444, 240.5649420394408 13.721702548122053, 252.48810103324934 -1.3078927286837825 M226.98188149805517 37.0427955551893 C232.2759152904587 28.120818960863907, 238.6041987229758 20.18294645529871, 251.058663155639 0.29631714327888403 M232.80680223622056 38.62091608965122 C239.42540500799242 28.66264785749491, 243.45786016054703 19.762826281348406, 259.64890711776025 1.4116832705336009 M233.74227114648255 36.64068334610485 C242.43162821598614 24.083419205202304, 251.73023336714263 9.831478638793875, 258.7077568678469 -0.8520302960527744 M239.48614035619408 37.78047388588827 C243.89588454218847 27.665783321319505, 252.04280943983707 18.72557480763703, 267.03965194549744 0.8844315269757601 M239.88116459434838 37.99547383172255 C249.68611374065003 24.399801298450654, 258.8706380092386 10.97053803032993, 265.994883729409 0.8778727231342884 M247.28273058987492 38.43671446640448 C257.4393243617843 24.464073236414002, 265.43127142530693 10.142247486094131, 271.300647475139 0.22881140573232983 M245.86229909329944 36.78794327166335 C255.13874210152974 23.493592369468054, 263.87288799196233 11.507807395324821, 271.1591716169722 1.047661835460957 M253.39995780896953 35.94097593695794 C261.5817152712559 28.01366929297174, 268.9800543403504 17.843603738847346, 277.4901744153628 -1.6671864781069132 M253.44100043301097 37.1094810412166 C262.430952435544 23.954806865214607, 272.36060341891937 9.71615108101824, 278.762014032183 -0.6970429494517418 M258.42735272215594 38.14999891263834 C269.96516413380215 21.32038970700372, 277.95266074275526 6.933138770540992, 285.9913051378754 1.2430884812160627 M260.1630371151297 37.37133215000323 C264.11172210330705 28.512955994142384, 269.90257594975856 20.52573890605167, 284.2813930147168 0.07499149368547364 M265.24741478811217 36.81505525853542 C270.38778745923895 30.063408111810755, 276.9550968249183 22.710746642650626, 293.32325785135475 -1.2383106012090082 M265.95894326630247 37.00622598264424 C276.97800569401426 22.819291315241408, 285.1446656596698 8.506905562298133, 290.6107333162203 0.48985392449358756 M273.94243512854473 34.97107683040723 C279.98960681425723 24.57603843173228, 287.5301599802384 12.693319489871147, 299.04821951447894 -0.16479936029239184 M271.7383415512045 37.170005039428915 C279.4023899404859 27.923514857760747, 286.04559669631755 17.603958465604656, 298.65322531334033 -0.929882522406416 M278.60585070213153 35.53339799334351 C284.4212758117886 25.675138999656625, 294.4609759443663 18.198157282652254, 302.70999166198294 2.2079953003922697 M279.8887973464824 36.65086745497827 C285.9908169780664 26.85858635382333, 293.3894770598632 17.51654576949003, 301.9479708337806 2.700597143943071 M286.24906721755065 36.68688436243396 C291.8125034248874 26.518156377729607, 295.6107386616139 21.109114228404806, 301.9574626365826 11.509558566825802 M286.8701416537831 36.570995738913226 C292.17317995523075 27.791714977540416, 298.415172906829 17.656727248800614, 302.48095538822565 9.028173129054125 M291.70828204650854 35.275061543436635 C296.9742464887669 29.50419551138738, 297.4871471423411 27.711260267978922, 302.66807982089915 16.34181107276126 M291.80879401278173 37.08818551652311 C296.2387933814564 30.30933350599799, 297.6244106089773 26.631579582682434, 302.4960204022656 16.861614211211048" stroke-width="4"></path></svg>
